<svg width="260" height="79" viewBox="0 0 260 79" fill="none" xmlns="http://www.w3.org/2000/svg">
<path d="M104.355 56.2402C103.766 56.2514 103.186 56.0775 102.684 55.7387C102.285 56.0413 101.817 56.215 101.334 56.2402C100.991 56.2499 100.648 56.2096 100.315 56.1202C100.068 56.0518 99.8315 55.9435 99.6132 55.7986C99.436 55.7055 99.2853 55.5609 99.1773 55.3803C99.0692 55.1997 99.008 54.99 99.0001 54.7738C98.999 54.5782 99.0544 54.3873 99.1583 54.2287C99.3882 54.4153 99.6691 54.5095 99.9543 54.4958C100.324 54.526 100.693 54.4269 101.009 54.2126C101.325 53.9983 101.572 53.6797 101.715 53.302V45.6214C101.744 45.2339 101.648 44.8474 101.443 44.5312C101.026 44.0383 100.521 43.6465 99.9593 43.381C100.426 43.1839 100.854 42.8897 101.22 42.5143C101.535 42.1365 101.711 41.6429 101.715 41.1297V34.4793C101.575 34.0986 101.329 33.7765 101.013 33.5591C100.696 33.3417 100.326 33.2402 99.9543 33.2692C99.6691 33.2554 99.3882 33.3497 99.1583 33.5363C99.0534 33.3782 98.9979 33.187 99.0001 32.9912C99.0051 32.7958 99.0618 32.6064 99.1632 32.4461C99.2808 32.2588 99.4345 32.1024 99.6132 31.9882C100.061 31.6937 100.575 31.5409 101.096 31.5466C101.652 31.5443 102.196 31.7246 102.659 32.0645C103.157 31.7258 103.73 31.5465 104.315 31.5465C104.9 31.5465 105.474 31.7258 105.972 32.0645C106.415 31.7494 106.927 31.5707 107.455 31.5466C107.811 31.5359 108.166 31.5762 108.513 31.6665C108.759 31.7337 108.994 31.8422 109.21 31.9882C109.387 32.0813 109.538 32.2259 109.646 32.4065C109.754 32.5871 109.815 32.7968 109.823 33.013C109.826 33.208 109.772 33.399 109.67 33.5581C109.423 33.3675 109.125 33.2734 108.824 33.291C108.453 33.2948 108.088 33.3996 107.761 33.5962C107.41 33.7948 107.131 34.1199 106.97 34.5175V41.1242C106.941 41.5344 107.047 41.9424 107.267 42.2744C107.672 42.7475 108.164 43.1193 108.711 43.3646C108.223 43.5907 107.773 43.9059 107.381 44.2968C107.112 44.6598 106.967 45.1148 106.97 45.5832V52.4789C107.6 53.5691 108.384 54.1142 109.324 54.1142C111.658 54.1142 113.157 53.024 113.823 50.8436C114.102 49.9913 114.252 49.0946 114.268 48.1889C114.325 47.6224 114.22 47.0505 113.967 46.5535C114.153 46.369 114.393 46.2629 114.644 46.2537C114.869 46.2529 115.092 46.3068 115.297 46.4118C115.505 46.5258 115.689 46.6875 115.836 46.8861C116.166 47.31 116.342 47.8537 116.33 48.4124C116.343 48.8691 116.3 49.3257 116.201 49.7697C116.42 49.9762 116.593 50.2357 116.706 50.5278C116.82 50.8199 116.87 51.1369 116.854 51.4541C116.892 52.1089 116.697 52.7544 116.31 53.253C116.582 53.5849 116.747 54.0064 116.78 54.4522C116.786 54.7657 116.741 55.0778 116.646 55.3734C116.558 55.624 116.429 55.8549 116.266 56.0548C116.1 56.2514 115.898 56.4077 115.674 56.5137C115.45 56.6198 115.209 56.6733 114.965 56.6708C114.729 56.6735 114.495 56.6137 114.283 56.4964C114.318 56.2676 114.336 56.0361 114.337 55.8041C114.337 55.3244 114.14 55.0791 113.739 55.0791C113.309 55.1189 112.891 55.2523 112.508 55.4716C111.42 56.0082 110.238 56.2725 109.047 56.2456C108.017 56.2975 106.988 56.1119 106.026 55.7005C105.53 56.0607 104.948 56.2487 104.355 56.2402V56.2402ZM103.084 51.7539C103.579 51.5522 103.821 50.8654 103.87 49.6879C103.92 48.5105 103.954 46.8861 103.954 44.8092C103.954 42.7323 103.954 41.3477 103.954 40.6609C103.954 39.974 103.954 39.418 103.954 39.0255C103.954 37.7881 103.821 37.0413 103.633 36.7797C103.505 36.5719 103.336 36.3986 103.138 36.2727C103.138 39.925 103.081 42.0019 102.965 42.5034C102.88 42.7308 102.745 42.9317 102.572 43.0885C102.4 43.2453 102.195 43.3532 101.977 43.4028C102.55 43.6263 102.871 43.8934 102.965 44.2041C103.077 44.7129 103.135 46.5554 103.138 49.7315L103.084 51.7539Z" fill="white"/>
<path d="M129.353 54.4303C128.49 55.6913 127.191 56.32 125.457 56.3164C123.341 56.3164 121.756 55.6186 120.701 54.2232C120.252 53.6442 119.929 52.96 119.756 52.2226C119.689 51.837 119.517 51.4832 119.262 51.2087C118.994 50.953 118.697 50.7385 118.377 50.571C118.735 50.3796 119.053 50.1068 119.308 49.7704C119.564 49.434 119.752 49.0418 119.86 48.6195C120.115 47.7011 120.675 46.9225 121.428 46.439C122.233 45.961 123.129 45.7013 124.043 45.6813C124.992 45.6813 125.7 45.6214 126.154 45.5778C126.564 45.5462 126.971 45.4788 127.371 45.3761C127.959 45.2486 128.497 44.9251 128.913 44.4494V42.0836C128.974 41.2705 128.769 40.4602 128.335 39.7996C128.105 39.5443 127.828 39.3476 127.522 39.2233C127.216 39.099 126.89 39.0501 126.565 39.0801C125.951 39.0275 125.339 39.1958 124.819 39.5598C124.638 39.707 124.493 39.9006 124.394 40.1237C124.296 40.3468 124.249 40.5929 124.256 40.8408C124.256 41.6584 124.636 42.0564 125.398 42.04C125.243 42.8577 124.843 43.2665 124.196 43.2665C124.008 43.2657 123.82 43.2288 123.643 43.1575V43.2011C123.629 43.3223 123.656 43.445 123.719 43.5456C123.782 43.6462 123.876 43.7176 123.984 43.7462C123.849 43.9509 123.667 44.1126 123.457 44.215C123.247 44.3174 123.016 44.3569 122.787 44.3295C122.505 44.3192 122.232 44.2204 121.999 44.0447C121.766 43.8689 121.583 43.6236 121.472 43.3374C121.31 43.3789 121.144 43.399 120.978 43.3973C120.761 43.3881 120.55 43.3188 120.365 43.1956C120.147 43.0674 119.963 42.8797 119.831 42.6505C120.066 42.4934 120.266 42.2801 120.417 42.0263C120.567 41.7726 120.664 41.4848 120.701 41.1842C120.815 40.3774 121.398 39.5489 122.456 38.7258C123.902 37.6745 125.611 37.1519 127.341 37.2322C130.637 37.2322 132.641 38.3442 133.353 40.5682C133.606 41.4231 133.726 42.3186 133.709 43.2174V44.493C133.693 44.9446 133.817 45.3888 134.06 45.7522C134.383 46.1356 134.795 46.4129 135.252 46.5535C134.82 46.736 134.426 47.0143 134.095 47.3712C133.841 47.7308 133.705 48.1747 133.709 48.6304V53.3565C133.986 54.1414 134.382 54.5339 134.896 54.5339C135.183 54.5467 135.465 54.4526 135.697 54.2668C135.834 54.4858 135.903 54.7477 135.895 55.0136C135.887 55.1807 135.847 55.3441 135.777 55.4926C135.707 55.6412 135.609 55.7715 135.489 55.8749C135.143 56.1748 134.707 56.3206 134.268 56.2837C133.73 56.2846 133.204 56.1101 132.755 55.7822C132.447 56.0706 132.065 56.2459 131.662 56.2837C131.383 56.29 131.103 56.2552 130.832 56.1801C130.601 56.1148 130.382 56.006 130.184 55.8585C129.961 55.6996 129.772 55.49 129.628 55.2436C129.485 54.9973 129.391 54.72 129.353 54.4303V54.4303ZM122.842 54.1796C122.885 54.149 122.921 54.1071 122.946 54.0577C122.971 54.0082 122.984 53.9527 122.985 53.8961C122.962 53.6615 122.895 53.4349 122.787 53.2311C122.377 52.5143 122.129 51.6991 122.065 50.8544C122.055 50.4081 122.077 49.9615 122.13 49.5189C122.165 49.2784 122.223 49.0427 122.303 48.8157C122.366 48.6357 122.448 48.4639 122.545 48.3033L122.782 47.9108C122.874 47.7612 122.936 47.5923 122.965 47.4148C122.963 47.3679 122.95 47.3224 122.927 47.2824C122.905 47.2424 122.874 47.2092 122.837 47.1858C122.502 47.3386 122.208 47.5824 121.981 47.8945C121.625 48.4567 121.381 49.0958 121.264 49.7696C121.23 49.9877 120.894 50.2548 120.276 50.571C120.884 50.8762 121.22 51.1161 121.264 51.3723C121.504 52.4703 122.057 53.4545 122.842 54.1796V54.1796ZM124.983 50.6364C124.983 51.0709 125.026 51.504 125.111 51.9283C125.19 52.3109 125.32 52.6783 125.497 53.0185C125.661 53.3285 125.897 53.5843 126.182 53.7588C126.466 53.9334 126.788 54.0203 127.114 54.0106C127.366 54.0127 127.614 53.9497 127.84 53.8266C128.066 53.7036 128.263 53.5239 128.414 53.3019C128.755 52.7856 128.929 52.1579 128.908 51.5194V46.4009C128.181 46.83 127.385 47.102 126.565 47.2022C125.51 47.3839 124.983 48.5286 124.983 50.6364V50.6364ZM130.253 51.7266C130.807 51.4813 131.099 50.3257 131.123 48.2433V46.7606C131.123 46.2155 131.123 45.7086 131.123 45.3052C131.123 44.9018 131.123 44.5148 131.123 44.1496C131.084 42.825 130.975 42.0346 130.792 41.7784C130.666 41.5677 130.496 41.3923 130.298 41.266L130.253 51.7266Z" fill="white"/>
<path d="M141.389 55.7389C140.952 56.0689 140.434 56.2439 139.905 56.2404C139.686 56.2614 139.465 56.2342 139.255 56.1602C139.046 56.0863 138.851 55.9672 138.684 55.8098C138.466 55.5977 138.331 55.3006 138.308 54.9812C138.287 54.7166 138.343 54.4515 138.466 54.2235C138.696 54.4101 138.977 54.5043 139.262 54.4906C139.534 54.512 139.803 54.4253 140.02 54.2461C140.238 54.067 140.39 53.8074 140.449 53.5148V48.6087C140.479 48.2466 140.381 47.8858 140.177 47.6003C139.748 47.1395 139.245 46.77 138.694 46.51C139.15 46.3096 139.578 46.0379 139.965 45.7033C140.117 45.5379 140.237 45.34 140.318 45.1216C140.399 44.9032 140.438 44.6689 140.434 44.4331V42.1491C140.434 41.2551 140.157 40.7754 139.609 40.699C139.403 40.6749 139.197 40.664 138.991 40.6663C138.742 40.6686 138.502 40.7626 138.308 40.9334C138.18 40.7566 138.109 40.5381 138.105 40.312C138.112 40.0615 138.164 39.8149 138.259 39.587C138.366 39.3052 138.519 39.0468 138.709 38.8238C138.931 38.56 139.2 38.3498 139.5 38.2062C139.799 38.0627 140.123 37.989 140.449 37.9898C141.016 37.9708 141.58 38.0899 142.101 38.3387C142.3 38.05 142.554 37.813 142.845 37.6444C143.137 37.4758 143.458 37.3797 143.787 37.3629C144.775 37.3629 145.27 37.9298 145.27 39.0637V40.372C146.02 39.0054 147.216 38.0069 148.612 37.581C149.082 37.4346 149.568 37.3612 150.056 37.3629C151.052 37.3221 152.033 37.6356 152.854 38.2569C153.622 38.8968 154.183 39.7909 154.456 40.8081C154.784 40.0271 155.264 39.3358 155.862 38.7835C156.461 38.2312 157.163 37.8317 157.917 37.6137C158.495 37.4375 159.093 37.3531 159.693 37.3629C160.336 37.358 160.974 37.499 161.566 37.7772C162.134 38.0475 162.641 38.4534 163.05 38.9656C163.875 40.0558 164.291 41.5167 164.291 43.4083L164.246 44.4658C164.229 44.6605 164.247 44.857 164.299 45.044C164.35 45.2311 164.435 45.4051 164.548 45.5561C164.975 45.9734 165.463 46.3087 165.992 46.5482C165.505 46.7703 165.052 47.0716 164.647 47.4422C164.381 47.7652 164.237 48.1887 164.246 48.6251V53.5312C164.306 53.8232 164.458 54.0821 164.676 54.2611C164.894 54.4401 165.162 54.5273 165.433 54.507C165.673 54.5024 165.905 54.4083 166.091 54.2398C166.147 54.3291 166.211 54.4113 166.283 54.4851C166.371 54.6376 166.407 54.8187 166.387 54.9976C166.364 55.317 166.229 55.614 166.011 55.8261C165.847 55.9826 165.656 56.1014 165.45 56.1753C165.244 56.2493 165.026 56.277 164.81 56.2568C164.27 56.2585 163.742 56.084 163.292 55.7553C162.872 56.0837 162.368 56.259 161.853 56.2568C161.356 56.2671 160.869 56.1008 160.464 55.7825C160.109 56.0942 159.667 56.2617 159.213 56.2568C158.813 56.2799 158.419 56.1403 158.105 55.8643C157.964 55.7215 157.853 55.5455 157.781 55.3493C157.709 55.1531 157.678 54.9416 157.69 54.7304C157.687 54.6274 157.705 54.5249 157.742 54.4305C157.78 54.3362 157.837 54.2524 157.908 54.1853C158.092 54.3585 158.323 54.4584 158.565 54.4688C158.771 54.4657 158.971 54.3884 159.133 54.2486C159.296 54.1088 159.412 53.9143 159.465 53.6947V44.2914C159.465 41.8202 158.651 40.5864 157.023 40.59C156.748 40.6168 156.481 40.711 156.244 40.8656C156.006 41.0203 155.802 41.2316 155.648 41.484C155.191 42.1005 154.891 42.8398 154.778 43.6263L154.733 53.6729C154.786 53.8925 154.903 54.087 155.065 54.2268C155.228 54.3665 155.427 54.4439 155.633 54.447C155.875 54.4366 156.107 54.3367 156.291 54.1635C156.373 54.2637 156.435 54.3822 156.473 54.511C156.51 54.6398 156.522 54.776 156.508 54.9103C156.508 55.091 156.47 55.2692 156.398 55.4316C156.326 55.5939 156.222 55.7363 156.093 55.8479C155.778 56.1238 155.382 56.2634 154.981 56.2404C154.524 56.2452 154.079 56.0779 153.72 55.7662C153.314 56.0817 152.827 56.2477 152.33 56.2404C151.836 56.2491 151.353 56.0829 150.951 55.7662C150.596 56.0779 150.154 56.2453 149.7 56.2404C149.3 56.2626 148.906 56.123 148.592 55.8479C148.452 55.7041 148.343 55.5279 148.272 55.3318C148.201 55.1357 148.17 54.9248 148.182 54.7141C148.178 54.6114 148.195 54.5091 148.232 54.4147C148.269 54.3203 148.324 54.2363 148.395 54.169C148.579 54.3422 148.81 54.442 149.052 54.4524C149.258 54.4493 149.458 54.372 149.62 54.2322C149.783 54.0925 149.899 53.898 149.952 53.6784V44.2914C149.952 42.329 149.519 41.1588 148.652 40.7808C148.362 40.6493 148.051 40.5843 147.737 40.59C147.416 40.5931 147.101 40.6767 146.814 40.8344C146.527 40.9922 146.276 41.2199 146.081 41.5004C145.625 42.1131 145.337 42.8562 145.25 43.6427L145.225 53.6729C145.277 53.8934 145.393 54.089 145.556 54.229C145.718 54.3691 145.919 54.4457 146.125 54.447C146.367 54.4349 146.598 54.3353 146.783 54.1635C146.874 54.2617 146.945 54.3811 146.989 54.5131C147.034 54.6452 147.051 54.7864 147.04 54.9267C147.036 55.1073 146.994 55.2843 146.918 55.4442C146.841 55.604 146.733 55.7422 146.6 55.8479C146.273 56.1239 145.869 56.263 145.458 56.2404C145.007 56.2487 144.568 56.0872 144.212 55.7825C143.815 56.0928 143.338 56.2535 142.852 56.2404C142.329 56.2433 141.818 56.0681 141.389 55.7389V55.7389ZM141.799 51.7541C142.249 51.4379 142.501 50.7838 142.555 49.7862C142.595 49.0285 142.615 48.3525 142.615 47.7529V45.7523C142.64 44.753 142.602 43.7531 142.501 42.7596C142.48 42.4708 142.407 42.1895 142.287 41.9322C142.166 41.6748 142 41.4464 141.799 41.2605V42.2853C141.831 43.3279 141.797 44.3717 141.695 45.4089C141.644 45.6754 141.524 45.9198 141.349 46.1121C141.146 46.2997 140.911 46.4389 140.657 46.5209C141.23 46.739 141.552 47.0006 141.646 47.3059C141.796 48.4371 141.853 49.5812 141.814 50.7238L141.799 51.7541ZM150.882 41.2605C151.168 42.031 151.312 43.5264 151.312 45.7469V51.7432C151.806 51.5415 152.049 50.8546 152.098 49.6772C152.147 48.4997 152.182 47.464 152.182 46.5536C152.182 45.6433 152.182 44.8856 152.113 44.2805C152.078 43.7635 152.002 43.2509 151.885 42.7487C151.824 42.4363 151.702 42.142 151.529 41.8854C151.356 41.6288 151.135 41.4158 150.882 41.2605V41.2605ZM160.395 41.2605C160.681 42.031 160.825 43.5264 160.825 45.7469V51.7432C161.319 51.5415 161.561 50.8546 161.611 49.6772C161.66 48.4997 161.695 47.464 161.695 46.5536C161.695 45.6433 161.67 44.8856 161.626 44.2805C161.59 43.7633 161.512 43.2507 161.393 42.7487C161.333 42.4365 161.212 42.1422 161.04 41.8856C160.868 41.6289 160.648 41.4158 160.395 41.2605V41.2605Z" fill="white"/>
<path d="M174.896 54.8226C174.025 55.6931 172.902 56.1953 171.727 56.2398C170.763 56.2398 170.174 56.1036 169.957 55.831C170.191 55.4567 170.31 55.0098 170.298 54.5554C170.298 54.0103 170.328 53.4652 170.328 52.9637V48.6028C170.357 48.2407 170.26 47.8799 170.056 47.5944C169.627 47.133 169.124 46.7634 168.572 46.5041C169.029 46.3037 169.459 46.034 169.848 45.7028C170.004 45.5411 170.128 45.346 170.213 45.1295C170.298 44.9129 170.342 44.6796 170.342 44.4436V35.5365C170.342 34.3372 169.897 33.7376 169.012 33.7376C168.726 33.7273 168.445 33.8212 168.211 34.0047C168.087 33.8262 168.018 33.6084 168.014 33.3833C168.015 33.1657 168.066 32.9519 168.162 32.7619C168.279 32.5501 168.432 32.365 168.612 32.2168C169.118 31.8418 169.718 31.6512 170.328 31.6716C170.868 31.6587 171.408 31.7062 171.939 31.8134C172.143 31.501 172.406 31.2414 172.71 31.0531C173.014 30.8647 173.352 30.7521 173.7 30.7231C174.689 30.7231 175.183 31.2901 175.183 32.4239V39.1724C176 38.3166 177.02 37.7327 178.125 37.488C178.6 37.3809 179.084 37.3333 179.569 37.3463C180.195 37.3511 180.819 37.4464 181.423 37.6297C182.053 37.8048 182.632 38.1516 183.109 38.6382C184.061 39.6048 184.648 41.3256 184.869 43.8004C184.892 44.3906 185.069 44.9609 185.377 45.444C185.686 45.927 186.113 46.3025 186.609 46.5259C186.132 46.7427 185.695 47.0571 185.324 47.4526C185.071 47.8252 184.914 48.2657 184.869 48.7282C184.592 51.2721 184 53.14 183.094 54.332C182.105 55.6439 180.673 56.2998 178.797 56.2998C177.76 56.2769 176.743 55.9816 175.831 55.4385C175.499 55.2735 175.185 55.0668 174.896 54.8226V54.8226ZM173.784 36.2451C173.586 36.3509 173.417 36.5107 173.291 36.7092C173.166 36.9076 173.089 37.1382 173.067 37.379C172.941 38.5163 172.89 39.6622 172.914 40.8077V43.7404C172.914 44.2855 172.914 45.0759 172.938 46.0462C172.963 47.0165 172.938 47.7634 172.968 48.2867C172.988 49.4205 173.017 50.1473 173.057 50.4671C173.089 50.7608 173.179 51.0434 173.319 51.2957C173.423 51.5065 173.586 51.6747 173.784 51.7754V36.2451ZM175.153 50.9632C175.148 51.3657 175.215 51.7655 175.35 52.1397C175.484 52.5138 175.685 52.8549 175.939 53.1436C176.145 53.4191 176.402 53.6422 176.693 53.7975C176.984 53.9527 177.302 54.0365 177.625 54.043C179.211 54.043 180.005 52.782 180.009 50.26V43.3425C180.009 41.3692 179.593 40.2026 178.768 39.832C178.482 39.7037 178.176 39.6407 177.868 39.6466C177.318 39.613 176.774 39.7861 176.325 40.1377C175.876 40.4892 175.548 40.9983 175.396 41.5818C175.222 42.1484 175.14 42.7445 175.153 43.3425V50.9632ZM181.383 51.7808C181.878 51.5791 182.12 50.8923 182.164 49.7149C182.209 48.5374 182.253 47.6652 182.253 47.0929C182.253 46.5205 182.253 46.0462 182.253 45.6647C182.253 45.2831 182.253 44.8852 182.253 44.4763C182.214 42.9391 182.105 42.0506 181.922 41.7944C181.793 41.5889 181.624 41.4177 181.428 41.2929L181.383 51.7808Z" fill="white"/>
<path d="M191.113 56.5236C190.781 56.2012 190.518 55.803 190.34 55.3568C190.163 54.9106 190.075 54.427 190.085 53.9398C190.085 52.408 190.905 51.1488 192.557 50.1622C191.386 49.1857 190.554 47.7968 190.198 46.2265C190.098 45.8181 189.931 45.4336 189.704 45.0926C189.356 44.6886 188.937 44.3676 188.473 44.1496C188.903 43.9459 189.279 43.6251 189.565 43.2174C189.853 42.7655 190.074 42.2672 190.223 41.7402C190.414 41.1215 190.679 40.5332 191.009 39.9904C191.364 39.4219 191.81 38.9288 192.324 38.5349C193.671 37.5794 195.253 37.1071 196.853 37.1831C197.473 37.1853 198.09 37.2528 198.698 37.3847C198.822 36.2608 199.314 35.2257 200.082 34.4739C200.815 33.6886 201.799 33.2538 202.821 33.2637C203.932 33.2201 205.025 33.5907 205.921 34.3158C206.109 34.4925 206.329 34.6222 206.566 34.6956C206.803 34.769 207.052 34.7845 207.296 34.741C207.351 35.086 207.291 35.4413 207.128 35.7417C206.964 36.0421 206.708 36.2674 206.406 36.3763C206.302 37.7936 205.748 38.5022 204.735 38.5022C204.489 38.5284 204.241 38.4949 204.008 38.4041C204.079 38.3379 204.136 38.2541 204.173 38.1594C204.21 38.0647 204.226 37.9619 204.22 37.859C204.218 37.7542 204.196 37.6511 204.154 37.5569C204.112 37.4627 204.052 37.3798 203.978 37.3139C203.78 37.7227 203.33 37.9299 202.638 37.9299C202.452 37.9333 202.269 37.8789 202.11 37.7728C201.951 37.6668 201.822 37.5134 201.738 37.3302C202.067 37.2287 202.363 37.0287 202.594 36.7524C202.777 36.5668 202.89 36.3118 202.91 36.0383C202.91 35.4605 202.633 35.1716 202.08 35.1716C201.012 35.1716 200.389 36.0801 200.211 37.8972C200.994 38.216 201.7 38.7295 202.275 39.3978C202.849 40.0662 203.277 40.8714 203.523 41.7511C203.63 42.27 203.842 42.7555 204.143 43.1709C204.445 43.5864 204.828 43.921 205.264 44.1496C204.651 44.4232 204.133 44.9018 203.78 45.5178C203.674 45.7444 203.588 45.9817 203.523 46.2265C203.139 47.7994 202.29 49.1862 201.11 50.1676C199.855 51.0633 198.377 51.5071 196.883 51.4377C195.915 51.4582 194.951 51.3091 194.025 50.9962C193.896 51.0621 193.784 51.1642 193.702 51.2924C193.62 51.4205 193.569 51.5703 193.555 51.7266C193.546 51.9621 193.596 52.1959 193.699 52.4026C193.817 52.6178 193.989 52.7916 194.193 52.9041C195.078 53.3036 196.011 53.5571 196.962 53.6563C197.582 53.7944 198.22 53.3547 198.876 52.3372C198.884 52.7621 198.997 53.1766 199.202 53.5364C199.269 53.6536 199.357 53.7543 199.461 53.8322C199.564 53.9101 199.682 53.9634 199.805 53.9888C202.442 54.4213 204.141 55.3662 204.903 56.8234C205.19 57.404 205.328 58.0597 205.303 58.7204C205.29 59.5285 205.056 60.3134 204.631 60.9717C204.156 61.7313 203.537 62.3675 202.816 62.836C201.043 63.9414 199.028 64.4865 196.992 64.4114C194.286 64.4114 192.219 63.9226 190.792 62.945C189.565 62.0946 188.947 61.0099 188.947 59.6744C188.973 59.1848 189.095 58.7073 189.305 58.2752C189.515 57.843 189.808 57.4666 190.164 57.1723C190.455 56.9147 190.774 56.6969 191.113 56.5236ZM192.497 48.4614C192.581 48.4027 192.651 48.3225 192.701 48.2276C192.751 48.1327 192.78 48.0259 192.784 47.9163C192.784 47.6491 192.751 47.3832 192.685 47.1259C192.171 45.1877 192.171 43.1278 192.685 41.1896C192.741 40.9971 192.775 40.7974 192.784 40.5955V40.2139C192.783 40.1677 192.772 40.1224 192.753 40.0817C192.733 40.041 192.705 40.006 192.67 39.9795C192.273 40.5153 191.983 41.1376 191.82 41.8056C191.642 42.4815 191.504 43.0703 191.4 43.5881C191.36 43.7462 191.093 43.9424 190.599 44.1877C191.093 44.4603 191.37 44.662 191.4 44.7983L191.682 46.1229C191.833 46.9523 192.109 47.7481 192.497 48.4778V48.4614ZM192.542 57.5321C192.218 57.6773 191.945 57.9329 191.763 58.2615C191.58 58.5901 191.498 58.9744 191.528 59.3582C191.528 60.085 192.023 60.7301 193.012 61.2933C194.32 61.9966 195.764 62.3371 197.219 62.2854C199.35 62.2854 200.74 61.8821 201.377 61.0753C201.543 60.8856 201.638 60.6349 201.644 60.3721C201.641 60.2435 201.611 60.1174 201.556 60.0038C201.501 59.8903 201.423 59.7924 201.328 59.718C201.075 59.5116 200.79 59.3583 200.487 59.2655C199.71 59.0154 198.911 58.851 198.104 58.7749C197.58 58.7095 196.932 59.1347 196.161 60.0505C196.194 59.6057 196.103 59.1605 195.899 58.7749C195.842 58.669 195.766 58.5768 195.676 58.5038C195.586 58.4307 195.484 58.3784 195.375 58.3497C194.402 58.2253 193.449 57.9557 192.542 57.5484V57.5321ZM191.78 54.0815C191.735 54.1364 191.7 54.2009 191.678 54.2713C191.656 54.3416 191.647 54.4161 191.652 54.4903C191.688 55.6242 193.153 56.48 196.047 57.0578C196.384 57.145 196.621 57.543 196.764 58.2571C196.809 58.0227 196.997 57.8319 197.328 57.6792C197.534 57.5618 197.759 57.4896 197.991 57.4667C198.972 57.5739 199.945 57.756 200.903 58.0118C201.676 58.2211 202.369 58.6965 202.881 59.3691C202.994 59.2152 203.055 59.0224 203.054 58.824C203.046 58.6895 203.014 58.5582 202.959 58.4375C202.905 58.3168 202.829 58.2091 202.737 58.1208C202.433 57.813 202.067 57.5889 201.669 57.4667C200.589 57.0808 199.473 56.8285 198.342 56.7144C196.941 56.5327 195.952 56.3746 195.375 56.2402C194.844 56.1148 194.322 55.9472 193.813 55.7386C192.989 55.4462 192.275 54.8641 191.78 54.0815ZM195.523 48.5868C195.672 48.8582 195.89 49.0746 196.151 49.2082C196.631 49.3935 197.154 49.3935 197.635 49.2082C197.849 49.1164 198.034 48.9548 198.164 48.7449C198.492 48.0783 198.636 47.3204 198.579 46.5644V42.2035C198.579 41.1896 198.475 40.5137 198.262 40.1921C198.111 39.9218 197.893 39.7045 197.635 39.5652C197.153 39.387 196.632 39.387 196.151 39.5652C195.949 39.6583 195.777 39.8158 195.657 40.0176C195.322 40.6818 195.172 41.4404 195.227 42.1981V46.559C195.197 47.5892 195.301 48.2652 195.513 48.5868H195.523ZM199.948 48.4778C200.389 48.3088 200.641 47.7909 200.705 46.9187C200.769 46.0466 200.804 45.1798 200.804 44.1659C200.832 43.1558 200.794 42.1447 200.69 41.1406C200.664 40.8957 200.582 40.6621 200.453 40.4611C200.323 40.2601 200.15 40.0983 199.948 39.9904V48.4778Z" fill="white"/>
<path d="M209.537 51.7698C209.232 51.0096 209.017 50.2088 208.899 49.3876C208.862 48.9597 208.798 48.5353 208.706 48.1175C208.653 47.9181 208.564 47.7326 208.444 47.5724C208.07 47.1254 207.615 46.7691 207.109 46.5257C207.494 46.355 207.837 46.0885 208.112 45.7471C208.388 45.4057 208.588 44.9986 208.697 44.5578C208.761 44.3084 208.814 44.0555 208.855 43.8001C209.093 41.9342 209.979 40.2434 211.327 39.0848C212.701 37.8297 214.437 37.157 216.222 37.1877C218.048 37.1418 219.828 37.823 221.235 39.1066C222.553 40.2747 223.416 41.9536 223.648 43.8001C223.694 44.3057 223.825 44.7974 224.034 45.2501C224.365 45.8121 224.837 46.2554 225.394 46.5257C224.924 46.7361 224.495 47.0453 224.133 47.4361C223.869 47.8183 223.699 48.2688 223.638 48.7444C223.338 51.2265 222.559 53.109 221.3 54.3919C220.04 55.6747 218.359 56.3162 216.256 56.3162C214.005 56.3162 212.238 55.5893 210.956 54.1357C210.351 53.4538 209.869 52.6508 209.537 51.7698ZM211.47 51.7698C211.53 51.7268 211.579 51.6687 211.615 51.6005C211.65 51.5323 211.67 51.4558 211.673 51.3773C211.663 51.0783 211.62 50.7817 211.544 50.4942C211.237 49.3742 211.04 48.221 210.956 47.0545C210.95 46.5485 210.97 46.0426 211.015 45.539C211.05 45.1793 211.099 44.814 211.159 44.4488C211.282 43.7347 211.411 43.1023 211.544 42.5572C211.609 42.321 211.653 42.078 211.673 41.8322C211.68 41.7302 211.665 41.6279 211.63 41.5333C211.595 41.4387 211.54 41.3544 211.47 41.2871C211.036 41.9026 210.729 42.6151 210.57 43.3749C210.363 44.258 210.19 45.0103 210.076 45.708C210.031 45.9915 209.75 46.2532 209.235 46.5257C209.73 46.7874 210.031 47.0708 210.076 47.3107C210.261 48.4694 210.554 49.6038 210.951 50.6959C211.104 51.0601 211.277 51.4133 211.47 51.7535V51.7698ZM216.227 39.4227C214.612 39.4227 213.802 40.7347 213.799 43.3585V50.3361C213.799 52.8546 214.603 54.1139 216.212 54.1139C217.82 54.1139 218.635 52.8546 218.654 50.3361V43.3422C218.654 40.722 217.845 39.41 216.227 39.4064V39.4227ZM220.024 51.7698C220.518 51.5681 220.766 50.8813 220.81 49.7038C220.855 48.5263 220.899 47.6541 220.899 47.0817C220.899 46.5094 220.899 46.0351 220.899 45.6535C220.899 45.2719 220.899 44.874 220.899 44.4651C220.86 42.9279 220.751 42.0393 220.568 41.7831C220.44 41.5765 220.271 41.4049 220.073 41.2816L220.024 51.7698Z" fill="white"/>
<path d="M238.183 54.4303C237.32 55.6913 236.019 56.32 234.282 56.3164C232.173 56.3164 230.587 55.6186 229.526 54.2232C229.079 53.644 228.757 52.9597 228.587 52.2226C228.517 51.8378 228.345 51.4846 228.092 51.2087C227.825 50.953 227.527 50.7385 227.207 50.571C227.565 50.3793 227.882 50.1064 228.138 49.7701C228.394 49.4337 228.582 49.0416 228.69 48.6195C228.946 47.7002 229.508 46.9214 230.263 46.439C231.067 45.9654 231.962 45.7095 232.873 45.6922C233.828 45.6922 234.535 45.6323 234.989 45.5887C235.397 45.5568 235.802 45.4893 236.201 45.387C236.789 45.2595 237.327 44.936 237.743 44.4603V42.0836C237.804 41.2705 237.599 40.4602 237.165 39.7996C236.935 39.5433 236.657 39.3459 236.35 39.2216C236.043 39.0972 235.716 39.0489 235.39 39.0801C234.778 39.0275 234.167 39.1959 233.65 39.5598C233.469 39.707 233.323 39.9006 233.224 40.1237C233.126 40.3468 233.079 40.5929 233.086 40.8408C233.086 41.6584 233.467 42.0564 234.228 42.04C234.073 42.8577 233.673 43.2665 233.027 43.2665C232.836 43.2652 232.647 43.2284 232.468 43.1575V43.2011C232.455 43.3229 232.483 43.4456 232.547 43.546C232.611 43.6465 232.706 43.7177 232.814 43.7462C232.678 43.9513 232.495 44.1133 232.284 44.2157C232.073 44.3181 231.842 44.3573 231.612 44.3295C231.33 44.3192 231.057 44.2204 230.824 44.0447C230.591 43.8689 230.408 43.6236 230.297 43.3374C230.135 43.3793 229.969 43.3995 229.803 43.3973C229.586 43.3889 229.375 43.3194 229.19 43.1956C228.97 43.069 228.784 42.881 228.651 42.6505C228.886 42.4934 229.086 42.2801 229.237 42.0263C229.388 41.7726 229.485 41.4848 229.521 41.1842C229.64 40.3774 230.223 39.5489 231.281 38.7258C232.727 37.6745 234.436 37.1519 236.166 37.2322C239.462 37.2322 241.467 38.3442 242.179 40.5682C242.431 41.4231 242.551 42.3186 242.534 43.2174V44.493C242.516 44.9449 242.64 45.39 242.886 45.7522C243.207 46.1369 243.62 46.4145 244.077 46.5535C243.643 46.733 243.249 47.0117 242.92 47.3712C242.666 47.7308 242.53 48.1747 242.534 48.6304V53.3565C242.811 54.1414 243.207 54.5339 243.721 54.5339C244.006 54.5476 244.287 54.4534 244.517 54.2668C244.656 54.4851 244.727 54.7471 244.72 55.0136C244.711 55.1811 244.67 55.3446 244.599 55.4931C244.528 55.6417 244.43 55.7718 244.31 55.8749C243.964 56.1757 243.528 56.3217 243.088 56.2837C242.55 56.283 242.024 56.1087 241.575 55.7822C241.268 56.0715 240.886 56.2469 240.483 56.2837C240.204 56.2897 239.927 56.2549 239.657 56.1801C239.425 56.1138 239.204 56.0051 239.004 55.8585C238.784 55.698 238.596 55.4877 238.455 55.2415C238.313 54.9953 238.221 54.7188 238.183 54.4303V54.4303ZM231.672 54.1796C231.715 54.149 231.751 54.1071 231.776 54.0577C231.801 54.0082 231.814 53.9527 231.815 53.8961C231.792 53.6609 231.723 53.434 231.612 53.2311C231.207 52.5125 230.963 51.6977 230.9 50.8544C230.89 50.4081 230.912 49.9615 230.965 49.5189C230.998 49.2786 231.054 49.0429 231.133 48.8157C231.198 48.6367 231.28 48.4651 231.375 48.3033C231.471 48.1543 231.55 48.0235 231.612 47.9108C231.705 47.7611 231.769 47.5924 231.8 47.4148C231.798 47.3679 231.785 47.3224 231.762 47.2824C231.74 47.2424 231.709 47.2092 231.672 47.1858C231.336 47.3403 231.041 47.5837 230.811 47.8945C230.459 48.4583 230.216 49.0969 230.099 49.7696C230.06 49.9877 229.729 50.2548 229.111 50.571C229.719 50.8762 230.05 51.1161 230.099 51.3723C230.334 52.4712 230.885 53.4565 231.672 54.1796V54.1796ZM233.808 50.6364C233.808 51.0709 233.851 51.504 233.936 51.9283C234.01 52.3123 234.141 52.6805 234.322 53.0185C234.485 53.3281 234.721 53.5836 235.004 53.7582C235.288 53.9327 235.609 54.0199 235.934 54.0106C236.186 54.0136 236.435 53.951 236.661 53.8278C236.887 53.7047 237.083 53.5245 237.234 53.3019C237.578 52.7868 237.752 52.1582 237.729 51.5194V46.4009C237.002 46.8293 236.209 47.1012 235.39 47.2022C234.335 47.3839 233.808 48.5286 233.808 50.6364ZM239.078 51.7266C239.627 51.4813 239.919 50.3257 239.949 48.2433V46.7606C239.949 46.2155 239.949 45.7086 239.949 45.3052C239.949 44.9018 239.949 44.5148 239.924 44.1496C239.884 42.8268 239.776 42.0364 239.598 41.7784C239.47 41.569 239.301 41.3939 239.103 41.266L239.078 51.7266Z" fill="white"/>
<path d="M256.586 53.618C256.775 53.3916 256.92 53.1243 257.011 52.8331C257.116 52.5094 257.169 52.1683 257.169 51.8246C257.171 51.5 257.151 51.1757 257.11 50.8544C257.173 50.7549 257.253 50.6708 257.347 50.607C257.441 50.5433 257.545 50.5013 257.654 50.4837C257.845 50.4179 258.042 50.3741 258.242 50.3529C258.409 50.3469 258.574 50.3842 258.726 50.4619C258.877 50.5395 259.009 50.6553 259.112 50.7998C259.347 51.1608 259.462 51.5994 259.439 52.0427C259.432 52.5987 259.287 53.1419 259.018 53.6126C258.725 54.1419 258.344 54.606 257.896 54.9808C256.863 55.8716 255.583 56.3432 254.272 56.3163C251.635 56.3163 249.891 55.2261 249.041 53.0457C248.702 52.0763 248.543 51.0422 248.571 50.004V48.0689C248.571 47.5728 248.077 47.055 247.088 46.5099C247.524 46.2892 247.894 45.9373 248.156 45.4946C248.419 45.052 248.563 44.5366 248.571 44.0079V42.1491C248.571 40.9498 248.131 40.3557 247.241 40.3557C246.956 40.3419 246.675 40.4362 246.445 40.6228C246.318 40.4435 246.246 40.2235 246.242 39.9959C246.248 39.7552 246.285 39.5167 246.351 39.2873C246.426 39.0258 246.554 38.7869 246.727 38.5895C247.187 38.0444 247.894 37.8536 248.858 38.0444V37.5429C248.839 36.5001 249.108 35.4757 249.629 34.6048C250.074 33.8526 250.475 33.471 250.821 33.471C250.973 33.4633 251.126 33.4947 251.265 33.5628C251.405 33.6309 251.529 33.7338 251.627 33.8635C251.72 33.2212 251.939 32.6091 252.269 32.0701C252.408 31.8873 252.583 31.7427 252.782 31.6481C252.98 31.5534 253.196 31.5113 253.411 31.525V38.0662H258.034C258.128 38.3335 258.167 38.6201 258.148 38.9057C258.153 39.0882 258.118 39.2694 258.046 39.4336C257.974 39.5979 257.866 39.7403 257.733 39.8487C257.45 40.0886 257.101 40.2138 256.744 40.203H253.402V50.8871C253.402 52.7041 253.779 53.7743 254.534 54.0977C254.761 54.1847 255 54.2271 255.241 54.2231C255.489 54.2238 255.736 54.1739 255.968 54.0759C256.201 53.9747 256.412 53.8184 256.586 53.618V53.618ZM249.941 51.7538C250.39 51.4376 250.643 50.7835 250.697 49.786C250.737 49.0719 250.756 48.5159 250.766 48.1179C250.776 47.72 250.766 47.393 250.766 47.1477C250.766 46.9024 250.766 46.7061 250.766 46.5698V45.943C250.766 45.6377 250.766 45.2452 250.766 44.771C250.766 44.2968 250.766 43.7735 250.766 43.212C250.766 42.6506 250.766 42.1218 250.727 41.5767C250.731 40.8185 250.688 40.0609 250.598 39.3091C250.572 39.061 250.5 38.8215 250.387 38.605C250.274 38.3885 250.122 38.1997 249.941 38.0499V42.9558C249.971 43.7269 249.949 44.4994 249.876 45.267C249.833 45.3632 249.799 45.4636 249.772 45.5669C249.683 45.883 249.362 46.1447 248.784 46.3573C249.357 46.5753 249.679 46.8424 249.772 47.1586C249.925 48.3317 249.981 49.5175 249.941 50.7017V51.7538Z" fill="white"/>
<path d="M45.9751 76.99C45.0106 77.7385 43.7169 77.7385 42.7524 76.99L25.2014 63.3551L24.5059 63.4394L42.4858 77.4064C43.0469 77.8432 43.7053 78.0603 44.3638 78.0603C45.0222 78.0603 45.6807 77.8432 46.2417 77.4064L64.217 63.4419L63.5284 63.3525L45.9751 76.99Z" fill="white" stroke="white" stroke-width="0.2"/>
<path d="M69.7119 21.75C69.7119 20.5853 69.1948 19.4869 68.33 18.8151L46.2417 1.65518C45.1196 0.781606 43.6079 0.781606 42.4858 1.65518L20.3975 18.8151C19.5327 19.4869 19.0156 20.5827 19.0156 21.75V46.9433L19.4793 46.8718V21.7526C19.4793 20.7538 19.9222 19.8113 20.6641 19.2366L42.7524 2.07664C43.2346 1.70116 43.798 1.51469 44.3637 1.51469C44.9295 1.51469 45.4929 1.70116 45.9751 2.07664L68.0634 19.2366C68.8053 19.8139 69.2482 20.7538 69.2482 21.7526V46.9152L69.7119 46.9944V21.75V21.75Z" fill="white" stroke="white" stroke-width="0.2"/>
<path d="M67.3527 23.4943C67.3527 22.3295 66.8357 21.2311 65.9709 20.5593L46.2428 5.23331C45.1207 4.35973 43.609 4.35973 42.4869 5.23331L22.7588 20.5593C21.894 21.2311 21.377 22.3269 21.377 23.4943V46.5727L21.8407 46.5012V23.4968C21.8407 22.4981 22.2835 21.5555 23.0254 20.9808L42.7535 5.65478C43.2357 5.27929 43.7991 5.09283 44.3648 5.09283C44.9306 5.09283 45.4939 5.27929 45.9762 5.65478L65.7043 20.9808C66.4462 21.5581 66.889 22.4981 66.889 23.4968V46.5114L67.3527 46.5906V23.4943V23.4943Z" fill="white" stroke="white" stroke-width="0.2"/>
<path d="M45.9769 73.235C45.0124 73.9835 43.7187 73.9835 42.7542 73.235L29.3811 62.8466L28.6855 62.9309L42.4875 73.654C43.0486 74.0907 43.7071 74.3079 44.3655 74.3079C45.024 74.3079 45.6824 74.0907 46.2435 73.654L60.0779 62.9053L59.3893 62.8159L45.9769 73.235Z" fill="white" stroke="white" stroke-width="0.2"/>
<path d="M38.8989 66.4717V66.5842H38.5117V66.4717H38.8989Z" fill="white" stroke="white" stroke-width="0.2"/>
<path d="M40.1624 66.4501H39.752V66.869H40.2088V66.9941H39.6152V65.832H40.1856V65.9572H39.752V66.325H40.1624V66.4501Z" fill="white" stroke="white" stroke-width="0.2"/>
<path d="M40.4778 66.8138C40.538 66.8547 40.6285 66.8904 40.7212 66.8904C40.8603 66.8904 40.9415 66.8087 40.9415 66.6912C40.9415 66.5814 40.8858 66.5201 40.7421 66.4588C40.5705 66.3923 40.4639 66.2927 40.4639 66.1292C40.4639 65.9479 40.6006 65.8125 40.8047 65.8125C40.9136 65.8125 40.9901 65.8406 41.0388 65.8687L41.0017 65.9913C40.967 65.9709 40.8974 65.9351 40.8024 65.9351C40.6586 65.9351 40.603 66.0296 40.603 66.1088C40.603 66.2186 40.6679 66.2723 40.8139 66.3336C40.9925 66.4102 41.0829 66.5047 41.0829 66.6759C41.0829 66.8547 40.9623 67.0105 40.7143 67.0105C40.6122 67.0105 40.501 66.9773 40.4453 66.9364L40.4778 66.8138Z" fill="white" stroke="white" stroke-width="0.2"/>
<path d="M41.582 65.9597H41.2598V65.832H42.0411V65.9597H41.7188V66.9941H41.582V65.9597V65.9597Z" fill="white" stroke="white" stroke-width="0.2"/>
<path d="M42.2679 65.8482C42.3514 65.8354 42.4488 65.8252 42.5578 65.8252C42.7525 65.8252 42.8939 65.8763 42.9844 65.9708C43.0794 66.0654 43.1328 66.2008 43.1328 66.3874C43.1328 66.5765 43.0794 66.7323 42.9797 66.8396C42.88 66.9495 42.7177 67.0083 42.5137 67.0083C42.4163 67.0083 42.3352 67.0032 42.2656 66.9955V65.8482H42.2679ZM42.4047 66.878C42.4395 66.8857 42.4882 66.8857 42.5415 66.8857C42.8337 66.8857 42.9913 66.7068 42.9913 66.3925C42.9936 66.1191 42.8522 65.9427 42.5647 65.9427C42.4952 65.9427 42.4418 65.9504 42.4047 65.9581V66.878Z" fill="white" stroke="white" stroke-width="0.2"/>
<path d="M43.8164 66.9961V66.9041L43.9254 66.7892C44.185 66.516 44.3033 66.3704 44.3033 66.2018C44.3033 66.0869 44.2523 65.9822 44.1016 65.9822C44.0088 65.9822 43.9323 66.0333 43.886 66.0767L43.8419 65.9694C43.9115 65.903 44.0135 65.8545 44.1294 65.8545C44.3496 65.8545 44.4401 66.0205 44.4401 66.1814C44.4401 66.3883 44.3033 66.5568 44.09 66.7841L44.0088 66.8658V66.8684H44.4656V66.9935H43.8164V66.9961Z" fill="white" stroke="white" stroke-width="0.2"/>
<path d="M45.4077 66.4228C45.4077 66.8035 45.2802 67.0156 45.053 67.0156C44.8536 67.0156 44.7191 66.8112 44.7168 66.4381C44.7168 66.0625 44.8629 65.8555 45.0715 65.8555C45.2848 65.8555 45.4077 66.065 45.4077 66.4228ZM44.8536 66.4407C44.8536 66.732 44.9347 66.8981 45.0599 66.8981C45.2014 66.8981 45.2686 66.7166 45.2686 66.4304C45.2686 66.1545 45.2037 65.973 45.0623 65.973C44.9417 65.973 44.8536 66.134 44.8536 66.4407Z" fill="white" stroke="white" stroke-width="0.2"/>
<path d="M45.9423 66.0135H45.94L45.7638 66.1182L45.7383 66.0033L45.9609 65.873H46.0791V66.9941H45.947V66.0135H45.9423Z" fill="white" stroke="white" stroke-width="0.2"/>
<path d="M47.218 65.873V65.9726L46.7752 66.9941H46.6338L47.0766 66.0007V65.9982H46.5781V65.873H47.218Z" fill="white" stroke="white" stroke-width="0.2"/>
<path d="M48.2778 66.4717V66.5842H47.8906V66.4717H48.2778Z" fill="white" stroke="white" stroke-width="0.2"/>
<path d="M82.9026 67.7456C82.7914 67.7456 82.6801 67.7303 82.5665 67.6971C57.5731 60.3789 31.1538 60.3789 6.16046 67.6971C5.4765 67.8963 4.77168 67.4595 4.58852 66.7213L1.04122 52.4323C0.957755 52.0977 1.00181 51.7376 1.16642 51.4234C1.3519 51.0658 1.67881 50.7976 2.05904 50.6852C29.7349 42.5828 58.9943 42.5828 86.6702 50.6852C87.0504 50.7976 87.375 51.0658 87.5628 51.4234C87.7274 51.7401 87.7715 52.0977 87.688 52.4323L84.1407 66.7213C83.9854 67.3369 83.4684 67.7456 82.9026 67.7456ZM82.6685 67.2807C83.1438 67.4212 83.6353 67.1172 83.7628 66.6089L87.3101 52.3199C87.3658 52.0952 87.3356 51.8551 87.222 51.6405C87.0875 51.3825 86.8487 51.1884 86.5682 51.1066C58.9572 43.0222 29.7674 43.0222 2.15642 51.1066C1.87588 51.1884 1.63707 51.3825 1.5026 51.6405C1.39131 51.8551 1.35886 52.0977 1.4145 52.3199L4.9618 66.6089C5.08931 67.1198 5.58084 67.4212 6.05613 67.2807C31.1191 59.9447 57.6102 59.9447 82.6685 67.2807Z" fill="white" stroke="white" stroke-width="0.2"/>
<path d="M9.39534 62.4738C9.10553 62.5555 8.84817 62.5504 8.62328 62.4559C8.39839 62.6781 8.19204 62.816 7.99961 62.8722C7.80949 62.9284 7.65183 62.9565 7.52895 62.9565C7.40607 62.9565 7.29942 62.9387 7.20668 62.9003C7.01889 62.8288 6.92383 62.6985 6.92383 62.5044C6.92383 62.4048 6.94702 62.3128 6.9957 62.2234C7.09308 62.2771 7.21596 62.2822 7.36434 62.2388C7.75385 62.1238 8.02511 61.8582 8.17349 61.4392C8.17349 60.2361 8.17349 59.033 8.17349 57.8324C8.17349 57.6051 8.13176 57.4518 8.0483 57.3675C7.91614 57.2245 7.69125 57.1095 7.3713 57.0278C7.67038 56.7877 7.86282 56.5936 7.95092 56.4505C8.0993 56.2155 8.17581 55.9779 8.17581 55.7353C8.17581 54.6982 8.17581 53.6586 8.17581 52.6215C8.02743 52.2869 7.75617 52.1745 7.36666 52.292C7.21828 52.3354 7.0954 52.4146 6.99802 52.527C6.94933 52.4682 6.92615 52.389 6.92615 52.2945C6.92615 52.1974 6.95165 52.1004 7.00266 52.0033C7.05367 51.9037 7.12322 51.8117 7.209 51.7274C7.41071 51.5282 7.64256 51.3928 7.90455 51.3162C8.16654 51.2395 8.40535 51.2523 8.6256 51.3494C8.85513 51.122 9.11016 50.9688 9.3907 50.8896C9.67124 50.8104 9.92859 50.8206 10.1558 50.9203C10.4016 50.6904 10.6265 50.5473 10.8305 50.4937C11.0322 50.44 11.1968 50.4145 11.3197 50.4196C11.4426 50.4247 11.5515 50.4451 11.6443 50.486C11.8344 50.5652 11.9294 50.7006 11.9294 50.8921C11.9294 50.9918 11.9063 51.0837 11.8576 51.168C11.7602 51.1093 11.6304 51.1016 11.4681 51.145C11.3058 51.1885 11.1412 51.2804 10.9742 51.4184C10.8096 51.5588 10.6867 51.7351 10.6079 51.9497C10.6079 52.9842 10.6079 54.0213 10.6079 55.0558C10.6079 55.2959 10.6543 55.4645 10.747 55.5565C10.8931 55.7097 11.1157 55.8221 11.4147 55.8962C11.0925 56.1593 10.8884 56.3585 10.8003 56.4939C10.6728 56.7059 10.6079 56.9256 10.6079 57.1504C10.6079 58.2258 10.6079 59.3012 10.6079 60.374C10.8977 60.8108 11.2617 60.9718 11.6999 60.8594C12.7803 60.5784 13.4782 59.8964 13.7889 58.798C13.9257 58.3127 13.9952 57.881 13.9952 57.5055C13.9952 57.13 13.9489 56.8873 13.8561 56.7826C13.9581 56.6651 14.0625 56.5935 14.1714 56.5655C14.2804 56.5399 14.3801 56.5399 14.4728 56.568C14.5656 56.5961 14.649 56.6497 14.7255 56.7289C14.8809 56.895 14.9574 57.1146 14.9574 57.3905C14.9574 57.6664 14.9365 57.881 14.8971 58.0393C15.1011 58.1798 15.2032 58.4174 15.2032 58.7571C15.2032 59.0969 15.1174 59.3932 14.9435 59.6435C15.0896 59.8172 15.1637 59.9858 15.1637 60.1544C15.1637 60.3204 15.1429 60.4711 15.1011 60.6014C15.0594 60.7317 15.0014 60.8517 14.9249 60.9641C14.7557 61.1966 14.554 61.3396 14.3198 61.3958C14.2039 61.4239 14.0972 61.4214 14.0022 61.3907C14.0207 61.2783 14.0277 61.1685 14.0277 61.0586C14.0277 60.8313 13.9349 60.7419 13.7495 60.7879C13.6127 60.8211 13.4226 60.9284 13.1791 61.1123C12.7108 61.4699 12.1775 61.7253 11.5794 61.8811C10.9812 62.037 10.5152 62.0778 10.1813 61.9986C9.94482 62.2362 9.68515 62.3946 9.39534 62.4738ZM8.80876 60.5375C9.02902 60.3817 9.14958 60.0241 9.17044 59.4672C9.19595 58.9078 9.20986 58.1415 9.20986 57.1683C9.20986 56.1951 9.20986 55.5462 9.20754 55.2244C9.20522 54.9025 9.20291 54.6446 9.19827 54.4479C9.18436 53.8706 9.13567 53.5334 9.04988 53.4389C8.9641 53.3418 8.88295 53.2856 8.80876 53.2677C8.80876 54.9792 8.78326 55.9601 8.72993 56.213C8.66733 56.4275 8.51895 56.6089 8.28246 56.7621C8.54677 56.7902 8.69516 56.872 8.72993 57.0099C8.78326 57.2322 8.80876 58.0879 8.80876 59.5771C8.80876 59.8989 8.80876 60.2182 8.80876 60.5375Z" fill="white" stroke="white" stroke-width="0.2"/>
<path d="M21.0293 58.9283C20.6235 59.5924 20.0161 60.0011 19.2046 60.162C18.2169 60.3587 17.4773 60.1901 16.9835 59.6435C16.7702 59.4085 16.6241 59.1301 16.543 58.8031C16.4989 58.6065 16.4201 58.466 16.3111 58.3791C16.1998 58.2923 16.0631 58.2233 15.8984 58.1722C16.2184 57.9372 16.4456 57.5822 16.5847 57.1045C16.7308 56.5988 16.9742 56.2054 17.3174 55.9193C17.686 55.6179 18.0917 55.4161 18.5369 55.314C18.982 55.2118 19.3113 55.1301 19.5246 55.0688C19.7379 55.0075 19.928 54.9385 20.0926 54.8619C20.401 54.7239 20.6398 54.5349 20.8137 54.2897C20.8137 53.9219 20.8137 53.5515 20.8137 53.1837C20.8137 52.6958 20.7232 52.3561 20.5424 52.1645C20.3615 51.9729 20.088 51.9116 19.7216 51.9832C19.3553 52.0547 19.0817 52.185 18.9078 52.3689C18.7316 52.5553 18.6435 52.7724 18.6435 53.0228C18.6435 53.4059 18.8221 53.5566 19.1768 53.4749C19.1049 53.8733 18.9194 54.1007 18.6157 54.1645C18.5276 54.1824 18.4395 54.1824 18.356 54.1671C18.356 54.1748 18.356 54.1824 18.356 54.1901C18.356 54.3178 18.4094 54.3893 18.516 54.3995C18.4047 54.609 18.2169 54.7393 17.9549 54.7878C17.693 54.8389 17.4889 54.7265 17.3429 54.4532C17.2756 54.4864 17.1991 54.5145 17.1133 54.5324C17.0275 54.5502 16.9302 54.54 16.8258 54.4991C16.7215 54.4583 16.638 54.3868 16.5754 54.2871C16.798 54.0905 16.9325 53.8325 16.9812 53.5132C17.0345 53.1224 17.3081 52.6805 17.8019 52.1875C18.3978 51.5949 19.1582 51.2067 20.0856 51.0279C21.6228 50.7341 22.5618 51.0994 22.9026 52.0828C23.0139 52.4123 23.0696 52.8159 23.0696 53.2935C23.0696 53.4928 23.0696 53.692 23.0696 53.8912C23.0696 54.1313 23.1252 54.3203 23.2342 54.4532C23.3431 54.5885 23.5309 54.6831 23.7929 54.7367C23.5124 54.9257 23.3315 55.0841 23.2504 55.2092C23.1298 55.4008 23.0696 55.6077 23.0696 55.8299C23.0696 56.5681 23.0696 57.3063 23.0696 58.0445C23.1994 58.3919 23.3849 58.5452 23.626 58.5068C23.779 58.4813 23.9019 58.42 24.0016 58.3204C24.0642 58.4047 24.0943 58.5145 24.0943 58.655C24.0943 58.7955 24.0317 58.9385 23.9042 59.0867C23.7767 59.2348 23.5866 59.3293 23.3315 59.3728C23.0765 59.4162 22.84 59.3753 22.6221 59.2553C22.4296 59.4443 22.2604 59.5541 22.1097 59.5797C21.959 59.6052 21.8315 59.6129 21.7225 59.6001C21.6135 59.5873 21.5115 59.5567 21.4188 59.503C21.2078 59.3932 21.078 59.2016 21.0293 58.9283ZM17.9828 59.4085C18.0268 59.3651 18.05 59.3166 18.05 59.2629C18.05 59.1888 18.0199 59.0918 17.9573 58.9717C17.7347 58.5656 17.6234 58.2182 17.6234 57.927C17.6234 57.6358 17.6327 57.4264 17.6535 57.2935C17.6744 57.1607 17.6999 57.0458 17.7347 56.9487C17.7671 56.8517 17.8066 56.7623 17.8483 56.6856C17.89 56.609 17.9271 56.54 17.9573 56.4787C18.0152 56.3536 18.043 56.2693 18.043 56.2284C18.043 56.1875 18.0222 56.1543 17.9828 56.1339C17.7996 56.2642 17.6675 56.4047 17.5817 56.5502C17.431 56.8082 17.3197 57.125 17.2478 57.5004C17.2293 57.6077 17.0739 57.7661 16.7818 57.9781C17.067 58.0598 17.2223 58.1518 17.2478 58.254C17.4008 58.8057 17.6466 59.1888 17.9828 59.4085ZM18.9844 57.5439C18.9844 57.7508 19.0052 57.9475 19.0446 58.1365C19.0841 58.3255 19.1443 58.4864 19.2255 58.6167C19.404 58.89 19.6544 58.9973 19.979 58.9334C20.2248 58.8874 20.4265 58.7367 20.5864 58.4864C20.7371 58.2412 20.8137 57.95 20.8137 57.6103C20.8137 56.8082 20.8137 56.0062 20.8137 55.2041C20.5285 55.4391 20.1622 55.6333 19.717 55.7891C19.2278 55.9704 18.9844 56.5554 18.9844 57.5439ZM21.4489 57.5975C21.7086 57.4366 21.8431 56.8695 21.857 55.8938C21.857 55.6869 21.857 55.4519 21.857 55.1863C21.857 54.9206 21.857 54.6933 21.8547 54.5043C21.8523 54.3152 21.85 54.1364 21.8454 53.9628C21.8268 53.3472 21.7758 52.9844 21.6924 52.8797C21.6066 52.775 21.5278 52.7086 21.4512 52.683C21.4489 54.3229 21.4489 55.9602 21.4489 57.5975Z" fill="white" stroke="white" stroke-width="0.2"/>
<path d="M26.675 58.6295C26.4686 58.8159 26.2345 58.9283 25.9702 58.9666C25.7058 59.0049 25.5157 58.9666 25.3952 58.8491C25.2769 58.7316 25.2166 58.6116 25.2166 58.489C25.2166 58.3255 25.2421 58.2054 25.2908 58.1237C25.3882 58.1927 25.5134 58.2157 25.6664 58.1927C25.9539 58.1518 26.1394 57.973 26.2229 57.6537C26.2229 56.8874 26.2229 56.1186 26.2229 55.3523C26.2229 55.1352 26.1811 54.9845 26.0954 54.8976C25.9748 54.7623 25.7429 54.6294 25.4044 54.4966C25.7174 54.2923 25.9168 54.139 26.0026 54.0317C26.151 53.8478 26.2252 53.6384 26.2252 53.4034C26.2252 53.0432 26.2252 52.6856 26.2252 52.3255C26.2252 51.9066 26.0954 51.6997 25.8357 51.7022C25.7592 51.7022 25.6641 51.7124 25.5482 51.7303C25.4323 51.7482 25.3233 51.8044 25.2259 51.904C25.1633 51.8197 25.1309 51.7278 25.1309 51.6256C25.1309 51.526 25.154 51.4085 25.2004 51.2756C25.2468 51.1428 25.3187 51.0126 25.4114 50.8874C25.6479 50.586 25.9215 50.4123 26.2345 50.3689C26.5451 50.3255 26.8048 50.3433 27.0112 50.4225C27.2569 50.0828 27.5212 49.8963 27.8041 49.8606C28.2655 49.8018 28.4973 50.0368 28.4973 50.5681C28.495 50.7725 28.4927 50.9768 28.4904 51.1811C28.866 50.4762 29.3923 49.9755 30.0646 49.6894C30.2849 49.5949 30.5121 49.5362 30.7439 49.5106C31.2726 49.4544 31.7131 49.5489 32.0632 49.7967C32.4133 50.0445 32.666 50.4174 32.819 50.9206C33.1552 50.1288 33.7023 49.5796 34.4582 49.2833C34.7062 49.1862 34.9845 49.1249 35.2975 49.102C35.6105 49.079 35.9049 49.1249 36.1808 49.2373C36.4567 49.3497 36.6932 49.5208 36.8856 49.7507C37.2775 50.2284 37.4722 50.9129 37.4722 51.7967C37.4653 51.9628 37.4583 52.1262 37.4514 52.2923C37.4514 52.5273 37.4977 52.6958 37.5928 52.7929C37.7319 52.9385 37.9591 53.0815 38.2744 53.222C37.9313 53.4213 37.7203 53.572 37.6391 53.6741C37.5139 53.8325 37.449 54.0215 37.449 54.2386C37.449 55.0049 37.449 55.7738 37.449 56.5401C37.5348 56.8415 37.7203 56.9819 38.0101 56.9692C38.1191 56.9641 38.2211 56.9181 38.3208 56.8287C38.3486 56.867 38.3788 56.9028 38.4112 56.9385C38.4437 56.9743 38.4622 57.0535 38.4622 57.1761C38.4622 57.2987 38.4019 57.4315 38.2837 57.572C38.1654 57.7125 37.9753 57.7891 37.7157 57.8044C37.456 57.8172 37.2172 57.7533 36.9969 57.6077C36.7952 57.7763 36.568 57.8683 36.3176 57.8862C36.0672 57.9015 35.8493 57.8427 35.6592 57.7074C35.483 57.8683 35.2859 57.9551 35.0679 57.9704C34.85 57.9858 34.6761 57.9372 34.5463 57.8249C34.4164 57.7125 34.3515 57.5413 34.3515 57.3089C34.3515 57.2016 34.3863 57.1122 34.4535 57.0432C34.5579 57.125 34.6599 57.1607 34.7642 57.1531C34.9613 57.1378 35.1027 57.0075 35.1885 56.7597C35.1885 55.2936 35.1885 53.8274 35.1885 52.3612C35.1885 51.2067 34.8036 50.655 34.0362 50.7163C33.816 50.7341 33.6003 50.8925 33.3893 51.1914C33.1784 51.4851 33.0416 51.8325 32.979 52.231C32.972 53.8019 32.9651 55.3702 32.9581 56.9411C33.0439 57.1735 33.1853 57.2833 33.3824 57.2655C33.4867 57.2578 33.5887 57.2042 33.6931 57.1071C33.7603 57.1659 33.7951 57.2782 33.7951 57.4494C33.7951 57.618 33.7302 57.7712 33.6003 57.904C33.4705 58.0369 33.2943 58.1135 33.074 58.1339C32.8538 58.1544 32.6567 58.0982 32.4805 57.9679C32.2881 58.1339 32.0678 58.2284 31.8244 58.2514C31.5786 58.2744 31.363 58.2233 31.1752 58.0956C30.999 58.2616 30.8042 58.3561 30.5863 58.3791C30.3683 58.4021 30.1945 58.3613 30.0646 58.2514C29.9348 58.1441 29.8699 57.973 29.8699 57.7431C29.8699 57.6358 29.9046 57.5439 29.9719 57.4724C30.0739 57.549 30.1782 57.5822 30.2826 57.5694C30.4796 57.5464 30.6211 57.4111 30.7068 57.1607C30.7068 55.6946 30.7068 54.2284 30.7068 52.7622C30.7068 51.8427 30.5028 51.3165 30.0948 51.1837C29.9649 51.1403 29.8212 51.125 29.6635 51.1454C29.3621 51.1811 29.1024 51.3548 28.8822 51.6665C28.6758 51.9576 28.546 52.3076 28.4927 52.7188C28.488 54.2872 28.4834 55.8529 28.4788 57.4213C28.5646 57.6512 28.706 57.7533 28.9031 57.7304C29.0051 57.7176 29.1094 57.6614 29.2114 57.5592C29.2926 57.6231 29.332 57.738 29.332 57.9015C29.332 58.0675 29.2624 58.2182 29.1279 58.3587C28.9912 58.4992 28.8126 58.5809 28.5901 58.609C28.3675 58.6371 28.1727 58.5911 28.0012 58.4685C27.8226 58.6346 27.6093 58.7342 27.3636 58.7674C27.1132 58.8057 26.886 58.7572 26.675 58.6295ZM26.8697 56.7342C27.0807 56.5579 27.199 56.2335 27.2268 55.7635C27.2453 55.4059 27.2546 55.0892 27.2546 54.8082C27.2546 54.4966 27.2546 54.1824 27.2546 53.8708C27.2546 53.1428 27.2361 52.678 27.2013 52.4762C27.1387 52.1313 27.0297 51.9117 26.8721 51.8197C26.8721 51.9806 26.8721 52.139 26.8721 52.2999C26.8721 53.1301 26.8558 53.6205 26.821 53.7712C26.7886 53.9219 26.7329 54.0368 26.6588 54.1211C26.5846 54.2054 26.4756 54.2846 26.3342 54.3587C26.6031 54.4251 26.7561 54.5247 26.7909 54.6626C26.8442 54.8925 26.8721 55.4213 26.8721 56.2514C26.8697 56.4149 26.8697 56.5758 26.8697 56.7342ZM31.1474 51.3038C31.2818 51.6486 31.3491 52.3433 31.3491 53.3855C31.3491 54.3229 31.3491 55.2604 31.3491 56.1978C31.574 56.0803 31.6968 55.7482 31.72 55.1939C31.7479 54.6397 31.7594 54.1518 31.7594 53.7252C31.7594 53.2986 31.7478 52.9462 31.7247 52.6626C31.7015 52.3791 31.6667 52.1441 31.618 51.9576C31.5299 51.623 31.3723 51.4034 31.1474 51.3038ZM35.6383 50.918C35.7728 51.268 35.84 51.9653 35.84 53.0075C35.84 53.9449 35.84 54.8823 35.84 55.8197C36.0649 55.7125 36.1878 55.3804 36.211 54.8287C36.2388 54.2769 36.2504 53.7865 36.2504 53.3625C36.2504 52.9359 36.2388 52.5834 36.2156 52.2999C36.1924 52.0164 36.1576 51.7788 36.1066 51.5924C36.0208 51.2476 35.8632 51.0253 35.6383 50.918Z" fill="white" stroke="white" stroke-width="0.2"/>
<path d="M42.4965 56.9793C42.005 57.4289 41.5065 57.6613 40.9964 57.6766C40.542 57.6894 40.2615 57.6358 40.1595 57.5106C40.2591 57.3752 40.3125 57.1734 40.3218 56.9078C40.331 56.6421 40.3357 56.3944 40.3357 56.1619C40.3357 55.4774 40.3357 54.7954 40.3357 54.1108C40.3357 53.8937 40.2939 53.7379 40.2081 53.6434C40.0876 53.4952 39.8534 53.3343 39.5126 53.1657C39.8279 52.9971 40.0273 52.8643 40.1131 52.7673C40.2615 52.5987 40.3357 52.402 40.3357 52.1696C40.3357 50.7775 40.3357 49.3854 40.3357 47.9933C40.3357 47.4339 40.127 47.158 39.7074 47.1733C39.5543 47.1784 39.4291 47.227 39.3294 47.3138C39.2668 47.2219 39.2344 47.1274 39.2344 47.0252C39.2344 46.9256 39.2576 46.8259 39.3062 46.7314C39.3526 46.6369 39.4245 46.5475 39.5196 46.4658C39.7352 46.2895 40.0064 46.1976 40.331 46.1848C40.6556 46.1746 40.9107 46.1899 41.0938 46.2282C41.3651 45.8809 41.641 45.7046 41.9238 45.6995C42.3875 45.6893 42.6194 45.9524 42.6194 46.4837C42.6194 47.5361 42.6194 48.5884 42.6194 49.6408C42.9672 49.2576 43.4309 48.9869 44.0105 48.8387C44.1867 48.7928 44.4139 48.7698 44.6921 48.7723C44.9703 48.7723 45.2648 48.8183 45.5708 48.9103C45.8769 49.0022 46.1435 49.1631 46.3684 49.3905C46.8182 49.8502 47.0964 50.6625 47.1984 51.8247C47.2425 52.4301 47.5184 52.8643 48.0238 53.1274C47.7039 53.2909 47.5021 53.4314 47.4164 53.5489C47.2981 53.7123 47.2262 53.9116 47.2007 54.1415C47.0709 55.3241 46.7904 56.1951 46.3638 56.7545C45.8954 57.3625 45.2161 57.6639 44.3304 57.6639C43.876 57.6639 43.4077 57.5336 42.9254 57.2679C42.7631 57.1862 42.6217 57.0891 42.4965 56.9793ZM41.9679 48.2819C41.7824 48.379 41.6711 48.5578 41.6294 48.8209C41.5807 49.1478 41.5552 49.6842 41.5552 50.4301C41.5552 50.8081 41.5552 51.1887 41.5552 51.5667C41.5552 51.6459 41.5552 51.7251 41.5552 51.8017C41.5598 52.0674 41.5645 52.4275 41.5691 52.8822C41.5737 53.3369 41.5784 53.6868 41.583 53.9346C41.5923 54.4659 41.6062 54.803 41.6224 54.9435C41.641 55.0866 41.6827 55.2143 41.7476 55.3292C41.8125 55.4442 41.8867 55.5182 41.9679 55.5489C41.9679 53.1274 41.9679 50.7059 41.9679 48.2819ZM42.6171 55.1555C42.6171 55.554 42.7399 55.8937 42.988 56.1773C43.2222 56.4557 43.4888 56.5936 43.7856 56.591C44.5368 56.5859 44.9147 55.9985 44.9147 54.8184C44.9147 53.7404 44.9147 52.6651 44.9147 51.5872C44.9147 50.6625 44.7176 50.1133 44.3258 49.9422C44.2006 49.8834 44.0569 49.8554 43.8992 49.8554C43.3219 49.8579 42.9324 50.167 42.7307 50.7749C42.6542 50.9971 42.6147 51.273 42.6147 51.6025C42.6171 52.7851 42.6171 53.9703 42.6171 55.1555ZM45.5639 55.5285C45.7888 55.4365 45.914 55.1172 45.9348 54.5655C45.9627 54.0138 45.9743 53.6051 45.9743 53.3369C45.9743 53.0687 45.9719 52.8439 45.9719 52.6651C45.9696 52.4863 45.9673 52.2998 45.9627 52.1083C45.9441 51.3905 45.8931 50.9716 45.8073 50.8515C45.7215 50.7315 45.6404 50.6523 45.5639 50.614C45.5639 52.2513 45.5639 53.8912 45.5639 55.5285Z" fill="white" stroke="white" stroke-width="0.2"/>
<path d="M50.1669 57.889C49.8423 57.5493 49.68 57.1406 49.68 56.6578C49.68 55.94 50.0695 55.3627 50.8485 54.9387C50.3408 54.5249 49.9675 53.894 49.7333 53.0434C49.6568 52.7803 49.5803 52.5989 49.5038 52.5044C49.3902 52.3537 49.1978 52.1979 48.9219 52.0395C49.1468 51.9348 49.3183 51.7943 49.4389 51.6232C49.5571 51.4495 49.6615 51.2247 49.7496 50.9411C49.8377 50.6602 49.9606 50.392 50.1205 50.1365C50.2805 49.8836 50.4869 49.664 50.7396 49.4775C51.2937 49.0816 52.0055 48.9079 52.8795 48.9641C53.1578 48.982 53.4476 49.033 53.749 49.1199C53.8116 48.5886 54.0295 48.1492 54.4028 47.8044C54.7714 47.4545 55.2027 47.2986 55.6965 47.3421C56.2761 47.3932 56.763 47.6026 57.1595 47.9704C57.3751 48.1697 57.5907 48.2565 57.8063 48.2335C57.8249 48.6295 57.6858 48.867 57.389 48.9513C57.3403 49.6103 57.076 49.9169 56.6007 49.8709C56.4129 49.853 56.297 49.8275 56.2576 49.7942C56.3248 49.7355 56.3596 49.6563 56.3596 49.5567C56.3596 49.4571 56.3202 49.3651 56.246 49.2834C56.1509 49.4673 55.94 49.5439 55.6131 49.5158C55.4322 49.5005 55.2908 49.3958 55.1888 49.1991C55.3603 49.1531 55.4948 49.0765 55.5922 48.9641C55.6919 48.8517 55.7406 48.7444 55.7406 48.6422C55.7406 48.3715 55.6107 48.2259 55.3487 48.2029C54.8456 48.162 54.5512 48.5656 54.4654 49.4162C55.2838 49.8632 55.8055 50.512 56.0304 51.3524C56.1788 51.922 56.4523 52.3205 56.8534 52.5504C56.5033 52.7088 56.2715 52.9029 56.1602 53.1277C56.1162 53.2171 56.0744 53.3244 56.0397 53.4495C55.7962 54.2644 55.4183 54.8468 54.9013 55.2018C54.3842 55.5569 53.7188 55.705 52.905 55.6514C52.388 55.6182 51.9382 55.5237 51.5557 55.3653C51.4073 55.4598 51.3331 55.5722 51.3331 55.6974C51.3331 55.8225 51.3563 55.9298 51.4003 56.0192C51.4444 56.1086 51.5255 56.1903 51.6438 56.2644C51.8733 56.41 52.3092 56.5531 52.9537 56.6961C53.2459 56.7778 53.5473 56.5939 53.858 56.1393C53.8765 56.3921 53.9275 56.5837 54.0133 56.714C54.0991 56.8468 54.1941 56.9234 54.2961 56.9464C55.5365 57.2427 56.3387 57.7613 56.7027 58.479C56.8279 58.7217 56.8905 59.0257 56.8905 59.3858C56.8905 59.7486 56.7839 60.0883 56.5729 60.4101C56.3619 60.732 56.0767 60.9976 55.7174 61.2071C54.9708 61.6337 54.055 61.8074 52.9653 61.7358C51.6878 61.6516 50.7118 61.3782 50.0348 60.8929C49.4528 60.4689 49.163 59.9504 49.163 59.3322C49.163 58.9184 49.3554 58.5352 49.738 58.1802C49.8609 58.0678 50.0069 57.9707 50.1669 57.889ZM50.823 54.1418C50.9135 54.0728 50.9575 53.9885 50.9575 53.8889C50.9575 53.7612 50.9413 53.636 50.9111 53.5185C50.7906 53.0587 50.728 52.5913 50.728 52.1162C50.728 51.6436 50.7883 51.1838 50.9111 50.7368C50.9436 50.6193 50.9575 50.5273 50.9575 50.4584C50.9575 50.3996 50.9575 50.3409 50.9575 50.2821C50.9575 50.2387 50.939 50.2004 50.9042 50.1697C50.7187 50.4073 50.5866 50.6806 50.5031 50.9922C50.4196 51.3039 50.3524 51.5772 50.3037 51.8173C50.2851 51.8914 50.16 51.9782 49.9258 52.0804C50.1646 52.2183 50.2898 52.3205 50.3037 52.3844C50.3477 52.5938 50.3941 52.8007 50.4382 53.0102C50.5541 53.5364 50.6839 53.9144 50.823 54.1418ZM50.8439 58.3922C50.524 58.5301 50.364 58.8086 50.364 59.2249C50.364 59.5595 50.5958 59.8712 51.0595 60.1649C51.5766 60.497 52.2466 60.686 53.065 60.7396C54.0736 60.8061 54.7274 60.6707 55.0288 60.3156C55.1146 60.2186 55.1563 60.1138 55.1563 59.9989C55.1563 59.8839 55.1053 59.7767 55.0056 59.6796C54.9036 59.5825 54.7738 59.5008 54.6115 59.4344C54.3727 59.3271 53.9971 59.2224 53.4847 59.1227C53.2366 59.0768 52.9306 59.2556 52.5665 59.6592C52.5665 59.3833 52.5248 59.1815 52.4413 59.0538C52.3579 58.9261 52.2767 58.8545 52.1956 58.8392C51.6716 58.737 51.2218 58.5889 50.8439 58.3922ZM50.4776 56.7523C50.4382 56.7957 50.4173 56.857 50.4173 56.9413C50.4359 57.4752 51.1291 57.9018 52.497 58.2543C52.6547 58.3028 52.7659 58.4969 52.8355 58.8367C52.8587 58.7294 52.9468 58.6451 53.1021 58.5838C53.2575 58.5225 53.3618 58.4969 53.4151 58.5046C54.0944 58.64 54.5535 58.76 54.7923 58.8571C55.2143 59.0333 55.5226 59.2709 55.7151 59.5672C55.7684 59.5033 55.7962 59.4165 55.7962 59.3092C55.7962 59.2019 55.7475 59.087 55.6478 58.9669C55.5481 58.8469 55.3882 58.737 55.1633 58.6349C54.7761 58.4509 54.2521 58.29 53.5913 58.1598C52.9306 58.0295 52.4645 57.9273 52.1979 57.8481C51.929 57.7689 51.6832 57.677 51.4583 57.5697C50.9668 57.3372 50.6399 57.0639 50.4776 56.7523ZM52.2466 54.272C52.3463 54.4304 52.4437 54.5326 52.5434 54.5811C52.6431 54.6296 52.759 54.6577 52.8911 54.6654C53.0233 54.6731 53.1392 54.6603 53.2389 54.6245C53.3386 54.5888 53.4221 54.5224 53.4893 54.4253C53.6191 54.2337 53.6841 53.8991 53.6841 53.4214C53.6841 52.7394 53.6841 52.06 53.6841 51.3779C53.6841 50.9003 53.6354 50.5835 53.5357 50.4226C53.436 50.2642 53.3386 50.1595 53.2389 50.111C53.1392 50.0625 53.0233 50.0344 52.8911 50.0267C52.759 50.019 52.6431 50.0318 52.5434 50.0676C52.4437 50.1033 52.3625 50.1672 52.2999 50.2642C52.1655 50.4635 52.0982 50.8007 52.0982 51.2783C52.0982 51.9603 52.0982 52.6398 52.0982 53.3218C52.0982 53.7944 52.1492 54.1137 52.2466 54.272ZM54.3402 54.3614C54.5465 54.2976 54.6671 54.0651 54.6972 53.659C54.7297 53.2784 54.7436 52.8493 54.7436 52.3716C54.7436 51.6334 54.7251 51.1608 54.6903 50.9514C54.637 50.6704 54.5187 50.4839 54.3402 50.3869C54.3402 51.71 54.3402 53.0357 54.3402 54.3614Z" fill="white" stroke="white" stroke-width="0.2"/>
<path d="M58.8675 56.3257C58.7029 55.8736 58.6032 55.493 58.5684 55.1788C58.5313 54.8646 58.5012 54.6628 58.478 54.5709C58.4525 54.4789 58.4108 54.3921 58.3528 54.3078C58.2369 54.1341 58.0236 53.9451 57.7129 53.7458C58.1024 53.5951 58.3528 53.3141 58.4594 52.9029C58.4919 52.7879 58.5151 52.673 58.5336 52.5555C58.6496 51.687 59.0391 50.9922 59.6975 50.4762C60.356 49.9602 61.1257 49.761 62.0044 49.881C62.9179 50.0062 63.7039 50.4226 64.36 51.1225C64.9999 51.807 65.3778 52.6015 65.4937 53.5006C65.5332 53.8173 65.5934 54.0523 65.6746 54.2082C65.8253 54.4943 66.0386 54.7293 66.3098 54.9132C66.0061 55.023 65.809 55.1328 65.7209 55.2427C65.6004 55.3959 65.5239 55.5875 65.4937 55.8174C65.35 56.9541 64.9837 57.7766 64.3948 58.2875C63.8036 58.7984 63.0176 58.9823 62.0322 58.8469C60.975 58.7039 60.1427 58.2645 59.5375 57.5212C59.2524 57.1763 59.0298 56.7779 58.8675 56.3257ZM59.7787 56.4228C59.8413 56.3768 59.8737 56.3181 59.8737 56.2491C59.8737 56.1418 59.8529 56.0013 59.8134 55.8276C59.6303 55.0332 59.5375 54.4866 59.5375 54.1826C59.5375 53.8812 59.5468 53.6462 59.5654 53.4776C59.5839 53.309 59.6048 53.143 59.6326 52.9718C59.6906 52.6449 59.7508 52.3562 59.8134 52.1085C59.8529 51.945 59.8737 51.8351 59.8737 51.7764C59.8737 51.6589 59.8413 51.5695 59.7787 51.5082C59.5909 51.733 59.4471 52.0446 59.3474 52.4456C59.2477 52.8467 59.1689 53.2017 59.104 53.5108C59.0808 53.6411 58.9486 53.7535 58.7075 53.8505C58.951 54.0013 59.0831 54.1392 59.104 54.2644C59.2709 55.115 59.4077 55.659 59.5144 55.8966C59.6233 56.1367 59.7114 56.313 59.7787 56.4228ZM62.0183 50.9232C61.2579 50.821 60.8753 51.3881 60.8753 52.6168C60.8753 53.7075 60.8753 54.7957 60.8753 55.8864C60.8753 57.0665 61.2532 57.7051 62.0114 57.8073C62.7765 57.912 63.159 57.3781 63.159 56.198C63.159 55.1073 63.159 54.0191 63.159 52.9284C63.159 51.6998 62.7788 51.028 62.0183 50.9232ZM63.8036 56.9643C64.0261 56.9056 64.149 56.6016 64.1722 56.055C64.2 55.5083 64.2116 55.0996 64.2116 54.8314C64.2116 54.5632 64.2093 54.3384 64.2093 54.1596C64.207 53.9808 64.2047 53.7943 64.2 53.6002C64.1815 52.8799 64.1305 52.4533 64.0447 52.323C63.9589 52.1928 63.8801 52.1008 63.8036 52.0497C63.8036 53.6896 63.8036 55.327 63.8036 56.9643Z" fill="white" stroke="white" stroke-width="0.2"/>
<path d="M72.305 59.7871C71.9016 60.2903 71.2941 60.4538 70.485 60.2877C69.4973 60.0859 68.7554 59.6185 68.2616 58.8726C68.0483 58.5533 67.8999 58.2136 67.8211 57.8534C67.777 57.6388 67.6982 57.4651 67.5869 57.3349C67.4756 57.2046 67.3365 57.0794 67.1719 56.9619C67.4941 56.8572 67.7237 56.5941 67.8605 56.1701C68.0065 55.7256 68.2523 55.4267 68.5954 55.2811C68.9641 55.1304 69.3721 55.0921 69.8173 55.1662C70.2624 55.2428 70.5916 55.2939 70.8049 55.3195C71.0182 55.345 71.206 55.3527 71.3707 55.3425C71.6767 55.3297 71.9178 55.2352 72.0894 55.0615C72.0894 54.6936 72.0894 54.3233 72.0894 53.9554C72.0894 53.4675 71.999 53.092 71.8204 52.8264C71.6396 52.5607 71.3683 52.3896 70.9997 52.313C70.6334 52.2363 70.3621 52.2568 70.1859 52.3717C70.0097 52.4867 69.9216 52.6706 69.9216 52.9209C69.9216 53.3041 70.1001 53.5263 70.4549 53.5901C70.383 53.9605 70.1975 54.1138 69.8938 54.0525C69.8057 54.0346 69.7176 54.0014 69.6341 53.9503C69.6341 53.958 69.6341 53.9656 69.6341 53.9733C69.6341 54.101 69.6874 54.193 69.7941 54.2492C69.6828 54.4152 69.495 54.4688 69.233 54.4127C68.971 54.3565 68.7647 54.1623 68.6186 53.8303C68.5514 53.8379 68.4749 53.8328 68.3868 53.8175C68.301 53.8022 68.2036 53.7511 68.0993 53.6693C67.9949 53.585 67.9115 53.4829 67.8489 53.3577C68.0715 53.2504 68.2082 53.0486 68.2569 52.7472C68.3103 52.3794 68.5838 52.0448 69.08 51.751C69.6758 51.3985 70.4386 51.3168 71.3614 51.5109C72.8939 51.8353 73.8259 52.5786 74.1644 53.7C74.2757 54.0755 74.3314 54.5021 74.3314 54.9797C74.3314 55.179 74.3314 55.3782 74.3314 55.5774C74.3314 55.8176 74.3847 56.027 74.4937 56.2058C74.6026 56.3846 74.7881 56.5532 75.0478 56.7141C74.7696 56.7908 74.5887 56.8751 74.5099 56.9696C74.3893 57.1126 74.3314 57.2965 74.3314 57.5162C74.3314 58.2544 74.3314 58.9927 74.3314 59.7309C74.4589 60.1293 74.6444 60.3567 74.8832 60.4154C75.0339 60.4512 75.1567 60.441 75.2541 60.3797C75.3167 60.487 75.3469 60.6121 75.3469 60.7526C75.3469 60.8931 75.2843 61.0106 75.1567 61.1077C75.0315 61.2047 74.8414 61.2226 74.5887 61.1639C74.336 61.1051 74.1018 60.9697 73.8839 60.7628C73.6938 60.8752 73.5245 60.9161 73.3761 60.8829C73.2278 60.8497 73.0979 60.8037 72.9913 60.7475C72.8823 60.6913 72.7826 60.6172 72.6876 60.5278C72.4812 60.3209 72.3537 60.0783 72.305 59.7871ZM69.2632 59.0412C69.3072 59.0156 69.3304 58.9748 69.3304 58.9211C69.3304 58.847 69.2979 58.7372 69.2376 58.5942C69.0151 58.0986 68.9038 57.7052 68.9038 57.4166C68.9038 57.1254 68.9131 56.9185 68.9339 56.7959C68.9548 56.6707 68.9803 56.5685 69.0151 56.4817C69.0475 56.3974 69.0869 56.3233 69.1287 56.2646C69.1704 56.2033 69.2075 56.1496 69.24 56.1011C69.2979 55.9989 69.3258 55.9274 69.3258 55.8865C69.3258 55.8457 69.3049 55.8048 69.2655 55.769C69.0823 55.8278 68.9502 55.9121 68.8644 56.0245C68.7137 56.2212 68.6024 56.4945 68.5305 56.8393C68.512 56.9389 68.3566 57.036 68.0622 57.128C68.3473 57.3221 68.5027 57.4779 68.5305 57.5903C68.6789 58.2008 68.9247 58.6836 69.2632 59.0412ZM70.2647 57.5775C70.2647 57.7844 70.2856 57.9888 70.325 58.1957C70.3644 58.4 70.4247 58.584 70.5059 58.75C70.6844 59.0974 70.9348 59.3017 71.2594 59.3707C71.5028 59.4218 71.7068 59.3554 71.8668 59.1689C72.0175 58.985 72.094 58.7244 72.094 58.3847C72.094 57.5826 72.094 56.7806 72.094 55.9785C71.8089 56.0985 71.4449 56.1471 71.002 56.1215C70.5082 56.1037 70.2647 56.589 70.2647 57.5775ZM72.7247 58.6248C72.982 58.5686 73.1165 58.0552 73.1304 57.0845C73.1304 56.8776 73.1304 56.6426 73.1304 56.377C73.1304 56.1113 73.1304 55.884 73.1281 55.6924C73.1258 55.5034 73.1234 55.322 73.1188 55.1483C73.1002 54.525 73.0492 54.1419 72.9658 54.004C72.8823 53.8635 72.8012 53.7664 72.727 53.7102C72.7246 55.3476 72.7247 56.9875 72.7247 58.6248Z" fill="white" stroke="white" stroke-width="0.2"/>
<path d="M80.8424 61.5745C80.9259 61.503 80.9908 61.3982 81.0395 61.2628C81.0882 61.1275 81.1114 60.9768 81.1114 60.8107C81.1114 60.6473 81.1021 60.4914 81.0859 60.3484C81.116 60.2845 81.1995 60.2513 81.3363 60.2488C81.473 60.2462 81.5612 60.2539 81.6052 60.2667C81.7721 60.3152 81.9066 60.425 82.0063 60.5962C82.106 60.7673 82.157 60.9768 82.157 61.2245C82.157 61.4723 82.0921 61.6971 81.9623 61.9014C81.8324 62.1032 81.6608 62.2667 81.4452 62.3893C80.9676 62.6652 80.4089 62.7137 79.7713 62.5349C78.5564 62.1952 77.7495 61.4697 77.3531 60.3382C77.207 59.9218 77.1351 59.4288 77.1351 58.8567C77.1351 58.5578 77.1351 58.2564 77.1351 57.9575C77.1351 57.7276 76.9079 57.4237 76.4535 57.0533C76.9079 56.8771 77.1351 56.5475 77.1351 56.0546C77.1351 55.7634 77.1351 55.4747 77.1351 55.1835C77.1351 54.6241 76.9288 54.2895 76.5184 54.1848C76.3677 54.1465 76.2448 54.1567 76.1474 54.2154C76.0848 54.1056 76.0547 54.0009 76.0547 53.9013C76.0547 53.8016 76.0709 53.6944 76.1034 53.582C76.1358 53.4696 76.1961 53.3751 76.2796 53.2984C76.4929 53.0966 76.8198 53.0915 77.2673 53.2857C77.2673 53.2065 77.2673 53.1273 77.2673 53.0507C77.2673 52.5347 77.3832 52.1107 77.6174 51.7786C77.8237 51.4797 78.0092 51.352 78.1692 51.3929C78.3291 51.4363 78.4544 51.5308 78.5425 51.679C78.6166 51.3112 78.7163 51.0583 78.8392 50.9178C78.9621 50.7799 79.1383 50.7415 79.3678 50.8054C79.3678 51.8322 79.3678 52.8565 79.3678 53.8808C80.0819 54.0801 80.7984 54.2844 81.5101 54.4939C81.5449 54.5833 81.5635 54.7186 81.5635 54.9051C81.5635 55.089 81.5009 55.2193 81.3734 55.2908C81.2458 55.3649 81.0928 55.3751 80.912 55.3215C80.3973 55.1733 79.8826 55.0252 79.3678 54.8821C79.3678 56.5475 79.3678 58.213 79.3678 59.8758C79.3678 60.7315 79.5417 61.2807 79.8895 61.5259C79.9915 61.5949 80.1005 61.6434 80.2164 61.6766C80.3323 61.7099 80.4459 61.7175 80.5526 61.7022C80.6639 61.692 80.7589 61.646 80.8424 61.5745ZM77.7704 59.8503C77.9767 59.7583 78.095 59.4825 78.1205 59.0201C78.139 58.6906 78.1483 58.4326 78.1506 58.2462C78.1529 58.0597 78.1553 57.909 78.1576 57.7941C78.1599 57.6791 78.1599 57.5897 78.1599 57.5259C78.1599 57.4262 78.1599 57.3292 78.1599 57.2296C78.1599 57.0865 78.1599 56.9026 78.1576 56.6778C78.1553 56.453 78.1529 56.2104 78.1506 55.9447C78.1483 55.6816 78.1437 55.4288 78.1344 55.1835C78.1205 54.5986 78.1019 54.241 78.0741 54.1056C78.0208 53.8067 77.9188 53.582 77.7704 53.4338C77.7704 54.2001 77.7704 54.969 77.7704 55.7353C77.7704 56.4198 77.7611 56.7774 77.7403 56.8132C77.7194 56.8464 77.7031 56.8898 77.6916 56.9409C77.6521 57.0788 77.5014 57.1606 77.2418 57.1912C77.5061 57.3624 77.6568 57.5284 77.6916 57.6842C77.7449 57.9345 77.7704 58.4939 77.7704 59.365C77.7704 59.531 77.7704 59.6894 77.7704 59.8503Z" fill="white" stroke="white" stroke-width="0.2"/>
<path d="M48.9357 28.1842C48.3607 31.0043 49.3507 33.3544 48.472 37.3547C48.4117 37.6331 48.7479 37.794 48.887 37.5514C49.4388 36.5934 50.0926 35.375 50.3152 34.6316C50.6746 33.4336 51.4559 27.9977 51.6414 26.6924C51.6739 26.4701 51.813 26.299 51.9822 26.2964C51.9845 26.2964 51.9845 26.2964 51.9868 26.2964C51.9892 26.299 49.5826 25.0039 48.9357 28.1842ZM50.5378 26.6643C50.6166 26.6643 50.6792 26.7486 50.6792 26.8533C50.6792 26.958 50.6166 27.0423 50.5378 27.0423C50.459 27.0423 50.3964 26.958 50.3964 26.8533C50.3964 26.7486 50.4613 26.6643 50.5378 26.6643ZM49.4179 27.8674C49.4179 27.8674 50.9041 28.7002 51.078 26.8533C51.0803 26.8533 51.1962 28.9607 49.4179 27.8674Z" fill="white" stroke="white" stroke-width="0.2"/>
<path d="M49.0117 27.4512C49.0117 27.4512 49.9206 23.1803 51.8287 25.0169C51.8264 25.0143 49.9832 24.2046 49.0117 27.4512Z" fill="white" stroke="white" stroke-width="0.2"/>
<path d="M43.2817 35.9083C43.2817 35.9083 42.8922 36.4116 44.7215 37.5891C44.7215 37.5891 44.8513 37.9621 44.8722 38.3835C44.8931 37.9646 45.0229 37.5891 45.0229 37.5891C46.8522 36.409 46.4627 35.9083 46.4627 35.9083C46.8823 35.4588 47.4225 34.7282 47.0168 34.0717C46.6111 33.4127 45.5028 35.7193 45.2918 35.6325C45.0809 35.5456 44.8722 35.5456 44.8722 35.5456C44.8722 35.5456 44.6612 35.5456 44.4525 35.6325C44.2416 35.7193 43.1333 33.4127 42.7276 34.0717C42.3219 34.7282 42.8621 35.4562 43.2817 35.9083ZM46.567 35.0679C46.7316 35.2161 46.2981 35.2927 45.2385 36.6185C45.2408 36.6185 46.4024 34.9198 46.567 35.0679Z" fill="white" stroke="white" stroke-width="0.2"/>
<path d="M48.1392 34.2397C48.276 35.5961 48.3594 39.2336 44.8724 38.5311C41.3854 39.2362 41.4689 35.5961 41.6057 34.2397C41.1141 38.4903 43.0153 38.9526 43.6343 38.9935C43.748 39.0012 43.8592 39.0344 43.9636 39.0906C44.3229 39.2924 44.6406 39.3613 44.8724 39.3613C45.1043 39.3613 45.4219 39.2924 45.7813 39.0906C45.8833 39.0318 45.9946 39.0012 46.1082 38.9935C46.7295 38.9526 48.6307 38.4903 48.1392 34.2397Z" fill="white" stroke="white" stroke-width="0.2"/>
<path d="M38.3457 26.0237C38.3457 26.0237 38.6912 25.9956 38.7398 26.1387C38.7398 26.1387 39.1827 29.0099 40.3396 27.1043C40.3396 27.1043 41.274 26.905 42.7021 30.4302C42.6998 30.4302 40.6572 24.4604 38.3457 26.0237ZM39.7275 26.2255C39.7878 26.2255 39.8342 26.2817 39.8342 26.3507C39.8342 26.4197 39.7855 26.4759 39.7275 26.4759C39.6672 26.4759 39.6209 26.4197 39.6209 26.3507C39.6186 26.2817 39.6672 26.2255 39.7275 26.2255ZM38.9671 26.4529C38.9462 26.3916 38.9369 26.3507 38.9369 26.3507C38.9462 26.3865 38.9555 26.4197 38.9671 26.4529C39.0737 26.7849 39.4586 27.7556 40.0683 26.8335C40.0683 26.8335 39.4771 28.1439 38.9671 26.4529Z" fill="white"/>
<path d="M38.9671 26.4529C38.9462 26.3916 38.9369 26.3507 38.9369 26.3507C38.9462 26.3865 38.9555 26.4197 38.9671 26.4529ZM38.9671 26.4529C39.0737 26.7849 39.4586 27.7556 40.0683 26.8335C40.0683 26.8335 39.4771 28.1439 38.9671 26.4529ZM38.3457 26.0237C38.3457 26.0237 38.6912 25.9956 38.7398 26.1387C38.7398 26.1387 39.1827 29.0099 40.3396 27.1043C40.3396 27.1043 41.274 26.905 42.7021 30.4302C42.6998 30.4302 40.6572 24.4604 38.3457 26.0237ZM39.7275 26.2255C39.7878 26.2255 39.8342 26.2817 39.8342 26.3507C39.8342 26.4197 39.7855 26.4759 39.7275 26.4759C39.6672 26.4759 39.6209 26.4197 39.6209 26.3507C39.6186 26.2817 39.6672 26.2255 39.7275 26.2255Z" stroke="white" stroke-width="0.2"/>
<path d="M38.9678 26.4531C38.9585 26.4198 38.9468 26.3865 38.9375 26.3506C38.9375 26.3506 38.9468 26.3916 38.9678 26.4531Z" fill="white" stroke="white" stroke-width="0.2"/>
<path d="M38.9688 26.4531C39.4788 28.1442 40.07 26.8337 40.07 26.8337C39.458 27.7559 39.0754 26.7852 38.9688 26.4531Z" fill="white" stroke="white" stroke-width="0.2"/>
<path d="M37.8566 26.5161C37.8566 26.5161 37.7105 28.6439 38.5985 29.474C39.4865 30.3068 39.665 32.8381 39.665 32.8381C39.665 32.8381 39.5746 30.0999 39.0947 29.6145C38.6171 29.1292 37.896 27.755 37.8566 26.5161Z" fill="white" stroke="white" stroke-width="0.2"/>
<path d="M39.9371 32.8384C39.9371 32.8384 39.6079 36.9635 41.4372 37.104C41.4372 37.104 40.1481 35.9597 39.9371 32.8384Z" fill="white" stroke="white" stroke-width="0.2"/>
<path d="M41.7093 37.9722C41.707 37.9624 41.707 37.9551 41.707 37.9551C41.7093 37.96 41.7093 37.9648 41.7093 37.9722Z" fill="white" stroke="white" stroke-width="0.2"/>
<path d="M44.8714 41.1652C47.3638 41.1652 47.9852 38.2456 48.0338 37.9697C47.3893 42.1563 44.8714 41.6965 44.8714 41.6965C44.8714 41.6965 42.3535 42.1563 41.709 37.9697C41.7577 38.2456 42.3814 41.1652 44.8714 41.1652Z" fill="white" stroke="white" stroke-width="0.2"/>
<path d="M48.0332 37.9719C48.0332 37.9645 48.0355 37.9595 48.0355 37.9546C48.0355 37.9521 48.0355 37.9595 48.0332 37.9719Z" fill="white" stroke="white" stroke-width="0.2"/>
<path d="M45.8244 18.7996C46.7587 18.8379 47.3546 18.4982 47.6792 18.2274C47.8229 18.1074 48.0293 18.1712 48.1058 18.35C48.4489 19.1547 49.221 19.1112 49.6684 19.0039C49.8423 18.9631 50.0069 19.0934 50.0278 19.2875C50.0695 19.6706 50.1947 20.299 50.5796 20.9963C50.9135 21.5991 52.0959 22.3348 52.0959 22.3348C52.0959 22.3348 50.9575 21.6425 50.0139 21.9695C49.6244 22.1023 49.1653 22.4216 48.6692 23.3079C47.9667 24.5672 47.503 27.2032 47.2247 29.3872C47.1737 29.7805 46.6544 29.755 46.6335 29.3591C46.5501 27.6528 46.5037 25.5557 46.6011 23.5353C46.7054 21.3718 46.084 20.0435 45.5809 19.3335C45.4233 19.1112 45.5693 18.7894 45.8244 18.7996Z" fill="white" stroke="white" stroke-width="0.2"/>
<path d="M55.4577 26.9637C57.4191 27.237 59.7098 24.979 57.9245 24.6903C57.4979 24.6213 56.9624 25.3672 55.1377 24.1054C52.8053 22.4885 52.7705 22.9125 52.7705 22.9125C52.7705 22.9125 52.6987 22.8052 54.0272 23.758C55.4554 24.7823 55.9886 25.426 56.6332 25.4668C56.6332 25.4668 55.453 28.0569 52.1816 24.6392C52.1816 24.6392 52.7914 26.5907 55.4577 26.9637Z" fill="white" stroke="white" stroke-width="0.2"/>
<path d="M50.0793 18.47C55.9845 12.9376 58.4769 18.3678 58.4769 18.3678C56.2233 10.598 50.9163 14.7434 48.6071 17.0064C48.1387 17.4636 48.2361 18.2963 48.7972 18.6053L48.8551 18.6386C49.2562 18.8582 49.7362 18.7918 50.0793 18.47Z" fill="white" stroke="white" stroke-width="0.2"/>
<path d="M44.2331 41.5745C44.2331 41.5745 43.2709 43.0791 41.3164 43.7969C41.3164 43.7969 45.3831 42.0777 45.5199 41.5029" fill="white"/>
<path d="M44.2331 41.5745C44.2331 41.5745 43.2709 43.0791 41.3164 43.7969C41.3164 43.7969 45.3831 42.0777 45.5199 41.5029" stroke="white" stroke-width="0.2"/>
<path d="M44.8962 41.7891C44.8962 41.7891 44.3791 43.1456 42.9648 44.0703C42.9648 44.0703 45.8723 41.9628 45.8885 41.4902" fill="white"/>
<path d="M44.8962 41.7891C44.8962 41.7891 44.3791 43.1456 42.9648 44.0703C42.9648 44.0703 45.8723 41.9628 45.8885 41.4902" stroke="white" stroke-width="0.2"/>
<path d="M45.6778 41.5585C45.6778 41.5585 45.3833 42.994 44.1406 44.1792C44.1406 44.1792 46.6678 41.5432 46.6098 41.0732" fill="white"/>
<path d="M45.6778 41.5585C45.6778 41.5585 45.3833 42.994 44.1406 44.1792C44.1406 44.1792 46.6678 41.5432 46.6098 41.0732" stroke="white" stroke-width="0.2"/>
<path d="M37.1586 22.9504C37.1447 22.9172 36.8248 22.1458 37.1285 21.6477C37.2792 21.3974 37.5551 21.2672 37.9446 21.2569C37.838 20.9657 37.6617 20.3476 37.9214 20.0079C38.1069 19.7678 38.4616 19.7218 38.9763 19.87C38.9995 19.6503 39.083 19.2288 39.389 19.0398C39.6649 18.8712 40.0405 18.9376 40.5089 19.239C40.6062 19.0219 40.8543 18.5724 41.2856 18.4498C41.6171 18.3553 41.9788 18.4727 42.3637 18.7997C42.4657 18.4702 42.7509 17.7346 43.2609 17.6298C43.6388 17.5532 44.0469 17.8393 44.4712 18.483L44.3135 18.6107C43.9379 18.0385 43.5948 17.7805 43.2957 17.8418C42.8598 17.9312 42.5793 18.7154 42.5074 19.0117C42.4981 19.0475 42.475 19.0756 42.4425 19.0858C42.41 19.096 42.3753 19.0883 42.3498 19.0653C41.9742 18.7103 41.6333 18.5749 41.3343 18.6592C40.8682 18.792 40.6457 19.4255 40.6433 19.4332C40.6341 19.4638 40.6109 19.4868 40.5831 19.497C40.5552 19.5072 40.5251 19.5047 40.4996 19.4868C40.0568 19.1828 39.7043 19.0934 39.4818 19.2288C39.1665 19.4204 39.1618 20.0053 39.1618 20.0104C39.1618 20.0436 39.1479 20.0768 39.1224 20.0973C39.0969 20.1177 39.0644 20.1228 39.0366 20.1152C38.5451 19.9517 38.2112 19.9645 38.0698 20.1484C37.8542 20.4293 38.0768 21.0884 38.1811 21.3208C38.1973 21.354 38.195 21.3949 38.1765 21.4281C38.1579 21.4613 38.1254 21.4766 38.0907 21.4766C37.6896 21.4562 37.4206 21.5532 37.2908 21.7678C37.0497 22.1637 37.3325 22.8508 37.3372 22.8585L37.1586 22.9504Z" fill="white" stroke="white" stroke-width="0.2"/>
<path d="M44.5759 16.8171C44.242 16.0227 43.5766 15.379 42.7906 15.1899C42.0603 15.0162 41.1816 15.3483 41.0378 16.2475C41.1097 16.2143 41.1816 16.1836 41.2535 16.1504C40.6066 15.7775 39.7534 15.3585 39.0787 15.9026C38.4319 16.4237 38.4017 17.3663 38.4597 18.1658C38.5339 18.1198 38.6081 18.0739 38.6799 18.0253C38.1606 17.7239 37.4952 17.4736 37.0663 18.0764C36.6744 18.6307 36.5284 19.4354 36.5052 20.1225C36.5794 20.0765 36.6536 20.0305 36.7254 19.982C36.3661 19.6908 35.9534 19.4711 35.5152 19.3741C35.0561 19.2719 34.7594 19.4303 34.4533 19.8032C33.9062 20.4699 33.3891 21.3691 33.6604 22.2989C33.7183 22.4955 34.0012 22.4112 33.9432 22.212C33.7137 21.4278 34.1519 20.6691 34.6063 20.097C34.7153 19.959 34.8336 19.793 34.9843 19.7112C35.1721 19.6065 35.4016 19.6729 35.5963 19.7291C35.9557 19.8364 36.2803 20.0203 36.5794 20.263C36.6744 20.3396 36.7973 20.2349 36.7996 20.1225C36.8182 19.558 36.9341 18.9883 37.1775 18.4877C37.3004 18.2322 37.4766 18.0177 37.7595 18.0202C38.0331 18.0202 38.2951 18.1684 38.5339 18.3063C38.6243 18.36 38.7634 18.2961 38.7541 18.1658C38.7054 17.4915 38.6869 16.6638 39.2155 16.1964C39.7812 15.6957 40.5579 16.1172 41.1051 16.4314C41.1816 16.4748 41.3045 16.4416 41.3207 16.3343C41.4575 15.4862 42.3269 15.3381 42.9576 15.5782C43.5696 15.8107 44.0542 16.3394 44.3231 16.9806C44.402 17.1696 44.6547 17.0061 44.5759 16.8171Z" fill="white" stroke="white" stroke-width="0.2"/>
<path d="M34.4255 27.5379C33.6604 28.0999 33.5514 29.2238 33.774 30.1358C33.9084 30.685 34.1496 31.2035 34.4695 31.6506C34.7848 32.0899 35.1952 32.4986 35.7377 32.4118C35.6775 32.3454 35.6172 32.2789 35.5569 32.2125C35.2184 33.316 35.2253 34.8257 35.9186 35.776C36.1991 36.1591 36.693 36.412 37.1288 36.2C37.5021 36.0186 37.6737 35.5359 37.5044 35.1297C37.4441 34.9866 37.2772 35.0556 37.2355 35.168C36.9665 35.8833 36.8738 36.8182 37.2355 37.5155C37.5346 38.0928 38.2162 38.3611 38.717 37.9268C38.6359 37.9038 38.5524 37.8783 38.4712 37.8553C38.5941 38.2895 38.7495 38.7621 39.1529 38.9639C39.3152 39.0457 39.4937 39.0686 39.6653 39.0099C39.8902 38.9307 40.0455 38.7212 40.2611 38.6267C40.435 38.5501 40.3585 38.2385 40.1823 38.3151C39.8994 38.4403 39.6421 38.8158 39.3152 38.688C38.9697 38.5552 38.8515 38.1184 38.7518 37.771C38.717 37.6458 38.5918 37.6254 38.506 37.6995C38.0145 38.1261 37.4812 37.5079 37.3584 37.0047C37.2169 36.4274 37.3097 35.8015 37.516 35.2574C37.4256 35.2702 37.3375 35.283 37.2471 35.2957C37.4465 35.7734 36.8947 36.0365 36.5562 35.9088C36.1736 35.7632 35.9649 35.3341 35.8397 34.9407C35.5638 34.0849 35.5731 33.1577 35.8374 32.3019C35.8768 32.1717 35.7586 32.0874 35.6566 32.1027C35.1697 32.1819 34.7709 31.5995 34.5321 31.2086C34.3026 30.8306 34.131 30.4116 34.0313 29.9697C33.8667 29.2289 33.9432 28.2812 34.5669 27.8214C34.7315 27.7014 34.5831 27.4204 34.4255 27.5379Z" fill="white" stroke="white" stroke-width="0.2"/>
<path d="M44.8214 20.368C44.6336 19.9337 44.2696 19.5863 43.8314 19.5046C43.4511 19.4331 43.0547 19.6298 42.9689 20.0691C43.006 20.0538 43.0408 20.0359 43.0779 20.0206C42.7347 19.8239 42.2896 19.6042 41.9348 19.8954C41.601 20.1687 41.5871 20.6591 41.6172 21.0755C41.6543 21.0525 41.6914 21.0295 41.7285 21.0065C41.4665 20.8558 41.1373 20.7205 40.9054 21.004C40.6782 21.285 40.6063 21.7422 40.5924 22.1023C40.6295 22.0793 40.6666 22.0563 40.7037 22.0334C40.3838 21.7779 39.8899 21.5174 39.563 21.8801C39.2431 22.2351 38.9625 22.7307 39.097 23.2441C39.1225 23.3437 39.2662 23.3003 39.2384 23.2007C39.1225 22.7639 39.359 22.3629 39.6163 22.0512C39.7717 21.8622 39.9525 21.8367 40.1728 21.9133C40.3374 21.9721 40.4858 22.0615 40.6249 22.1738C40.6736 22.2122 40.7338 22.1585 40.7362 22.1049C40.7478 21.8214 40.8011 21.5404 40.917 21.2849C41.0863 20.9146 41.3668 20.9861 41.652 21.147C41.6983 21.1726 41.7679 21.1419 41.7633 21.078C41.7378 20.7256 41.7262 20.3092 41.9928 20.0563C42.2919 19.7728 42.7046 19.9925 43.0037 20.1636C43.0431 20.1866 43.101 20.1687 43.1126 20.1151C43.2077 19.6221 43.7154 19.5812 44.0679 19.7549C44.3507 19.8954 44.564 20.1483 44.6962 20.4522C44.7356 20.5442 44.8608 20.4625 44.8214 20.368Z" fill="white" stroke="white" stroke-width="0.2"/>
<path d="M36.861 23.4284C35.6322 23.7682 34.4196 23.8065 33.1607 23.7682C32.2309 23.7401 30.8723 23.7069 30.2394 24.6213C29.6412 25.4846 30.3089 26.5804 31.1297 26.8486C32.1498 27.1832 33.3021 26.7004 34.2109 26.2023C34.7674 25.8958 35.2983 25.5357 35.8316 25.1832C36.082 25.0172 36.439 24.6877 36.7474 24.7515C37.0441 24.8128 37.2088 25.1832 37.3247 25.4514C37.4058 25.6378 37.6609 25.4744 37.5774 25.2879C37.4128 24.9099 37.1717 24.4859 36.759 24.4271C36.3092 24.3658 35.8594 24.7847 35.5 25.0248C34.6004 25.6225 33.6823 26.2381 32.6483 26.5088C32.1197 26.6468 31.5215 26.7132 31.0137 26.4603C30.5779 26.2432 30.2092 25.7017 30.3228 25.1551C30.4364 24.6162 30.9743 24.3607 31.4125 24.2381C31.9829 24.0747 32.5741 24.0772 33.1583 24.0951C34.4428 24.1334 35.6832 24.09 36.9375 23.7452C37.123 23.6915 37.0465 23.3774 36.861 23.4284Z" fill="white" stroke="white" stroke-width="0.2"/>
</svg>
