<svg width="215" height="61" viewBox="0 0 215 61" fill="none" xmlns="http://www.w3.org/2000/svg">
<g clip-path="url(#clip0_163_87)">
<path d="M22.0716 60.9998C21.4881 61.0074 20.9166 60.8345 20.435 60.5046L1.20149 46.8973C0.82911 46.6336 0.525553 46.284 0.31644 45.8781C0.107327 45.4722 -0.00120328 45.0218 1.00628e-05 44.5651V16.4245C-2.87675e-05 15.9694 0.109082 15.5209 0.318162 15.1167C0.527243 14.7126 0.830179 14.3647 1.20149 14.1022L20.435 0.519683C20.9138 0.18122 21.4855 -0.000488281 22.0716 -0.000488281C22.6576 -0.000488281 23.2293 0.18122 23.7082 0.519683L42.9417 14.1022C43.313 14.3647 43.6159 14.7126 43.825 15.1167C44.0341 15.5209 44.1432 15.9694 44.1431 16.4245V44.5651C44.1428 45.0201 44.0335 45.4685 43.8244 45.8726C43.6154 46.2766 43.3127 46.6246 42.9417 46.8874L23.7329 60.4798C23.2473 60.8234 22.6661 61.0053 22.0716 60.9998ZM22.0716 0.405794C21.5697 0.406542 21.0799 0.560254 20.6674 0.846495L1.43387 14.429C1.11955 14.6554 0.862725 14.9526 0.684094 15.2967C0.505463 15.6407 0.410017 16.022 0.405447 16.4097V44.5651C0.407237 44.9533 0.501475 45.3356 0.680337 45.68C0.859198 46.0245 1.11752 46.3213 1.43387 46.5457L20.6674 60.1283C21.0783 60.4183 21.5688 60.574 22.0716 60.574C22.5743 60.574 23.0648 60.4183 23.4758 60.1283L42.7093 46.5457C43.0256 46.3213 43.284 46.0245 43.4628 45.68C43.6417 45.3356 43.7359 44.9533 43.7377 44.5651V16.4245C43.7331 16.0368 43.6377 15.6556 43.4591 15.3115C43.2804 14.9675 43.0236 14.6703 42.7093 14.4439L23.4758 0.846495C23.0632 0.560254 22.5735 0.406542 22.0716 0.405794V0.405794Z" fill="#353A4C"/>
<path d="M22.0714 58.0982C21.4879 58.1059 20.9164 57.9329 20.4348 57.603L3.25813 45.4466C2.88622 45.1847 2.58284 44.8369 2.37369 44.4327C2.16454 44.0284 2.05579 43.5796 2.05665 43.1243V17.8706C2.05537 17.4152 2.16395 16.9663 2.37313 16.5619C2.58231 16.1576 2.88592 15.8098 3.25813 15.5483L20.4348 3.42154C20.9136 3.08308 21.4853 2.90137 22.0714 2.90137C22.6574 2.90137 23.2291 3.08308 23.7079 3.42154L40.8846 15.5532C41.2574 15.8145 41.5618 16.1621 41.7718 16.5664C41.9818 16.9707 42.0913 17.4198 42.091 17.8756V43.1292C42.0909 43.5849 41.9812 44.0338 41.7712 44.4381C41.5612 44.8423 41.2571 45.1899 40.8846 45.4516L23.7327 57.5783C23.2471 57.9219 22.6659 58.1038 22.0714 58.0982V58.0982ZM22.0714 3.30765C21.5695 3.3084 21.0797 3.46211 20.6672 3.74835L3.49051 15.88C3.17425 16.1073 2.9168 16.407 2.73963 16.7541C2.56245 17.1012 2.47069 17.4857 2.47198 17.8756V43.1292C2.47351 43.5181 2.56816 43.9009 2.74796 44.2455C2.92777 44.5902 3.1875 44.8866 3.50535 45.1099L20.682 57.2416C21.093 57.5316 21.5834 57.6873 22.0862 57.6873C22.589 57.6873 23.0794 57.5316 23.4904 57.2416L40.6671 45.1099C40.9849 44.8866 41.2446 44.5902 41.4244 44.2455C41.6042 43.9009 41.6989 43.5181 41.7004 43.1292V17.8756C41.6977 17.4869 41.6025 17.1046 41.4228 16.7601C41.2431 16.4157 40.984 16.1191 40.6671 15.8949L23.4756 3.74835C23.063 3.46211 22.5732 3.3084 22.0714 3.30765V3.30765Z" fill="#353A4C"/>
<path d="M13.9979 46.843V47.0411H13.3008V46.843H13.9979Z" fill="#353A4C"/>
<path d="M16.2661 46.8085H15.5294V47.4918H16.3501V47.6998H15.2871V45.7983H16.3155V46.0063H15.5294V46.6055H16.2661V46.8085Z" fill="#353A4C"/>
<path d="M16.8355 47.3977C16.9678 47.4799 17.1199 47.5244 17.2756 47.5264C17.5228 47.5264 17.6711 47.3927 17.6711 47.1996C17.6711 47.0065 17.5673 46.9223 17.3151 46.8233C17.063 46.7242 16.8207 46.5509 16.8207 46.2835C16.8267 46.21 16.8477 46.1385 16.8821 46.0733C16.9166 46.0082 16.964 45.9507 17.0213 45.9044C17.0786 45.8581 17.1447 45.8239 17.2156 45.804C17.2866 45.784 17.3608 45.7787 17.4338 45.7884C17.5797 45.7824 17.7246 45.8148 17.8541 45.8824L17.7997 46.0508C17.6884 45.9921 17.5645 45.9615 17.4387 45.9617C17.1767 45.9617 17.0778 46.1152 17.0778 46.2439C17.0778 46.3727 17.1965 46.5113 17.4585 46.6103C17.7206 46.7094 17.9529 46.8926 17.9529 47.1699C17.9529 47.4472 17.7354 47.7195 17.2855 47.7195C17.1127 47.7222 16.9422 47.6796 16.791 47.5957L16.8355 47.3977Z" fill="#353A4C"/>
<path d="M18.8138 46.0063H18.2402V45.7983H19.6444V46.0063H19.061V47.6998H18.8138V46.0063Z" fill="#353A4C"/>
<path d="M20.0488 45.823C20.2224 45.7981 20.3975 45.7848 20.5729 45.7834C20.8492 45.7624 21.1232 45.8474 21.3393 46.0211C21.4305 46.1089 21.5015 46.2155 21.5476 46.3334C21.5937 46.4514 21.6137 46.578 21.6063 46.7044C21.6137 46.8395 21.5934 46.9746 21.5466 47.1015C21.4998 47.2284 21.4276 47.3444 21.3344 47.4422C21.1006 47.6398 20.7988 47.7376 20.4938 47.7146C20.3456 47.7231 20.197 47.7231 20.0488 47.7146V45.823ZM20.296 47.5066C20.3783 47.5124 20.461 47.5124 20.5433 47.5066C20.6517 47.5191 20.7616 47.5071 20.8647 47.4713C20.9678 47.4355 21.0616 47.3768 21.139 47.2998C21.2165 47.2227 21.2755 47.1292 21.3119 47.0261C21.3483 46.923 21.361 46.8131 21.3492 46.7044C21.3593 46.6026 21.3461 46.4999 21.3106 46.404C21.2751 46.3081 21.2183 46.2215 21.1444 46.1509C21.0706 46.0802 20.9816 46.0274 20.8843 45.9963C20.787 45.9652 20.6839 45.9568 20.5828 45.9716C20.4875 45.9612 20.3914 45.9612 20.296 45.9716V47.5066Z" fill="#353A4C"/>
<path d="M22.8281 47.6996V47.5362L23.0259 47.3481C23.4907 46.9024 23.7033 46.6647 23.7033 46.3874C23.708 46.339 23.7019 46.2901 23.6853 46.2444C23.6688 46.1987 23.6422 46.1572 23.6076 46.123C23.5731 46.0889 23.5313 46.0629 23.4854 46.0469C23.4395 46.031 23.3906 46.0255 23.3423 46.0309C23.1984 46.0357 23.0605 46.0899 22.9517 46.1844L22.8726 46.0111C23.0195 45.892 23.2028 45.8273 23.3918 45.8279C23.4649 45.8181 23.5393 45.8247 23.6095 45.8474C23.6797 45.8701 23.744 45.9083 23.7976 45.9591C23.8511 46.0099 23.8927 46.0721 23.9191 46.1411C23.9456 46.21 23.9563 46.2841 23.9505 46.3577C23.9505 46.6944 23.7082 46.9717 23.3226 47.3481L23.1742 47.4818H23.9999V47.6897L22.8281 47.6996Z" fill="#353A4C"/>
<path d="M25.7099 46.764C25.7099 47.3879 25.4775 47.7543 25.077 47.7543C24.6765 47.7543 24.4738 47.4176 24.4688 46.8135C24.4639 46.2094 24.7358 45.8628 25.1066 45.8628C25.4775 45.8628 25.7099 46.1797 25.7099 46.764ZM24.721 46.7937C24.721 47.2889 24.8693 47.5365 25.0918 47.5365C25.3143 47.5365 25.4676 47.2443 25.4676 46.7739C25.4676 46.3035 25.3242 46.051 25.0671 46.051C24.81 46.051 24.6913 46.2936 24.6913 46.7937H24.721Z" fill="#353A4C"/>
<path d="M26.6491 46.1004L26.3326 46.2688L26.2832 46.0806L26.6837 45.8677H26.8914V47.6998H26.6491V46.1004Z" fill="#353A4C"/>
<path d="M28.9441 45.8677V46.0509L28.1431 47.7196H27.8909L28.6771 46.0806H27.7871V45.8776L28.9441 45.8677Z" fill="#353A4C"/>
<path d="M30.8425 46.843V47.0411H30.1602V46.843H30.8425Z" fill="#353A4C"/>
<path d="M26.9166 26.858C26.3184 29.5319 27.3517 31.7602 26.4222 35.5532C26.4074 35.6081 26.4129 35.6666 26.4375 35.7179C26.4621 35.7692 26.5043 35.81 26.5564 35.8327C26.6085 35.8555 26.667 35.8588 26.7213 35.8421C26.7756 35.8253 26.8221 35.7895 26.8524 35.7413C27.4376 34.8704 27.9345 33.9432 28.3357 32.9733C28.7114 31.8394 29.5273 26.6797 29.7201 25.4468C29.7244 25.3517 29.7627 25.2613 29.8281 25.1922C29.8935 25.1231 29.9815 25.0798 30.0761 25.0704V25.0704C30.0761 25.0704 27.594 23.8424 26.9166 26.858ZM28.5928 25.417C28.6298 25.4099 28.6682 25.4144 28.7026 25.4299C28.737 25.4455 28.7658 25.4713 28.7849 25.5038C28.8041 25.5364 28.8128 25.5741 28.8097 25.6117C28.8067 25.6494 28.7921 25.6852 28.7679 25.7142C28.7438 25.7433 28.7112 25.7641 28.6748 25.7739C28.6383 25.7837 28.5998 25.782 28.5643 25.7689C28.5289 25.7559 28.4984 25.7322 28.4769 25.7012C28.4555 25.6701 28.4441 25.6331 28.4444 25.5953C28.4424 25.5738 28.4446 25.5522 28.451 25.5316C28.4574 25.5109 28.4677 25.4918 28.4815 25.4752C28.4953 25.4587 28.5123 25.445 28.5313 25.435C28.5504 25.425 28.5713 25.4189 28.5928 25.417V25.417ZM27.421 26.5609C27.421 26.5609 28.9735 27.3482 29.1564 25.5705C29.1713 25.5953 29.28 27.5958 27.421 26.5609Z" fill="#353A4C"/>
<path d="M26.9961 26.1599C26.9961 26.1599 27.9454 22.1094 29.933 23.8524C29.933 23.8524 28.0097 23.0848 26.9961 26.1599Z" fill="#353A4C"/>
<path d="M21.0178 34.1666C21.0178 34.1666 20.6124 34.6618 22.5012 35.7611C22.5872 36.0037 22.6405 36.2569 22.6594 36.5137C22.6755 36.2565 22.7288 36.003 22.8176 35.7611C24.7261 34.642 24.3009 34.1666 24.3009 34.1666C24.7409 33.7358 25.2898 33.0475 24.8843 32.4187C24.4789 31.7898 23.3021 33.9834 23.0846 33.9042C22.8007 33.7987 22.4884 33.7987 22.2045 33.9042C21.9869 33.9883 20.83 31.7997 20.4047 32.4187C19.9795 33.0376 20.5827 33.7556 21.0178 34.1666ZM24.4492 33.3644C24.6173 33.508 24.1674 33.5823 23.0648 34.8499C23.0648 34.8598 24.2762 33.2456 24.4492 33.3842V33.3644Z" fill="#353A4C"/>
<path d="M26.0871 32.6021C26.2305 33.8895 26.3195 37.3408 22.6805 36.6723C19.0414 37.3408 19.1255 33.8895 19.2738 32.6021C18.7794 36.6327 20.7571 37.0586 21.39 37.113C21.5088 37.118 21.6251 37.1484 21.7312 37.2022C22.0191 37.371 22.3468 37.46 22.6805 37.46C23.0142 37.46 23.3418 37.371 23.6298 37.2022C23.7356 37.1478 23.8521 37.1173 23.971 37.113C24.6187 37.0734 26.6013 36.6426 26.0871 32.6021Z" fill="#353A4C"/>
<path d="M15.8711 24.8081C15.8711 24.8081 16.2271 24.7834 16.2815 24.9171C16.2815 24.9171 16.7413 27.6405 17.9477 25.8331C17.9477 25.8331 18.9366 25.645 20.4199 28.9874C20.41 28.9874 18.2938 23.3226 15.8711 24.8081ZM17.3099 25.0013C17.3433 25.0019 17.3751 25.0158 17.3983 25.04C17.4215 25.0641 17.4342 25.0965 17.4335 25.13C17.4329 25.1635 17.4189 25.1953 17.3948 25.2186C17.3707 25.2418 17.3384 25.2544 17.305 25.2538C17.2748 25.2538 17.2459 25.2418 17.2245 25.2204C17.2032 25.1991 17.1912 25.1701 17.1912 25.1399C17.1875 25.123 17.1876 25.1055 17.1916 25.0887C17.1956 25.0719 17.2034 25.0562 17.2144 25.0428C17.2253 25.0295 17.2392 25.0188 17.2549 25.0116C17.2706 25.0044 17.2877 25.0008 17.305 25.0013H17.3099ZM16.5188 25.2142C16.5056 25.1834 16.4941 25.152 16.4842 25.1201C16.4927 25.1525 16.5043 25.184 16.5188 25.2142C16.6276 25.5311 17.0132 26.4521 17.6659 25.5756C17.6659 25.5756 17.0478 26.8185 16.5188 25.2142V25.2142Z" fill="#353A4C"/>
<path d="M16.519 25.214C16.5045 25.1838 16.4929 25.1523 16.4844 25.1199C16.4943 25.1518 16.5058 25.1832 16.519 25.214V25.214Z" fill="#353A4C"/>
<path d="M16.5195 25.2141C17.0486 26.8185 17.6666 25.5756 17.6666 25.5756C17.0288 26.452 16.6283 25.531 16.5195 25.2141Z" fill="#353A4C"/>
<path d="M15.3564 25.2537C15.3564 25.2537 15.2081 27.274 16.1327 28.0613C17.0573 28.8486 17.2452 31.2502 17.2452 31.2502C17.2452 31.2502 17.1512 28.6555 16.6518 28.195C15.9035 27.3874 15.4473 26.3517 15.3564 25.2537V25.2537Z" fill="#353A4C"/>
<path d="M17.5276 31.27C17.5276 31.27 17.1864 35.1868 19.0949 35.3156C19.0949 35.3156 17.7501 34.2311 17.5276 31.27Z" fill="#353A4C"/>
<path d="M22.6807 39.173C25.2814 39.173 25.9291 36.4001 25.9786 36.1426C25.3061 40.1039 22.6807 39.6781 22.6807 39.6781C22.6807 39.6781 20.0552 40.1089 19.3828 36.1475C19.4323 36.4001 20.08 39.173 22.6807 39.173Z" fill="#353A4C"/>
<path d="M23.674 17.9598C24.3623 18.0114 25.0467 17.8185 25.6072 17.4151C25.6426 17.389 25.6833 17.3711 25.7265 17.3627C25.7696 17.3542 25.8141 17.3555 25.8567 17.3664C25.8992 17.3773 25.9389 17.3976 25.9727 17.4257C26.0065 17.4538 26.0337 17.4891 26.0522 17.529C26.2079 17.8094 26.4574 18.0258 26.7568 18.1399C27.0563 18.2541 27.3863 18.2587 27.6888 18.1529C27.7312 18.1428 27.7754 18.1419 27.8182 18.1503C27.861 18.1586 27.9016 18.176 27.9371 18.2013C27.9727 18.2267 28.0025 18.2593 28.0245 18.297C28.0464 18.3348 28.0601 18.3768 28.0645 18.4203C28.1364 18.9953 28.3321 19.5477 28.6381 20.0395C29.0877 20.5471 29.6234 20.9712 30.2203 21.2923C30.2203 21.2923 29.0287 20.6337 28.0448 20.9407C27.4342 21.1739 26.9331 21.628 26.6406 22.2133C25.9088 23.4067 25.4243 25.9073 25.1325 27.9771C25.1325 28.0585 25.1002 28.1366 25.0428 28.1942C24.9853 28.2517 24.9073 28.2841 24.826 28.2841C24.7447 28.2841 24.6667 28.2517 24.6092 28.1942C24.5517 28.1366 24.5194 28.0585 24.5194 27.9771C24.4104 26.1386 24.3989 24.2956 24.4848 22.4559C24.6317 21.0393 24.2514 19.6181 23.4169 18.4649C23.3776 18.4187 23.3529 18.3619 23.3458 18.3017C23.3388 18.2414 23.3497 18.1805 23.3772 18.1264C23.4047 18.0724 23.4476 18.0278 23.5004 17.9981C23.5532 17.9684 23.6136 17.9551 23.674 17.9598Z" fill="#353A4C"/>
<path d="M33.7262 25.6993C35.7731 25.9568 38.1761 23.8176 36.3022 23.5404C35.8522 23.476 35.3133 24.1841 33.39 22.9858C30.9573 21.4557 30.9178 21.8568 30.9178 21.8568C30.9178 21.8568 30.8387 21.7528 32.228 22.659C33.7113 23.6493 34.2701 24.2385 34.9474 24.2782C34.9474 24.2782 33.7163 26.754 30.3047 23.4958C30.3096 23.4958 30.9425 25.3477 33.7262 25.6993Z" fill="#353A4C"/>
<path d="M28.1129 17.643C34.2736 12.3992 36.8743 17.549 36.8743 17.549C34.5258 10.1759 28.9634 14.1125 26.5752 16.2566C26.4622 16.3564 26.3753 16.4825 26.3224 16.6238C26.2694 16.7651 26.2519 16.9172 26.2714 17.0669C26.291 17.2165 26.3469 17.3591 26.4344 17.482C26.5219 17.6049 26.6381 17.7044 26.773 17.7718L26.8373 17.8015C27.0416 17.905 27.272 17.9452 27.4992 17.917C27.7264 17.8888 27.9401 17.7934 28.1129 17.643V17.643Z" fill="#353A4C"/>
<path d="M22.0125 39.5591C21.2259 40.5462 20.1667 41.2798 18.9668 41.6685C18.9668 41.6685 23.209 40.0344 23.3524 39.4897" fill="#353A4C"/>
<path d="M22.7048 39.7622C22.2569 40.6647 21.5558 41.4167 20.6875 41.9261C20.6875 41.9261 23.7184 39.9454 23.7382 39.48" fill="#353A4C"/>
<path d="M23.521 39.5441C23.2392 40.5093 22.6804 41.3703 21.9141 42.02C21.9141 42.02 24.5494 39.5441 24.4901 39.0737" fill="#353A4C"/>
<path d="M14.6294 21.8963C14.5351 21.7046 14.4831 21.4948 14.4771 21.2812C14.4712 21.0675 14.5113 20.8551 14.5948 20.6584C14.6975 20.5336 14.8291 20.4358 14.9782 20.3736C15.1273 20.3115 15.2894 20.2869 15.4502 20.3019C15.3364 20.0246 15.1535 19.4354 15.4254 19.1135C15.6183 18.8857 15.9891 18.8411 16.528 18.9847C16.535 18.8294 16.5774 18.6776 16.652 18.5412C16.7266 18.4047 16.8313 18.2871 16.9582 18.1974C17.1524 18.1254 17.3619 18.1049 17.5663 18.1379C17.7708 18.1709 17.9632 18.2562 18.1251 18.3856C18.2015 18.2106 18.3129 18.0532 18.4523 17.9229C18.5918 17.7926 18.7564 17.6923 18.9359 17.628C19.1367 17.5924 19.3429 17.6038 19.5385 17.6613C19.7341 17.7189 19.9137 17.821 20.0632 17.9597C20.172 17.6478 20.4687 16.9694 20.9977 16.8506C21.3933 16.7763 21.8185 17.0486 22.2635 17.6626L22.0954 17.7815C21.7048 17.2418 21.3488 16.9942 21.0373 17.0536C20.5824 17.1378 20.2857 17.8805 20.2116 18.1628C20.207 18.1793 20.1983 18.1945 20.1861 18.2066C20.174 18.2188 20.1589 18.2275 20.1423 18.2321C20.1281 18.2403 20.1119 18.2447 20.0954 18.2447C20.0789 18.2447 20.0627 18.2403 20.0484 18.2321C19.9184 18.0832 19.7541 17.9683 19.5697 17.8975C19.3853 17.8268 19.1864 17.8022 18.9903 17.8261C18.4959 17.9498 18.2734 18.554 18.2684 18.5589C18.2633 18.5738 18.2548 18.5874 18.2437 18.5985C18.2326 18.6097 18.219 18.6181 18.2042 18.6233C18.1912 18.6302 18.1768 18.6338 18.1621 18.6338C18.1475 18.6338 18.133 18.6302 18.1201 18.6233C17.6553 18.3361 17.2895 18.2519 17.0571 18.3806C16.7258 18.5639 16.7209 19.1184 16.7209 19.1234C16.7205 19.1387 16.7168 19.1537 16.7099 19.1674C16.7031 19.1811 16.6933 19.1931 16.6813 19.2026C16.6672 19.2086 16.6521 19.2117 16.6368 19.2117C16.6215 19.2117 16.6064 19.2086 16.5923 19.2026C16.0979 19.0442 15.727 19.059 15.6034 19.2323C15.376 19.4997 15.6034 20.1236 15.7172 20.3415C15.7258 20.3575 15.7303 20.3753 15.7303 20.3935C15.7303 20.4117 15.7258 20.4295 15.7172 20.4455C15.7072 20.4598 15.6939 20.4714 15.6783 20.4792C15.6628 20.4869 15.6455 20.4907 15.6282 20.4901C15.2079 20.4901 14.9261 20.5643 14.7926 20.7674C14.5157 21.1486 14.8321 21.7874 14.8321 21.7874L14.6294 21.8963Z" fill="#353A4C"/>
<path d="M11.7765 26.2439C10.9804 26.7786 10.8618 27.8433 11.0991 28.7197C11.2407 29.2431 11.488 29.7319 11.8259 30.1557C11.9622 30.3822 12.1564 30.5682 12.3885 30.6944C12.6206 30.8207 12.8821 30.8825 13.146 30.8737L12.9582 30.7004C12.6071 31.7452 12.612 33.1762 13.3339 34.0824C13.4738 34.2766 13.6725 34.4205 13.9005 34.4928C14.1285 34.565 14.3737 34.5618 14.5997 34.4835C14.7809 34.402 14.9232 34.2529 14.9962 34.0679C15.0691 33.8829 15.067 33.6766 14.9903 33.4931C14.9309 33.3594 14.753 33.4238 14.7134 33.5328C14.5499 33.8805 14.4651 34.2601 14.4651 34.6444C14.4651 35.0288 14.5499 35.4083 14.7134 35.7561C14.78 35.8923 14.8754 36.0123 14.993 36.1079C15.1105 36.2034 15.2475 36.2722 15.3943 36.3094C15.5411 36.3466 15.6942 36.3514 15.843 36.3234C15.9918 36.2954 16.1327 36.2353 16.256 36.1473L16.0039 36.0779C16.0378 36.2947 16.1192 36.5013 16.2423 36.6828C16.3654 36.8643 16.5271 37.0162 16.7159 37.1277C16.8821 37.2087 17.0725 37.2246 17.2498 37.1723C17.4822 37.098 17.6454 36.8999 17.8728 36.8108C18.1003 36.7217 17.9717 36.4394 17.7888 36.5137C17.4921 36.6276 17.2251 37.0088 16.884 36.8653C16.5428 36.7217 16.3895 36.3255 16.2956 35.9987C16.2876 35.9734 16.2733 35.9505 16.2541 35.9322C16.235 35.9138 16.2115 35.9006 16.1859 35.8937C16.1603 35.8868 16.1334 35.8865 16.1077 35.8927C16.0819 35.8989 16.0581 35.9115 16.0385 35.9294C15.544 36.3354 14.9705 35.7462 14.8419 35.2708C14.7171 34.7147 14.7743 34.133 15.0051 33.612L14.7282 33.6466C14.9359 34.1022 14.3574 34.3498 14.0064 34.2309C13.8207 34.1429 13.6569 34.0146 13.527 33.8552C13.397 33.6959 13.304 33.5097 13.2548 33.3099C12.973 32.5003 12.973 31.619 13.2548 30.8093C13.2944 30.6855 13.1708 30.6063 13.0669 30.6212C12.5725 30.6954 12.1423 30.126 11.8951 29.7695C11.6467 29.3976 11.4691 28.9829 11.371 28.5464C11.2029 27.8433 11.282 26.942 11.9297 26.5112C12.0929 26.4023 11.9297 26.1349 11.7765 26.2439Z" fill="#353A4C"/>
<path d="M22.6261 19.4454C22.5308 19.2364 22.3875 19.053 22.2079 18.9102C22.0283 18.7673 21.8175 18.6691 21.5927 18.6234C21.4027 18.5766 21.2019 18.6065 21.0336 18.7065C20.8653 18.8065 20.743 18.9687 20.6929 19.1582L20.8066 19.1136C20.4506 18.9304 19.9858 18.7224 19.615 18.9948C19.4695 19.1378 19.3628 19.3156 19.3048 19.5114C19.2469 19.7072 19.2396 19.9145 19.2837 20.1139L19.3975 20.0495C19.1255 19.9059 18.7794 19.7771 18.5421 20.0495C18.3227 20.3532 18.2065 20.7195 18.2108 21.0943L18.3295 21.0299C17.9933 20.7873 17.479 20.5348 17.1379 20.8814C16.9481 21.0343 16.8022 21.2351 16.7154 21.463C16.6285 21.691 16.6037 21.938 16.6435 22.1787C16.6521 22.1947 16.666 22.2072 16.6828 22.2141C16.6996 22.2211 16.7183 22.222 16.7357 22.2168C16.7531 22.2115 16.7682 22.2005 16.7784 22.1854C16.7886 22.1704 16.7933 22.1523 16.7918 22.1342C16.7594 21.9339 16.7787 21.7286 16.8479 21.5379C16.9172 21.3472 17.034 21.1774 17.1873 21.0448C17.2576 20.9541 17.3572 20.8906 17.4691 20.8653C17.5809 20.84 17.698 20.8545 17.8004 20.9061C17.9694 20.9626 18.128 21.0462 18.2701 21.1537C18.3196 21.1933 18.3839 21.1537 18.3839 21.0893C18.3857 20.8177 18.4447 20.5494 18.5569 20.302C18.73 19.9505 19.0266 20.0198 19.3233 20.1733C19.3352 20.1791 19.3484 20.1818 19.3616 20.1812C19.3749 20.1806 19.3877 20.1766 19.3991 20.1697C19.4104 20.1628 19.4198 20.1532 19.4264 20.1417C19.433 20.1302 19.4367 20.1172 19.437 20.104C19.3955 19.9319 19.3954 19.7523 19.4367 19.5802C19.4779 19.408 19.5594 19.2481 19.6743 19.1136C19.9858 18.8462 20.4209 19.0542 20.7275 19.2176C20.7377 19.2233 20.749 19.2267 20.7607 19.2275C20.7723 19.2282 20.784 19.2265 20.7948 19.2222C20.8057 19.2179 20.8155 19.2113 20.8235 19.2028C20.8315 19.1943 20.8376 19.1842 20.8412 19.173C20.9401 18.6779 21.4691 18.6779 21.8301 18.8314C22.1203 18.9667 22.352 19.2023 22.4827 19.4949C22.5272 19.584 22.6607 19.4949 22.6162 19.4157L22.6261 19.4454Z" fill="#353A4C"/>
<path d="M14.338 22.347C13.0721 22.6343 11.7723 22.7426 10.4764 22.6689C9.48756 22.6441 8.08831 22.6095 7.42577 23.481C6.76323 24.3525 7.49994 25.3378 8.35531 25.5904C9.41834 25.9073 10.6248 25.4517 11.5691 24.9813C12.1526 24.6892 12.7063 24.3475 13.2601 23.991C13.5222 23.8375 13.8979 23.4958 14.2193 23.58C14.5407 23.6642 14.7137 23.991 14.8225 24.2485C14.9066 24.4267 15.1686 24.2485 15.0846 24.09C14.9115 23.7335 14.6643 23.3275 14.2341 23.2779C13.804 23.2284 13.2947 23.6147 12.9189 23.8424C12.0074 24.4598 11.007 24.9341 9.95233 25.2487C9.39368 25.4175 8.79563 25.4019 8.24653 25.2042C8.00562 25.1065 7.80396 24.9314 7.67328 24.7064C7.5426 24.4814 7.49032 24.2193 7.52466 23.9613C7.64332 23.4661 8.20698 23.2086 8.66186 23.0947C9.2603 22.9616 9.87468 22.9149 10.4863 22.9561C11.8138 23.0306 13.1452 22.9189 14.4418 22.6243C14.4613 22.6191 14.4795 22.6101 14.4956 22.5978C14.5116 22.5856 14.525 22.5703 14.5351 22.5528C14.5452 22.5353 14.5518 22.516 14.5544 22.496C14.5571 22.476 14.5558 22.4557 14.5506 22.4362C14.5454 22.4166 14.5364 22.3984 14.5241 22.3823C14.5119 22.3663 14.4966 22.3528 14.4792 22.3427C14.4617 22.3326 14.4424 22.326 14.4225 22.3234C14.4025 22.3207 14.3822 22.322 14.3627 22.3272L14.338 22.347Z" fill="#353A4C"/>
<path d="M59.9153 38.3658C59.3264 38.3761 58.7467 38.2181 58.2441 37.9103C57.8454 38.1852 57.3779 38.343 56.8943 38.3658C56.5515 38.3747 56.209 38.3381 55.8758 38.2569C55.6287 38.1948 55.3921 38.0963 55.1737 37.9647C54.9966 37.8802 54.8459 37.7488 54.7378 37.5847C54.6298 37.4207 54.5685 37.2302 54.5606 37.0338C54.5595 36.8561 54.6149 36.6827 54.7188 36.5387C54.9488 36.7081 55.2296 36.7938 55.5149 36.7813C55.8848 36.8087 56.254 36.7187 56.57 36.524C56.886 36.3294 57.1327 36.0399 57.275 35.6969V28.7199C57.3049 28.3679 57.2085 28.0168 57.0031 27.7296C56.5866 27.2819 56.0814 26.926 55.5198 26.6848C55.9866 26.5058 56.4147 26.2385 56.7806 25.8975C57.0957 25.5543 57.2719 25.1059 57.275 24.6397V18.5987C57.1351 18.2528 56.8894 17.9602 56.5732 17.7627C56.257 17.5653 55.8866 17.4731 55.5149 17.4994C55.2296 17.4869 54.9488 17.5725 54.7188 17.742C54.614 17.5985 54.5585 17.4247 54.5606 17.2468C54.5657 17.0694 54.6224 16.8973 54.7238 16.7517C54.8414 16.5816 54.995 16.4395 55.1737 16.3357C55.622 16.0682 56.1352 15.9295 56.657 15.9346C57.2129 15.9326 57.7568 16.0963 58.2194 16.4051C58.7173 16.0974 59.2908 15.9345 59.8758 15.9345C60.4608 15.9345 61.0343 16.0974 61.5321 16.4051C61.976 16.1189 62.488 15.9565 63.0154 15.9346C63.3713 15.9249 63.727 15.9615 64.0735 16.0436C64.3195 16.1046 64.5546 16.2031 64.7707 16.3357C64.9478 16.4203 65.0985 16.5517 65.2066 16.7158C65.3146 16.8798 65.3759 17.0703 65.3838 17.2667C65.3866 17.4438 65.3329 17.6173 65.2305 17.7618C64.9836 17.5887 64.686 17.5033 64.385 17.5192C64.0133 17.5226 63.6482 17.6179 63.322 17.7965C62.9707 17.9769 62.6916 18.2722 62.5309 18.6333V24.6348C62.502 25.0074 62.6073 25.378 62.8275 25.6796C63.2325 26.1093 63.7248 26.4471 64.2713 26.6699C63.7836 26.8753 63.3339 27.1616 62.9413 27.5167C62.6728 27.8465 62.5276 28.2598 62.5309 28.6853V34.9492C63.1605 35.9395 63.945 36.4347 64.8844 36.4347C67.2181 36.4347 68.7179 35.4443 69.3837 33.4637C69.6622 32.6895 69.8125 31.8749 69.8287 31.0522C69.8858 30.5376 69.7803 30.0181 69.5271 29.5667C69.714 29.399 69.9538 29.3026 70.2045 29.2943C70.43 29.2935 70.6528 29.3426 70.8572 29.4379C71.0654 29.5414 71.2491 29.6883 71.3961 29.8687C71.7262 30.2539 71.9023 30.7477 71.8905 31.2552C71.9034 31.6701 71.8601 32.0849 71.762 32.4882C71.9809 32.6758 72.1537 32.9114 72.2669 33.1768C72.3801 33.4422 72.4306 33.7301 72.4146 34.0182C72.4528 34.6131 72.2577 35.1994 71.8707 35.6523C72.1427 35.9538 72.3078 36.3367 72.3405 36.7417C72.3469 37.0264 72.3017 37.31 72.207 37.5785C72.1184 37.8061 71.9894 38.0158 71.8262 38.1975C71.6602 38.376 71.4588 38.518 71.2349 38.6143C71.011 38.7107 70.7695 38.7593 70.5259 38.757C70.2891 38.7595 70.0551 38.7052 69.8436 38.5986C69.8788 38.3908 69.897 38.1805 69.8979 37.9697C69.8979 37.534 69.7002 37.3111 69.2997 37.3111C68.8698 37.3473 68.4514 37.4685 68.0685 37.6676C66.9809 38.1551 65.7989 38.3952 64.6075 38.3708C63.5771 38.4179 62.5482 38.2493 61.5865 37.8756C61.091 38.2028 60.5088 38.3735 59.9153 38.3658V38.3658ZM58.6446 34.2906C59.1391 34.1074 59.3813 33.4835 59.4308 32.4139C59.4802 31.3443 59.5148 29.8687 59.5148 27.9821C59.5148 26.0955 59.5148 24.8378 59.5148 24.2139C59.5148 23.59 59.5148 23.0849 59.5148 22.7284C59.5148 21.6043 59.3813 20.926 59.1935 20.6883C59.0653 20.4995 58.8963 20.3421 58.699 20.2278C58.699 23.5454 58.6413 25.432 58.526 25.8876C58.4402 26.0942 58.3052 26.2767 58.1329 26.4191C57.9605 26.5615 57.756 26.6595 57.5371 26.7046C58.1106 26.9076 58.432 27.1502 58.526 27.4325C58.638 27.8946 58.6957 29.5683 58.699 32.4535L58.6446 34.2906Z" fill="#353A4C"/>
<path d="M84.914 36.722C84.0503 37.8675 82.7516 38.4386 81.0178 38.4352C78.9016 38.4352 77.3161 37.8014 76.2613 36.5338C75.8126 36.0079 75.4896 35.3864 75.317 34.7165C75.2499 34.3662 75.0773 34.0448 74.8225 33.7955C74.555 33.5632 74.2573 33.3683 73.9375 33.2162C74.2957 33.0423 74.6131 32.7945 74.8688 32.4889C75.1245 32.1834 75.3126 31.8271 75.4208 31.4434C75.6757 30.6092 76.2354 29.9019 76.9882 29.4628C77.7931 29.0285 78.6897 28.7926 79.6037 28.7745C80.553 28.7745 81.2601 28.72 81.715 28.6804C82.1246 28.6518 82.5313 28.5905 82.9313 28.4972C83.5194 28.3814 84.0579 28.0876 84.4739 27.6554V25.5064C84.5349 24.7677 84.3297 24.0317 83.8954 23.4316C83.666 23.1997 83.3886 23.021 83.0828 22.9081C82.777 22.7952 82.4502 22.7507 82.1253 22.778C81.5118 22.7302 80.8993 22.8831 80.38 23.2137C80.199 23.3475 80.0531 23.5233 79.955 23.726C79.8568 23.9287 79.8092 24.1522 79.8163 24.3774C79.8163 25.1201 80.197 25.4816 80.9585 25.4667C80.8036 26.2095 80.4031 26.5809 79.757 26.5809C79.5681 26.5801 79.3807 26.5466 79.2032 26.4818V26.5215C79.1892 26.6316 79.2163 26.743 79.2792 26.8344C79.3422 26.9258 79.4366 26.9907 79.5444 27.0166C79.4091 27.2026 79.2273 27.3495 79.0172 27.4425C78.8071 27.5355 78.5762 27.5714 78.3479 27.5465C78.0657 27.5371 77.7921 27.4474 77.5592 27.2878C77.3262 27.1281 77.1435 26.9052 77.0327 26.6452C76.8706 26.6829 76.7046 26.7012 76.5382 26.6997C76.3217 26.6914 76.1108 26.6283 75.9251 26.5165C75.7077 26.4 75.5238 26.2295 75.3911 26.0213C75.6264 25.8786 75.8267 25.6848 75.9773 25.4543C76.1279 25.2238 76.225 24.9624 76.2613 24.6893C76.3751 23.9565 76.9585 23.2038 78.0166 22.4561C79.4622 21.5011 81.1714 21.0264 82.9016 21.0993C86.1978 21.0993 88.2019 22.1095 88.9139 24.1298C89.1664 24.9063 89.2867 25.7198 89.2699 26.5363V27.695C89.2534 28.1052 89.3773 28.5087 89.621 28.8389C89.9434 29.1871 90.3558 29.439 90.8125 29.5668C90.3803 29.7326 89.9865 29.9853 89.6556 30.3095C89.4017 30.6362 89.2657 31.0394 89.2699 31.4533V35.7465C89.5468 36.4595 89.9423 36.816 90.4566 36.816C90.7432 36.8277 91.0254 36.7422 91.2575 36.5734C91.3946 36.7724 91.4639 37.0103 91.4553 37.2518C91.4474 37.4036 91.4072 37.552 91.3372 37.687C91.2673 37.8219 91.1693 37.9403 91.0499 38.0342C90.7035 38.3066 90.2678 38.4391 89.8286 38.4055C89.2905 38.4064 88.7641 38.2479 88.3157 37.95C88.0076 38.2119 87.6256 38.3712 87.223 38.4055C86.9431 38.4113 86.6638 38.3796 86.3923 38.3115C86.1612 38.2521 85.9421 38.1533 85.7446 38.0193C85.5217 37.875 85.3322 37.6845 85.1889 37.4607C85.0457 37.237 84.9519 36.9851 84.914 36.722V36.722ZM78.4022 36.4942C78.4455 36.4664 78.4812 36.4284 78.5062 36.3835C78.5312 36.3385 78.5448 36.2881 78.5456 36.2367C78.523 36.0236 78.4556 35.8177 78.3479 35.6326C77.9376 34.9814 77.69 34.2409 77.626 33.4736C77.6156 33.0682 77.6371 32.6626 77.6903 32.2605C77.7251 32.042 77.7831 31.8279 77.8633 31.6217C77.9269 31.4582 78.0082 31.3021 78.1056 31.1562L78.3429 30.7997C78.4344 30.6638 78.4967 30.5104 78.5259 30.3491C78.5233 30.3065 78.5103 30.2652 78.4878 30.2289C78.4654 30.1926 78.4343 30.1624 78.3973 30.1411C78.0625 30.2799 77.7682 30.5014 77.5419 30.7849C77.1855 31.2956 76.9412 31.8761 76.825 32.4883C76.7904 32.6863 76.4542 32.929 75.8361 33.2162C76.4443 33.4935 76.7805 33.7113 76.825 33.9441C77.0641 34.9415 77.6171 35.8355 78.4022 36.4942V36.4942ZM80.5431 33.2756C80.5434 33.6703 80.5865 34.0638 80.6717 34.4491C80.7502 34.7967 80.8802 35.1305 81.0574 35.4395C81.2213 35.7211 81.458 35.9534 81.7424 36.112C82.0269 36.2705 82.3487 36.3495 82.6742 36.3407C82.9261 36.3426 83.1749 36.2854 83.4007 36.1736C83.6266 36.0618 83.8231 35.8986 83.9745 35.697C84.3158 35.2279 84.49 34.6577 84.469 34.0778V29.4281C83.7411 29.818 82.9457 30.065 82.1253 30.156C81.0705 30.3211 80.5431 31.3609 80.5431 33.2756V33.2756ZM85.8138 34.2659C86.3676 34.0431 86.6593 32.9933 86.684 31.1018V29.7549C86.684 29.2597 86.684 28.7992 86.684 28.4328C86.684 28.0664 86.684 27.7148 86.684 27.3831C86.6445 26.1798 86.5357 25.4618 86.3527 25.2291C86.2261 25.0377 86.0568 24.8784 85.8583 24.7636L85.8138 34.2659Z" fill="#353A4C"/>
<path d="M96.9491 37.9102C96.5126 38.21 95.995 38.3689 95.4658 38.3658C95.2465 38.3849 95.0256 38.3601 94.8159 38.2929C94.6063 38.2258 94.412 38.1176 94.2445 37.9746C94.0267 37.7819 93.892 37.5121 93.8687 37.2219C93.848 36.9816 93.9033 36.7408 94.027 36.5337C94.2569 36.7031 94.5378 36.7888 94.823 36.7763C95.0941 36.7958 95.3631 36.717 95.581 36.5542C95.7988 36.3915 95.951 36.1557 96.0096 35.8899V31.4334C96.0392 31.1045 95.9419 30.7767 95.7377 30.5173C95.3082 30.0988 94.8054 29.7631 94.2544 29.527C94.7108 29.345 95.1388 29.0981 95.5251 28.7942C95.6776 28.644 95.798 28.4642 95.8787 28.2658C95.9595 28.0674 95.999 27.8546 95.9948 27.6404V25.5656C95.9948 24.7536 95.7179 24.3178 95.1691 24.2485C94.9638 24.2266 94.7575 24.2167 94.5511 24.2188C94.3029 24.2208 94.0626 24.3063 93.8687 24.4614C93.7408 24.3008 93.6695 24.1023 93.666 23.8969C93.6725 23.6693 93.7246 23.4454 93.8193 23.2383C93.927 22.9824 94.0794 22.7476 94.2692 22.5451C94.4915 22.3055 94.7608 22.1145 95.0603 21.9841C95.3599 21.8537 95.6831 21.7868 96.0096 21.7875C96.5767 21.7702 97.1406 21.8784 97.6611 22.1044C97.8603 21.8422 98.1145 21.6269 98.4058 21.4738C98.6971 21.3206 99.0184 21.2333 99.3471 21.2181C100.336 21.2181 100.83 21.733 100.83 22.763V23.9514C101.581 22.7101 102.776 21.803 104.173 21.4161C104.642 21.2832 105.128 21.2165 105.617 21.2181C106.612 21.181 107.593 21.4657 108.415 22.0301C109.182 22.6114 109.744 23.4235 110.017 24.3475C110.344 23.6382 110.825 23.0101 111.423 22.5085C112.021 22.0068 112.723 21.6439 113.478 21.4458C114.056 21.2858 114.654 21.2091 115.253 21.2181C115.897 21.2136 116.535 21.3417 117.127 21.5944C117.695 21.8399 118.202 22.2086 118.61 22.6739C119.436 23.6642 119.851 24.9912 119.851 26.7095L119.807 27.6701C119.79 27.8469 119.807 28.0254 119.859 28.1954C119.911 28.3653 119.996 28.5233 120.108 28.6605C120.536 29.0395 121.024 29.3441 121.552 29.5617C121.066 29.7634 120.612 30.0371 120.207 30.3737C119.941 30.6672 119.798 31.0519 119.807 31.4483V35.9048C119.866 36.1701 120.019 36.4053 120.236 36.5678C120.454 36.7304 120.723 36.8096 120.993 36.7911C121.234 36.787 121.466 36.7015 121.651 36.5485C121.707 36.6296 121.772 36.7043 121.844 36.7713C121.931 36.9098 121.968 37.0743 121.948 37.2368C121.924 37.5269 121.79 37.7968 121.572 37.9895C121.408 38.1316 121.217 38.2395 121.011 38.3066C120.804 38.3738 120.587 38.399 120.37 38.3806C119.831 38.3822 119.303 38.2237 118.853 37.9251C118.432 38.2234 117.929 38.3827 117.414 38.3806C116.916 38.39 116.429 38.2389 116.024 37.9498C115.669 38.233 115.227 38.3851 114.773 38.3806C114.373 38.4017 113.979 38.2748 113.666 38.0241C113.524 37.8944 113.414 37.7345 113.342 37.5563C113.27 37.3781 113.239 37.186 113.251 36.9942C113.247 36.9006 113.265 36.8075 113.303 36.7217C113.341 36.636 113.397 36.5599 113.468 36.499C113.652 36.6563 113.884 36.747 114.126 36.7565C114.332 36.7537 114.531 36.6834 114.694 36.5565C114.856 36.4295 114.973 36.2528 115.026 36.0533V27.5117C115.026 25.2669 114.211 24.1462 112.583 24.1495C112.308 24.1738 112.042 24.2593 111.804 24.3998C111.566 24.5403 111.363 24.7322 111.209 24.9615C110.751 25.5215 110.451 26.1931 110.338 26.9076L110.294 36.0335C110.347 36.233 110.463 36.4097 110.626 36.5367C110.788 36.6636 110.988 36.7339 111.194 36.7367C111.436 36.7272 111.667 36.6365 111.851 36.4792C111.934 36.5702 111.996 36.6778 112.033 36.7948C112.071 36.9118 112.083 37.0355 112.069 37.1576C112.068 37.3217 112.03 37.4835 111.959 37.631C111.887 37.7785 111.782 37.9078 111.654 38.0093C111.338 38.2599 110.943 38.3866 110.541 38.3658C110.084 38.3701 109.639 38.2181 109.28 37.935C108.874 38.2216 108.388 38.3724 107.891 38.3658C107.397 38.3737 106.913 38.2227 106.511 37.935C106.156 38.2181 105.715 38.3702 105.261 38.3658C104.86 38.3859 104.467 38.2591 104.153 38.0093C104.013 37.8786 103.903 37.7185 103.832 37.5404C103.761 37.3623 103.731 37.1707 103.743 36.9793C103.738 36.8861 103.755 36.7931 103.792 36.7073C103.829 36.6216 103.885 36.5453 103.955 36.4841C104.139 36.6415 104.371 36.7322 104.613 36.7416C104.819 36.7388 105.018 36.6686 105.181 36.5416C105.343 36.4147 105.46 36.238 105.513 36.0385V27.5117C105.513 25.7291 105.079 24.6661 104.212 24.3228C103.922 24.2033 103.611 24.1443 103.298 24.1495C102.977 24.1523 102.661 24.2282 102.374 24.3715C102.087 24.5148 101.837 24.7216 101.641 24.9764C101.186 25.533 100.898 26.2079 100.811 26.9224L100.786 36.0335C100.837 36.2338 100.953 36.4115 101.116 36.5387C101.279 36.6659 101.479 36.7355 101.686 36.7367C101.927 36.7257 102.158 36.6352 102.343 36.4792C102.435 36.5684 102.505 36.6769 102.55 36.7968C102.594 36.9167 102.612 37.045 102.6 37.1724C102.596 37.3364 102.555 37.4973 102.478 37.6425C102.402 37.7876 102.293 37.9132 102.16 38.0093C101.834 38.2599 101.429 38.3863 101.018 38.3658C100.568 38.3733 100.128 38.2266 99.7723 37.9498C99.3757 38.2317 98.8988 38.3776 98.4126 38.3658C97.8896 38.3684 97.3785 38.2093 96.9491 37.9102V37.9102ZM97.3594 34.2905C97.8094 34.0033 98.0615 33.4091 98.1159 32.503C98.1555 31.8147 98.1753 31.2007 98.1753 30.656V28.8387C98.2003 27.931 98.1624 27.0227 98.0615 26.1202C98.0407 25.8579 97.9679 25.6024 97.8473 25.3686C97.7268 25.1348 97.5609 24.9274 97.3594 24.7585V25.6894C97.3919 26.6365 97.3572 27.5846 97.2556 28.5268C97.2047 28.7688 97.0844 28.9908 96.9095 29.1655C96.7069 29.3359 96.4712 29.4624 96.2173 29.5369C96.7908 29.735 97.1122 29.9727 97.2062 30.25C97.357 31.2775 97.4132 32.3168 97.3743 33.3547L97.3594 34.2905ZM106.442 24.7585C106.729 25.4584 106.872 26.8168 106.872 28.8338V34.2806C107.367 34.0974 107.609 33.4735 107.659 32.4039C107.708 31.3344 107.743 30.3936 107.743 29.5666C107.743 28.7397 107.743 28.0514 107.673 27.5018C107.639 27.0321 107.563 26.5665 107.446 26.1103C107.384 25.8265 107.263 25.5592 107.09 25.3261C106.916 25.093 106.696 24.8995 106.442 24.7585V24.7585ZM115.955 24.7585C116.242 25.4584 116.385 26.8168 116.385 28.8338V34.2806C116.88 34.0974 117.122 33.4735 117.171 32.4039C117.221 31.3344 117.256 30.3936 117.256 29.5666C117.256 28.7397 117.231 28.0514 117.186 27.5018C117.15 27.032 117.073 26.5663 116.954 26.1103C116.893 25.8267 116.773 25.5594 116.6 25.3263C116.428 25.0931 116.208 24.8996 115.955 24.7585V24.7585Z" fill="#353A4C"/>
<path d="M130.457 37.0782C129.585 37.8691 128.463 38.3252 127.287 38.3657C126.323 38.3657 125.735 38.2419 125.517 37.9943C125.751 37.6542 125.871 37.2483 125.859 36.8356C125.859 36.3404 125.888 35.8453 125.888 35.3897V31.4283C125.918 31.0994 125.82 30.7716 125.616 30.5123C125.187 30.0932 124.684 29.7574 124.133 29.5219C124.59 29.3399 125.019 29.0949 125.409 28.794C125.564 28.6471 125.689 28.4699 125.774 28.2732C125.859 28.0765 125.903 27.8645 125.903 27.6502V19.5591C125.903 18.4697 125.458 17.9251 124.573 17.9251C124.287 17.9157 124.005 18.001 123.772 18.1677C123.647 18.0056 123.578 17.8077 123.574 17.6032C123.575 17.4055 123.626 17.2114 123.723 17.0387C123.839 16.8463 123.992 16.6782 124.172 16.5435C124.679 16.2029 125.279 16.0298 125.888 16.0484C126.428 16.0366 126.968 16.0797 127.5 16.1771C127.703 15.8933 127.966 15.6576 128.27 15.4865C128.575 15.3154 128.912 15.2131 129.26 15.1868C130.249 15.1868 130.744 15.7017 130.744 16.7317V22.8619C131.561 22.0845 132.58 21.5542 133.685 21.3318C134.16 21.2345 134.645 21.1913 135.129 21.2031C135.756 21.2075 136.379 21.2941 136.983 21.4606C137.613 21.6196 138.193 21.9346 138.669 22.3766C139.622 23.2547 140.209 24.8178 140.43 27.0659C140.453 27.602 140.629 28.1201 140.938 28.5589C141.246 28.9977 141.674 29.3388 142.17 29.5417C141.692 29.7386 141.256 30.0242 140.884 30.3835C140.632 30.722 140.475 31.1222 140.43 31.5422C140.153 33.853 139.561 35.5498 138.654 36.6326C137.666 37.8243 136.233 38.4201 134.358 38.4201C133.321 38.3993 132.304 38.1311 131.391 37.6378C131.059 37.4879 130.746 37.3001 130.457 37.0782V37.0782ZM129.344 20.2028C129.147 20.299 128.977 20.4441 128.852 20.6244C128.726 20.8047 128.649 21.0141 128.627 21.2328C128.502 22.266 128.45 23.3069 128.474 24.3474V27.0114C128.474 27.5066 128.474 28.2246 128.499 29.106C128.524 29.9874 128.499 30.6658 128.528 31.1411C128.548 32.1711 128.578 32.8313 128.617 33.1218C128.65 33.3886 128.739 33.6454 128.88 33.8745C128.984 34.066 129.147 34.2187 129.344 34.3102V20.2028ZM130.714 33.5724C130.709 33.9381 130.775 34.3013 130.91 34.6411C131.045 34.981 131.245 35.2909 131.5 35.5531C131.705 35.8034 131.962 36.006 132.253 36.1471C132.545 36.2881 132.863 36.3642 133.186 36.3701C134.772 36.3701 135.566 35.2247 135.569 32.9337V26.65C135.569 24.8574 135.154 23.7978 134.328 23.4611C134.043 23.3446 133.737 23.2873 133.428 23.2927C132.878 23.2622 132.334 23.4194 131.885 23.7387C131.436 24.0581 131.109 24.5205 130.956 25.0506C130.782 25.5653 130.7 26.1067 130.714 26.65V33.5724ZM136.944 34.3152C137.438 34.132 137.68 33.5081 137.725 32.4385C137.769 31.3689 137.814 30.5767 137.814 30.0567C137.814 29.5368 137.814 29.106 137.814 28.7594C137.814 28.4128 137.814 28.0513 137.814 27.6799C137.774 26.2835 137.666 25.4764 137.483 25.2437C137.354 25.0571 137.185 24.9015 136.988 24.7881L136.944 34.3152Z" fill="#353A4C"/>
<path d="M146.673 38.6233C146.342 38.3304 146.078 37.9687 145.901 37.5633C145.723 37.158 145.636 36.7187 145.645 36.2761C145.645 34.8847 146.466 33.7409 148.117 32.8446C146.946 31.9576 146.114 30.696 145.759 29.2695C145.659 28.8985 145.491 28.5493 145.264 28.2395C144.917 27.8725 144.498 27.5809 144.033 27.3829C144.463 27.1978 144.839 26.9065 145.126 26.5362C145.413 26.1256 145.635 25.6729 145.784 25.1942C145.975 24.6323 146.239 24.0979 146.57 23.6047C146.925 23.0883 147.371 22.6405 147.885 22.2826C149.232 21.4146 150.814 20.9856 152.414 21.0546C153.033 21.0567 153.651 21.118 154.258 21.2378C154.382 20.2169 154.875 19.2766 155.643 18.5936C156.375 17.8803 157.36 17.4853 158.382 17.4943C159.493 17.4547 160.585 17.7914 161.482 18.45C161.669 18.6106 161.889 18.7283 162.127 18.795C162.364 18.8618 162.613 18.8758 162.856 18.8363C162.911 19.1497 162.852 19.4725 162.688 19.7453C162.525 20.0182 162.268 20.2229 161.966 20.3218C161.863 21.6092 161.309 22.2529 160.295 22.2529C160.049 22.2767 159.801 22.2463 159.568 22.1638C159.64 22.1036 159.696 22.0275 159.733 21.9415C159.77 21.8555 159.787 21.7621 159.781 21.6686C159.779 21.5734 159.756 21.4797 159.714 21.3942C159.673 21.3087 159.613 21.2333 159.539 21.1735C159.341 21.5448 158.891 21.733 158.199 21.733C158.013 21.7362 157.83 21.6867 157.671 21.5904C157.511 21.494 157.383 21.3547 157.299 21.1883C157.627 21.0961 157.923 20.9144 158.154 20.6634C158.337 20.4948 158.45 20.2632 158.471 20.0148C158.471 19.4899 158.194 19.2274 157.64 19.2274C156.572 19.2274 155.949 20.0527 155.771 21.7033C156.555 21.9929 157.261 22.4594 157.835 23.0665C158.41 23.6736 158.837 24.4051 159.084 25.2041C159.19 25.6755 159.402 26.1165 159.704 26.4939C160.005 26.8713 160.388 27.1753 160.824 27.3829C160.212 27.6314 159.693 28.0662 159.341 28.6258C159.235 28.8316 159.149 29.0472 159.084 29.2695C158.699 30.6983 157.85 31.9581 156.671 32.8496C155.415 33.6632 153.938 34.0663 152.444 34.0033C151.476 34.0219 150.511 33.8865 149.586 33.6022C149.456 33.6621 149.345 33.7549 149.263 33.8713C149.18 33.9877 149.13 34.1237 149.116 34.2658C149.107 34.4797 149.157 34.692 149.259 34.8798C149.378 35.0753 149.549 35.2332 149.754 35.3353C150.638 35.6983 151.571 35.9285 152.523 36.0187C153.142 36.1441 153.78 35.7447 154.436 34.8203C154.444 35.2063 154.557 35.5828 154.762 35.9097C154.829 36.0162 154.917 36.1077 155.021 36.1784C155.125 36.2492 155.242 36.2976 155.366 36.3207C158.003 36.7135 159.702 37.5718 160.463 38.8956C160.75 39.423 160.889 40.0187 160.864 40.6188C160.851 41.3528 160.617 42.0658 160.191 42.6638C159.717 43.3538 159.097 43.9318 158.377 44.3573C156.604 45.3615 154.588 45.8566 152.552 45.7884C149.846 45.7884 147.779 45.3444 146.352 44.4564C145.126 43.6839 144.508 42.6985 144.508 41.4853C144.533 41.0407 144.655 40.6069 144.865 40.2144C145.075 39.8218 145.368 39.4799 145.724 39.2125C146.016 38.9785 146.334 38.7807 146.673 38.6233ZM148.058 31.2997C148.142 31.2464 148.212 31.1735 148.262 31.0873C148.312 31.0011 148.34 30.9041 148.345 30.8045C148.344 30.5618 148.311 30.3202 148.246 30.0865C147.732 28.3259 147.732 26.4547 148.246 24.6941C148.302 24.5192 148.335 24.3378 148.345 24.1544V23.8078C148.344 23.7658 148.333 23.7247 148.313 23.6877C148.293 23.6507 148.265 23.6189 148.231 23.5948C147.834 24.0815 147.544 24.6469 147.381 25.2537C147.203 25.8677 147.064 26.4025 146.96 26.8729C146.921 27.0165 146.654 27.1947 146.159 27.4176C146.654 27.6651 146.931 27.8484 146.96 27.9721L147.242 29.1754C147.394 29.9288 147.669 30.6517 148.058 31.3145V31.2997ZM148.102 39.5393C147.779 39.6712 147.506 39.9034 147.323 40.2019C147.141 40.5004 147.059 40.8495 147.089 41.1981C147.089 41.8584 147.583 42.4443 148.572 42.956C149.881 43.5948 151.325 43.9042 152.78 43.8572C154.911 43.8572 156.3 43.4908 156.938 42.7579C157.103 42.5856 157.198 42.3579 157.205 42.1192C157.202 42.0023 157.172 41.8878 157.117 41.7846C157.062 41.6815 156.984 41.5926 156.889 41.525C156.636 41.3375 156.351 41.1982 156.048 41.114C155.27 40.8867 154.472 40.7375 153.665 40.6683C153.141 40.6089 152.493 40.9951 151.722 41.827C151.755 41.423 151.663 41.0186 151.46 40.6683C151.402 40.5721 151.327 40.4883 151.237 40.422C151.147 40.3557 151.044 40.3081 150.936 40.2821C149.963 40.1691 149.01 39.9242 148.102 39.5542V39.5393ZM147.341 36.4049C147.295 36.4547 147.26 36.5134 147.238 36.5773C147.216 36.6411 147.207 36.7089 147.212 36.7763C147.249 37.8062 148.714 38.5836 151.608 39.1085C151.944 39.1877 152.181 39.5492 152.325 40.1979C152.369 39.985 152.557 39.8117 152.889 39.673C153.095 39.5663 153.32 39.5007 153.551 39.4799C154.532 39.5773 155.505 39.7427 156.463 39.9751C157.237 40.1652 157.929 40.5971 158.441 41.208C158.555 41.0683 158.616 40.8931 158.614 40.7129C158.606 40.5907 158.574 40.4714 158.52 40.3618C158.465 40.2521 158.39 40.1543 158.298 40.0741C157.993 39.7945 157.627 39.5909 157.23 39.4799C156.149 39.1294 155.033 38.9002 153.902 38.7966C152.501 38.6315 151.512 38.4879 150.936 38.3658C150.404 38.2519 149.882 38.0996 149.373 37.9102C148.55 37.6445 147.836 37.1157 147.341 36.4049V36.4049ZM151.084 31.4136C151.232 31.6602 151.451 31.8567 151.712 31.9781C152.192 32.1464 152.715 32.1464 153.195 31.9781C153.41 31.8947 153.594 31.7479 153.724 31.5572C154.053 30.9517 154.197 30.2632 154.139 29.5765V25.6151C154.139 24.6941 154.036 24.0801 153.823 23.788C153.672 23.5425 153.454 23.345 153.195 23.2185C152.714 23.0566 152.193 23.0566 151.712 23.2185C151.51 23.303 151.338 23.4462 151.217 23.6295C150.882 24.2328 150.732 24.9219 150.787 25.6102V29.5715C150.758 30.5074 150.861 31.1214 151.074 31.4136H151.084ZM155.509 31.3145C155.949 31.161 156.201 30.6906 156.266 29.8984C156.33 29.1061 156.364 28.3188 156.364 27.3977C156.392 26.4801 156.354 25.5617 156.251 24.6496C156.224 24.4271 156.143 24.2149 156.013 24.0323C155.883 23.8498 155.71 23.7027 155.509 23.6047V31.3145Z" fill="#353A4C"/>
<path d="M165.098 34.3054C164.792 33.6149 164.578 32.8875 164.46 32.1415C164.423 31.7528 164.359 31.3672 164.267 30.9878C164.214 30.8066 164.125 30.6381 164.005 30.4926C163.63 30.0866 163.176 29.7629 162.67 29.5419C163.054 29.3868 163.398 29.1447 163.673 28.8346C163.948 28.5245 164.148 28.1547 164.257 27.7543C164.321 27.5277 164.374 27.298 164.415 27.066C164.653 25.3711 165.54 23.8352 166.887 22.7828C168.262 21.6427 169.998 21.0317 171.782 21.0596C173.608 21.0179 175.388 21.6367 176.796 22.8026C178.114 23.8637 178.977 25.3888 179.209 27.066C179.254 27.5253 179.385 27.972 179.594 28.3832C179.926 28.8936 180.398 29.2963 180.954 29.5419C180.484 29.7329 180.056 30.0138 179.693 30.3688C179.43 30.716 179.259 31.1252 179.199 31.5572C178.899 33.8119 178.119 35.5219 176.86 36.6872C175.601 37.8525 173.92 38.4351 171.817 38.4351C169.566 38.4351 167.799 37.7749 166.517 36.4544C165.911 35.8351 165.43 35.1057 165.098 34.3054ZM167.031 34.3054C167.09 34.2663 167.14 34.2136 167.175 34.1516C167.21 34.0896 167.23 34.0201 167.234 33.9489C167.224 33.6772 167.181 33.4078 167.105 33.1467C166.798 32.1293 166.601 31.0818 166.517 30.0222C166.511 29.5626 166.53 29.103 166.576 28.6456C166.611 28.3188 166.66 27.987 166.719 27.6553C166.843 27.0066 166.972 26.4322 167.105 25.937C167.17 25.7224 167.213 25.5018 167.234 25.2784C167.24 25.1858 167.226 25.0929 167.19 25.0069C167.155 24.921 167.101 24.8444 167.031 24.7833C166.597 25.3424 166.29 25.9896 166.131 26.6798C165.923 27.482 165.75 28.1653 165.637 28.7991C165.592 29.0566 165.31 29.2943 164.796 29.5419C165.29 29.7795 165.592 30.037 165.637 30.2549C165.822 31.3074 166.115 32.3379 166.512 33.3299C166.664 33.6607 166.838 33.9816 167.031 34.2905V34.3054ZM171.787 23.0898C170.172 23.0898 169.363 24.2815 169.36 26.6649V33.0031C169.36 35.2908 170.164 36.4346 171.772 36.4346C173.381 36.4346 174.195 35.2908 174.215 33.0031V26.6501C174.215 24.27 173.406 23.0782 171.787 23.0749V23.0898ZM175.585 34.3054C176.079 34.1222 176.326 33.4983 176.371 32.4287C176.415 31.3591 176.46 30.5669 176.46 30.0469C176.46 29.527 176.46 29.0962 176.46 28.7496C176.46 28.403 176.46 28.0415 176.46 27.6701C176.42 26.2737 176.311 25.4666 176.128 25.2339C176.001 25.0462 175.831 24.8903 175.634 24.7783L175.585 34.3054Z" fill="#353A4C"/>
<path d="M193.744 36.722C192.88 37.8675 191.58 38.4386 189.843 38.4352C187.733 38.4352 186.148 37.8014 185.086 36.5338C184.639 36.0077 184.318 35.3861 184.147 34.7165C184.078 34.3669 183.906 34.0461 183.653 33.7955C183.385 33.5632 183.087 33.3683 182.768 33.2162C183.126 33.0421 183.443 32.7941 183.699 32.4886C183.954 32.1831 184.142 31.8269 184.251 31.4434C184.507 30.6084 185.069 29.901 185.823 29.4628C186.627 29.0326 187.522 28.8 188.434 28.7844C189.388 28.7844 190.095 28.7299 190.55 28.6903C190.958 28.6613 191.363 28.6001 191.761 28.5071C192.349 28.3913 192.888 28.0975 193.304 27.6653V25.5064C193.365 24.7677 193.16 24.0317 192.725 23.4316C192.496 23.1988 192.218 23.0195 191.911 22.9065C191.604 22.7935 191.276 22.7497 190.95 22.778C190.338 22.7302 189.728 22.8832 189.21 23.2137C189.029 23.3475 188.883 23.5233 188.785 23.726C188.687 23.9287 188.639 24.1522 188.646 24.3774C188.646 25.1201 189.027 25.4816 189.789 25.4667C189.634 26.2095 189.233 26.5809 188.587 26.5809C188.397 26.5797 188.208 26.5462 188.028 26.4818V26.5215C188.016 26.6321 188.044 26.7436 188.108 26.8348C188.171 26.926 188.266 26.9907 188.374 27.0166C188.238 27.203 188.056 27.3501 187.845 27.4431C187.634 27.5361 187.402 27.5718 187.173 27.5465C186.891 27.5371 186.617 27.4474 186.384 27.2878C186.151 27.1281 185.969 26.9052 185.858 26.6452C185.696 26.6834 185.53 26.7017 185.363 26.6997C185.147 26.692 184.936 26.6289 184.75 26.5165C184.531 26.4014 184.345 26.2307 184.211 26.0213C184.447 25.8786 184.647 25.6848 184.798 25.4543C184.948 25.2238 185.045 24.9624 185.082 24.6893C185.2 23.9565 185.784 23.2038 186.842 22.4561C188.287 21.5011 189.997 21.0264 191.727 21.0993C195.023 21.0993 197.027 22.1095 197.739 24.1298C197.991 24.9063 198.112 25.7198 198.095 26.5363V27.695C198.076 28.1055 198.2 28.5098 198.446 28.8389C198.767 29.1883 199.18 29.4405 199.638 29.5668C199.204 29.7298 198.81 29.983 198.481 30.3095C198.227 30.6362 198.091 31.0394 198.095 31.4533V35.7465C198.372 36.4595 198.767 36.816 199.282 36.816C199.567 36.8285 199.848 36.7429 200.078 36.5734C200.217 36.7718 200.288 37.0097 200.28 37.2518C200.272 37.404 200.23 37.5525 200.16 37.6874C200.089 37.8223 199.99 37.9406 199.87 38.0342C199.524 38.3075 199.088 38.4401 198.649 38.4055C198.111 38.4049 197.585 38.2466 197.136 37.95C196.828 38.2128 196.446 38.3722 196.043 38.4055C195.765 38.411 195.487 38.3794 195.217 38.3115C194.985 38.2512 194.765 38.1525 194.565 38.0193C194.344 37.8735 194.157 37.6825 194.015 37.4588C193.874 37.2352 193.781 36.984 193.744 36.722V36.722ZM187.232 36.4942C187.276 36.4664 187.311 36.4284 187.336 36.3835C187.361 36.3385 187.375 36.2881 187.376 36.2367C187.353 36.023 187.283 35.8169 187.173 35.6326C186.768 34.9798 186.524 34.2397 186.461 33.4736C186.451 33.0682 186.472 32.6626 186.525 32.2605C186.559 32.0422 186.615 31.8281 186.693 31.6217C186.759 31.4591 186.84 31.3032 186.936 31.1562C187.031 31.0209 187.11 30.9021 187.173 30.7997C187.265 30.6637 187.329 30.5104 187.361 30.3491C187.358 30.3065 187.345 30.2652 187.323 30.2289C187.3 30.1926 187.269 30.1624 187.232 30.1411C186.897 30.2814 186.601 30.5026 186.372 30.7849C186.019 31.2971 185.777 31.8772 185.66 32.4883C185.62 32.6863 185.289 32.929 184.671 33.2162C185.279 33.4935 185.611 33.7113 185.66 33.9441C185.894 34.9423 186.446 35.8374 187.232 36.4942V36.4942ZM189.368 33.2756C189.369 33.6703 189.412 34.0638 189.497 34.4491C189.571 34.798 189.701 35.1325 189.882 35.4395C190.046 35.7207 190.281 35.9528 190.565 36.1114C190.849 36.27 191.17 36.3492 191.494 36.3407C191.746 36.3434 191.995 36.2865 192.221 36.1747C192.447 36.0628 192.644 35.8991 192.795 35.697C193.138 35.229 193.312 34.658 193.289 34.0778V29.4281C192.563 29.8172 191.769 30.0643 190.95 30.156C189.896 30.3211 189.368 31.3609 189.368 33.2756ZM194.639 34.2659C195.188 34.0431 195.479 32.9933 195.509 31.1018V29.7549C195.509 29.2597 195.509 28.7992 195.509 28.4328C195.509 28.0664 195.509 27.7148 195.484 27.3831C195.445 26.1814 195.336 25.4634 195.158 25.2291C195.03 25.0389 194.861 24.8798 194.664 24.7636L194.639 34.2659Z" fill="#353A4C"/>
<path d="M212.146 35.9839C212.336 35.7782 212.48 35.5354 212.571 35.2709C212.676 34.9769 212.73 34.667 212.73 34.3548C212.732 34.0599 212.712 33.7653 212.67 33.4734C212.733 33.3831 212.814 33.3066 212.908 33.2487C213.001 33.1908 213.105 33.1527 213.214 33.1367C213.406 33.0769 213.603 33.0371 213.803 33.0178C213.969 33.0124 214.135 33.0463 214.286 33.1169C214.437 33.1874 214.57 33.2926 214.673 33.4239C214.907 33.7517 215.023 34.1502 214.999 34.5529C214.993 35.0579 214.847 35.5514 214.579 35.9789C214.286 36.4598 213.905 36.8814 213.457 37.2218C212.423 38.031 211.144 38.4594 209.832 38.435C207.195 38.435 205.452 37.4446 204.601 35.464C204.263 34.5834 204.103 33.644 204.132 32.7009V30.9431C204.132 30.4925 203.637 30.022 202.648 29.5269C203.084 29.3264 203.455 29.0067 203.717 28.6046C203.979 28.2025 204.123 27.7343 204.132 27.254V25.5655C204.132 24.4761 203.691 23.9364 202.801 23.9364C202.516 23.9239 202.235 24.0096 202.005 24.179C201.878 24.0162 201.807 23.8164 201.803 23.6096C201.809 23.391 201.845 23.1743 201.912 22.9659C201.986 22.7283 202.115 22.5114 202.287 22.3321C202.747 21.8369 203.454 21.6636 204.418 21.8369V21.3813C204.4 20.434 204.669 19.5034 205.19 18.7124C205.635 18.029 206.035 17.6824 206.381 17.6824C206.534 17.6754 206.686 17.704 206.826 17.7658C206.966 17.8277 207.089 17.9212 207.187 18.0389C207.28 17.4555 207.5 16.8995 207.83 16.4098C207.968 16.2437 208.144 16.1124 208.342 16.0265C208.541 15.9405 208.756 15.9022 208.972 15.9147V21.8567H213.595C213.688 22.0994 213.727 22.3598 213.709 22.6193C213.714 22.785 213.679 22.9496 213.606 23.0988C213.534 23.248 213.427 23.3774 213.293 23.4759C213.01 23.6938 212.661 23.8075 212.305 23.7978H208.962V33.5031C208.962 35.1537 209.34 36.1258 210.094 36.4196C210.322 36.4986 210.561 36.5372 210.801 36.5335C211.05 36.5342 211.296 36.4888 211.528 36.3998C211.762 36.3079 211.973 36.1659 212.146 35.9839V35.9839ZM205.501 34.2904C205.951 34.0032 206.203 33.409 206.258 32.5028C206.297 31.8542 206.317 31.3491 206.327 30.9876C206.337 30.6262 206.327 30.3291 206.327 30.1062C206.327 29.8834 206.327 29.7051 206.327 29.5813V29.0119C206.327 28.7346 206.327 28.3781 206.327 27.9473C206.327 27.5165 206.327 27.0411 206.327 26.5311C206.327 26.0211 206.327 25.5408 206.287 25.0456C206.291 24.3568 206.248 23.6686 206.159 22.9857C206.132 22.7603 206.06 22.5427 205.947 22.3461C205.834 22.1495 205.682 21.9779 205.501 21.8418V26.2984C205.531 26.9988 205.51 27.7006 205.437 28.3979C205.394 28.4852 205.359 28.5764 205.333 28.6702C205.244 28.9574 204.923 29.1951 204.344 29.3882C204.918 29.5863 205.239 29.8289 205.333 30.1161C205.485 31.1818 205.542 32.259 205.501 33.3347V34.2904Z" fill="#353A4C"/>
</g>
<defs>
<clipPath id="clip0_163_87">
<rect width="215" height="61" fill="white"/>
</clipPath>
</defs>
</svg>
