<svg width="389" height="314" viewBox="0 0 389 314" fill="none" xmlns="http://www.w3.org/2000/svg">
<path d="M201.463 308.667C197.164 311.697 191.398 311.697 187.099 308.667L108.872 253.462L105.771 253.803L185.911 310.352C188.411 312.121 191.346 313 194.281 313C197.216 313 200.151 312.121 202.651 310.352L282.77 253.813L279.701 253.451L201.463 308.667Z" fill="#353A4D" stroke="#353A4D"/>
<path d="M307.263 85.0125C307.263 80.2966 304.959 75.8496 301.104 73.1297L202.653 3.6527C197.652 0.115767 190.914 0.115767 185.912 3.6527L87.4617 73.1297C83.6072 75.8496 81.3027 80.2862 81.3027 85.0125V187.015L83.3695 186.725V85.0229C83.3695 80.9792 85.3433 77.163 88.6501 74.8361L187.101 5.35911C189.25 3.83885 191.761 3.08389 194.283 3.08389C196.804 3.08389 199.315 3.83885 201.465 5.35911L299.916 74.8361C303.222 77.1733 305.196 80.9792 305.196 85.0229V186.901L307.263 187.222V85.0125Z" fill="#353A4D" stroke="#353A4D"/>
<path d="M296.743 92.0763C296.743 87.3604 294.438 82.9133 290.584 80.1934L202.653 18.142C197.651 14.605 190.914 14.605 185.912 18.142L97.9812 80.1934C94.1267 82.9133 91.8223 87.35 91.8223 92.0763V185.515L93.889 185.226V92.0866C93.889 88.0429 95.8628 84.2267 99.1696 81.8998L187.1 19.8484C189.25 18.3281 191.761 17.5732 194.283 17.5732C196.804 17.5732 199.315 18.3281 201.465 19.8484L289.395 81.8998C292.702 84.2371 294.676 88.0429 294.676 92.0866V185.267L296.743 185.588V92.0763Z" fill="#353A4D" stroke="#353A4D"/>
<path d="M201.464 293.464C197.166 296.494 191.399 296.494 187.1 293.464L127.495 251.403L124.395 251.745L185.912 295.16C188.413 296.928 191.348 297.807 194.282 297.807C197.217 297.807 200.152 296.928 202.653 295.16L264.315 251.641L261.246 251.279L201.464 293.464Z" fill="#353A4D" stroke="#353A4D"/>
<path d="M169.925 266.079V266.534H168.199V266.079H169.925Z" fill="#353A4D" stroke="#353A4D"/>
<path d="M175.558 265.996H173.729V267.692H175.765V268.199H173.119V263.494H175.661V264H173.729V265.49H175.558V265.996Z" fill="#353A4D" stroke="#353A4D"/>
<path d="M176.963 267.465C177.232 267.63 177.635 267.775 178.048 267.775C178.668 267.775 179.03 267.444 179.03 266.968C179.03 266.524 178.782 266.275 178.141 266.027C177.376 265.758 176.901 265.355 176.901 264.693C176.901 263.959 177.511 263.411 178.42 263.411C178.906 263.411 179.247 263.524 179.464 263.638L179.298 264.135C179.143 264.052 178.833 263.907 178.41 263.907C177.769 263.907 177.521 264.29 177.521 264.61C177.521 265.055 177.81 265.272 178.461 265.52C179.257 265.831 179.66 266.213 179.66 266.906C179.66 267.63 179.123 268.261 178.017 268.261C177.562 268.261 177.066 268.127 176.818 267.961L176.963 267.465Z" fill="#353A4D" stroke="#353A4D"/>
<path d="M181.882 264.011H180.445V263.494H183.928V264.011H182.491V268.199H181.882V264.011Z" fill="#353A4D" stroke="#353A4D"/>
<path d="M184.94 263.556C185.312 263.504 185.746 263.462 186.232 263.462C187.1 263.462 187.73 263.669 188.133 264.052C188.557 264.435 188.795 264.983 188.795 265.738C188.795 266.503 188.557 267.134 188.113 267.568C187.668 268.013 186.945 268.251 186.035 268.251C185.601 268.251 185.24 268.23 184.93 268.199V263.556H184.94ZM185.55 267.723C185.705 267.754 185.922 267.754 186.159 267.754C187.462 267.754 188.164 267.03 188.164 265.758C188.175 264.652 187.544 263.938 186.263 263.938C185.953 263.938 185.715 263.969 185.55 264V267.723Z" fill="#353A4D" stroke="#353A4D"/>
<path d="M191.844 268.199V267.827L192.329 267.361C193.487 266.255 194.014 265.665 194.014 264.983C194.014 264.517 193.786 264.093 193.115 264.093C192.701 264.093 192.36 264.3 192.154 264.476L191.957 264.042C192.267 263.773 192.722 263.576 193.239 263.576C194.221 263.576 194.624 264.248 194.624 264.9C194.624 265.738 194.014 266.42 193.063 267.341L192.701 267.672V267.682H194.737V268.189H191.844V268.199Z" fill="#353A4D" stroke="#353A4D"/>
<path d="M198.931 265.883C198.931 267.423 198.363 268.282 197.35 268.282C196.461 268.282 195.862 267.454 195.852 265.945C195.852 264.424 196.503 263.587 197.433 263.587C198.383 263.587 198.931 264.435 198.931 265.883ZM196.461 265.955C196.461 267.134 196.823 267.806 197.381 267.806C198.011 267.806 198.311 267.072 198.311 265.914C198.311 264.797 198.022 264.062 197.391 264.062C196.854 264.062 196.461 264.714 196.461 265.955Z" fill="#353A4D" stroke="#353A4D"/>
<path d="M201.32 264.228H201.309L200.524 264.652L200.41 264.186L201.402 263.659H201.929V268.199H201.34V264.228H201.32Z" fill="#353A4D" stroke="#353A4D"/>
<path d="M207.003 263.659V264.062L205.029 268.199H204.398L206.372 264.176V264.165H204.15V263.659H207.003Z" fill="#353A4D" stroke="#353A4D"/>
<path d="M211.726 266.079V266.534H210V266.079H211.726Z" fill="#353A4D" stroke="#353A4D"/>
<path d="M366.052 271.239C365.556 271.239 365.06 271.177 364.553 271.043C253.154 241.413 135.4 241.413 24.0009 271.043C20.9524 271.85 17.8109 270.081 16.9945 267.092L1.18373 209.24C0.81171 207.885 1.00805 206.427 1.74176 205.155C2.56847 203.707 4.02554 202.621 5.7203 202.166C129.076 169.361 259.489 169.361 382.844 202.166C384.539 202.621 385.986 203.707 386.823 205.155C387.557 206.437 387.753 207.885 387.381 209.24L371.57 267.092C370.878 269.585 368.573 271.239 366.052 271.239ZM365.008 269.357C367.127 269.926 369.317 268.695 369.886 266.637L385.697 208.785C385.945 207.875 385.81 206.902 385.304 206.034C384.705 204.989 383.64 204.203 382.39 203.872C259.324 171.14 129.22 171.14 6.15432 203.872C4.90392 204.203 3.83953 204.989 3.24017 206.034C2.74414 206.902 2.59947 207.885 2.84748 208.785L18.6583 266.637C19.2267 268.706 21.4174 269.926 23.5359 269.357C135.245 239.655 253.32 239.655 365.008 269.357Z" fill="#353A4D" stroke="#353A4D"/>
<path d="M38.4163 249.894C37.1246 250.225 35.9775 250.204 34.9751 249.822C33.9727 250.721 33.053 251.28 32.1953 251.507C31.3479 251.735 30.6452 251.849 30.0975 251.849C29.5498 251.849 29.0745 251.776 28.6611 251.621C27.8241 251.331 27.4004 250.804 27.4004 250.018C27.4004 249.615 27.5037 249.242 27.7208 248.88C28.1548 249.098 28.7025 249.118 29.3638 248.942C31.0999 248.477 32.309 247.402 32.9703 245.705C32.9703 240.834 32.9703 235.963 32.9703 231.103C32.9703 230.182 32.7843 229.562 32.4123 229.22C31.8233 228.641 30.8209 228.176 29.3948 227.845C30.7279 226.873 31.5856 226.087 31.9783 225.508C32.6397 224.556 32.9807 223.594 32.9807 222.612C32.9807 218.413 32.9807 214.204 32.9807 210.005C32.3193 208.65 31.1103 208.195 29.3742 208.671C28.7128 208.847 28.1651 209.168 27.7311 209.623C27.5141 209.385 27.4107 209.064 27.4107 208.681C27.4107 208.288 27.5244 207.895 27.7518 207.502C27.9791 207.099 28.2891 206.727 28.6715 206.386C29.5705 205.579 30.6039 205.031 31.7716 204.72C32.9394 204.41 34.0037 204.462 34.9855 204.855C36.0085 203.935 37.1452 203.314 38.3956 202.993C39.646 202.673 40.7931 202.714 41.8058 203.118C42.9012 202.187 43.9036 201.608 44.813 201.39C45.712 201.173 46.4457 201.07 46.9934 201.09C47.5411 201.111 48.0268 201.194 48.4401 201.359C49.2875 201.68 49.7112 202.228 49.7112 203.004C49.7112 203.407 49.6079 203.779 49.3909 204.121C48.9568 203.883 48.3781 203.852 47.6548 204.028C46.9314 204.203 46.1977 204.576 45.4537 205.134C44.7199 205.703 44.1723 206.417 43.8209 207.285C43.8209 211.474 43.8209 215.673 43.8209 219.861C43.8209 220.833 44.0276 221.516 44.4409 221.888C45.092 222.509 46.084 222.964 47.4171 223.264C45.9807 224.329 45.0713 225.135 44.6786 225.684C44.1102 226.542 43.8209 227.431 43.8209 228.341C43.8209 232.695 43.8209 237.049 43.8209 241.393C45.1126 243.161 46.7351 243.813 48.6882 243.358C53.5037 242.22 56.6142 239.459 57.999 235.012C58.6087 233.047 58.9187 231.299 58.9187 229.779C58.9187 228.259 58.712 227.276 58.2987 226.852C58.7533 226.376 59.2184 226.087 59.7041 225.973C60.1898 225.87 60.6341 225.87 61.0475 225.983C61.4608 226.097 61.8328 226.314 62.1739 226.635C62.8662 227.307 63.2072 228.197 63.2072 229.314C63.2072 230.43 63.1142 231.299 62.9385 231.94C63.8479 232.509 64.3026 233.471 64.3026 234.846C64.3026 236.222 63.9203 237.422 63.1452 238.435C63.7963 239.138 64.1269 239.821 64.1269 240.503C64.1269 241.176 64.0339 241.786 63.8479 242.313C63.6619 242.841 63.4036 243.327 63.0626 243.782C62.3082 244.723 61.4091 245.302 60.3654 245.53C59.8487 245.643 59.3734 245.633 58.9497 245.509C59.0323 245.054 59.0633 244.609 59.0633 244.165C59.0633 243.244 58.65 242.882 57.8233 243.068C57.2136 243.203 56.3662 243.637 55.2812 244.382C53.1937 245.83 50.8169 246.864 48.1508 247.495C45.4847 248.125 43.4075 248.291 41.9195 247.97C40.8654 248.932 39.708 249.573 38.4163 249.894ZM35.8018 242.055C36.7835 241.424 37.3209 239.976 37.4139 237.722C37.5276 235.457 37.5896 232.354 37.5896 228.414C37.5896 224.474 37.5896 221.847 37.5793 220.544C37.5689 219.241 37.5586 218.196 37.5379 217.4C37.4759 215.062 37.2589 213.697 36.8765 213.315C36.4942 212.922 36.1325 212.694 35.8018 212.622C35.8018 219.551 35.6882 223.522 35.4505 224.546C35.1715 225.415 34.5101 226.149 33.456 226.769C34.6341 226.883 35.2955 227.214 35.4505 227.773C35.6882 228.672 35.8018 232.137 35.8018 238.166C35.8018 239.469 35.8018 240.762 35.8018 242.055Z" fill="#353A4D" stroke="#353A4D"/>
<path d="M90.2712 235.539C88.4628 238.228 85.7553 239.883 82.1384 240.535C77.7362 241.331 74.4397 240.648 72.2386 238.435C71.2879 237.484 70.6368 236.356 70.2752 235.033C70.0788 234.236 69.7275 233.667 69.2418 233.316C68.7457 232.964 68.136 232.685 67.4023 232.478C68.8284 231.527 69.8411 230.089 70.4612 228.155C71.1122 226.108 72.1973 224.515 73.7267 223.357C75.3697 222.136 77.1782 221.319 79.1623 220.906C81.1464 220.492 82.6138 220.161 83.5645 219.913C84.5152 219.665 85.3626 219.385 86.0963 219.075C87.4707 218.517 88.5351 217.751 89.3101 216.758C89.3101 215.269 89.3101 213.77 89.3101 212.28C89.3101 210.305 88.9071 208.93 88.1011 208.154C87.295 207.378 86.0756 207.13 84.4429 207.42C82.8101 207.709 81.5907 208.237 80.8157 208.981C80.0303 209.736 79.6376 210.615 79.6376 211.629C79.6376 213.18 80.4333 213.79 82.0144 213.459C81.6941 215.073 80.8674 215.993 79.5136 216.252C79.1209 216.324 78.7283 216.324 78.3562 216.262C78.3562 216.293 78.3562 216.324 78.3562 216.355C78.3562 216.872 78.5939 217.162 79.0693 217.203C78.5732 218.051 77.7362 218.579 76.5685 218.775C75.4007 218.982 74.4914 218.527 73.8403 217.42C73.5407 217.555 73.1996 217.669 72.8173 217.741C72.4349 217.813 72.0009 217.772 71.5359 217.606C71.0709 217.441 70.6988 217.151 70.4198 216.748C71.4119 215.952 72.0112 214.907 72.2283 213.614C72.4659 212.032 73.6853 210.243 75.8864 208.247C78.5422 205.848 81.9318 204.276 86.0653 203.552C92.9166 202.362 97.1019 203.841 98.6209 207.823C99.117 209.157 99.365 210.791 99.365 212.725C99.365 213.532 99.365 214.338 99.365 215.145C99.365 216.117 99.613 216.883 100.099 217.42C100.584 217.968 101.421 218.351 102.589 218.568C101.339 219.334 100.533 219.975 100.171 220.482C99.6337 221.257 99.365 222.095 99.365 222.995C99.365 225.983 99.365 228.972 99.365 231.961C99.9437 233.368 100.77 233.988 101.845 233.833C102.527 233.73 103.075 233.481 103.519 233.078C103.798 233.419 103.933 233.864 103.933 234.433C103.933 235.002 103.654 235.581 103.085 236.181C102.517 236.78 101.669 237.163 100.533 237.339C99.396 237.515 98.3419 237.349 97.3705 236.863C96.5128 237.628 95.7585 238.073 95.0868 238.177C94.4151 238.28 93.8467 238.311 93.361 238.259C92.8753 238.208 92.4206 238.083 92.0073 237.866C91.0669 237.422 90.4882 236.646 90.2712 235.539ZM76.6925 237.484C76.8888 237.308 76.9922 237.111 76.9922 236.894C76.9922 236.594 76.8578 236.201 76.5788 235.715C75.5868 234.071 75.0907 232.664 75.0907 231.485C75.0907 230.306 75.1321 229.458 75.2251 228.921C75.3181 228.383 75.4318 227.917 75.5868 227.524C75.7314 227.131 75.9071 226.769 76.0931 226.459C76.2791 226.149 76.4445 225.87 76.5788 225.621C76.8372 225.115 76.9612 224.773 76.9612 224.608C76.9612 224.442 76.8682 224.308 76.6925 224.225C75.8761 224.753 75.2871 225.322 74.9047 225.911C74.233 226.956 73.737 228.238 73.4166 229.758C73.334 230.193 72.6416 230.834 71.3395 231.692C72.6106 232.023 73.303 232.395 73.4166 232.809C74.0987 235.043 75.1941 236.594 76.6925 237.484ZM81.1567 229.934C81.1567 230.772 81.2497 231.568 81.4254 232.333C81.6011 233.099 81.8698 233.75 82.2314 234.278C83.0272 235.384 84.1432 235.819 85.5899 235.56C86.6853 235.374 87.5844 234.764 88.2974 233.75C88.9691 232.757 89.3101 231.578 89.3101 230.203C89.3101 226.956 89.3101 223.708 89.3101 220.461C88.0391 221.412 86.4063 222.198 84.4222 222.829C82.2418 223.563 81.1567 225.932 81.1567 229.934ZM92.1416 230.151C93.299 229.5 93.8984 227.204 93.9604 223.253C93.9604 222.415 93.9604 221.464 93.9604 220.388C93.9604 219.313 93.9604 218.392 93.95 217.627C93.9397 216.862 93.9294 216.138 93.9087 215.435C93.826 212.942 93.5987 211.474 93.2267 211.05C92.8443 210.626 92.493 210.357 92.1519 210.253C92.1416 216.893 92.1416 223.522 92.1416 230.151Z" fill="#353A4D" stroke="#353A4D"/>
<path d="M115.435 234.329C114.515 235.084 113.472 235.539 112.294 235.694C111.116 235.85 110.268 235.694 109.731 235.219C109.204 234.743 108.935 234.257 108.935 233.76C108.935 233.099 109.049 232.612 109.266 232.282C109.7 232.561 110.258 232.654 110.94 232.561C112.221 232.395 113.048 231.671 113.42 230.379C113.42 227.276 113.42 224.163 113.42 221.061C113.42 220.181 113.234 219.571 112.852 219.22C112.314 218.672 111.281 218.134 109.772 217.596C111.167 216.769 112.056 216.148 112.438 215.714C113.1 214.969 113.43 214.121 113.43 213.17C113.43 211.711 113.43 210.264 113.43 208.805C113.43 207.109 112.852 206.272 111.694 206.282C111.353 206.282 110.93 206.323 110.413 206.396C109.896 206.468 109.41 206.696 108.976 207.099C108.697 206.758 108.553 206.385 108.553 205.972C108.553 205.568 108.656 205.093 108.863 204.555C109.069 204.017 109.39 203.49 109.803 202.983C110.857 201.762 112.077 201.059 113.472 200.883C114.856 200.708 116.014 200.78 116.934 201.101C118.029 199.725 119.207 198.97 120.468 198.825C122.524 198.587 123.558 199.539 123.558 201.69C123.547 202.517 123.537 203.345 123.527 204.172C125.201 201.318 127.546 199.291 130.543 198.132C131.525 197.75 132.538 197.512 133.571 197.408C135.927 197.181 137.891 197.564 139.451 198.567C141.011 199.57 142.138 201.08 142.82 203.117C144.318 199.911 146.757 197.688 150.126 196.488C151.232 196.095 152.472 195.847 153.867 195.754C155.262 195.661 156.574 195.847 157.804 196.302C159.034 196.757 160.088 197.45 160.945 198.381C162.692 200.315 163.56 203.086 163.56 206.665C163.529 207.337 163.498 207.999 163.467 208.671C163.467 209.622 163.674 210.305 164.097 210.698C164.717 211.287 165.73 211.867 167.135 212.435C165.606 213.242 164.666 213.852 164.304 214.266C163.746 214.907 163.457 215.672 163.457 216.551C163.457 219.654 163.457 222.767 163.457 225.87C163.839 227.09 164.666 227.659 165.957 227.607C166.443 227.586 166.898 227.4 167.342 227.038C167.466 227.193 167.6 227.338 167.745 227.483C167.89 227.628 167.972 227.948 167.972 228.445C167.972 228.941 167.704 229.479 167.177 230.048C166.65 230.616 165.802 230.927 164.645 230.989C163.488 231.041 162.423 230.782 161.441 230.192C160.542 230.875 159.53 231.247 158.414 231.32C157.298 231.382 156.326 231.144 155.479 230.596C154.693 231.247 153.815 231.599 152.844 231.661C151.872 231.723 151.097 231.527 150.519 231.072C149.94 230.617 149.651 229.924 149.651 228.982C149.651 228.548 149.806 228.186 150.105 227.907C150.57 228.238 151.025 228.383 151.49 228.352C152.368 228.29 152.999 227.762 153.381 226.759C153.381 220.823 153.381 214.886 153.381 208.95C153.381 204.276 151.666 202.042 148.245 202.29C147.263 202.362 146.302 203.003 145.362 204.213C144.422 205.403 143.812 206.809 143.533 208.423C143.502 214.783 143.471 221.133 143.44 227.493C143.822 228.434 144.453 228.879 145.331 228.807C145.796 228.776 146.251 228.558 146.716 228.165C147.015 228.403 147.17 228.858 147.17 229.551C147.17 230.234 146.881 230.854 146.302 231.392C145.724 231.93 144.938 232.24 143.957 232.323C142.975 232.406 142.096 232.178 141.311 231.651C140.453 232.323 139.472 232.706 138.387 232.799C137.291 232.892 136.33 232.685 135.493 232.168C134.708 232.84 133.84 233.223 132.868 233.316C131.897 233.409 131.122 233.243 130.543 232.799C129.965 232.364 129.675 231.671 129.675 230.741C129.675 230.306 129.83 229.934 130.13 229.644C130.585 229.955 131.05 230.089 131.515 230.037C132.393 229.944 133.023 229.396 133.406 228.383C133.406 222.446 133.406 216.51 133.406 210.574C133.406 206.851 132.496 204.72 130.678 204.182C130.099 204.007 129.458 203.945 128.755 204.027C127.412 204.172 126.255 204.875 125.273 206.137C124.353 207.316 123.775 208.733 123.537 210.398C123.516 216.748 123.496 223.088 123.475 229.438C123.857 230.368 124.488 230.782 125.366 230.689C125.821 230.637 126.286 230.41 126.74 229.996C127.102 230.255 127.278 230.72 127.278 231.382C127.278 232.054 126.968 232.664 126.368 233.233C125.759 233.802 124.963 234.133 123.971 234.247C122.979 234.36 122.111 234.174 121.346 233.678C120.55 234.35 119.6 234.753 118.504 234.888C117.388 235.043 116.375 234.846 115.435 234.329ZM116.303 226.656C117.244 225.942 117.771 224.629 117.895 222.726C117.977 221.278 118.019 219.995 118.019 218.858C118.019 217.596 118.019 216.324 118.019 215.062C118.019 212.115 117.936 210.233 117.781 209.416C117.502 208.019 117.016 207.13 116.313 206.758C116.313 207.409 116.313 208.05 116.313 208.702C116.313 212.063 116.241 214.049 116.086 214.659C115.941 215.269 115.693 215.734 115.363 216.076C115.032 216.417 114.546 216.738 113.916 217.038C115.115 217.306 115.797 217.71 115.952 218.268C116.189 219.199 116.313 221.34 116.313 224.701C116.303 225.363 116.303 226.014 116.303 226.656ZM135.369 204.669C135.969 206.065 136.268 208.878 136.268 213.097C136.268 216.893 136.268 220.688 136.268 224.484C137.271 224.008 137.818 222.664 137.922 220.419C138.046 218.175 138.097 216.2 138.097 214.473C138.097 212.746 138.046 211.318 137.942 210.17C137.839 209.022 137.684 208.071 137.467 207.316C137.074 205.961 136.372 205.072 135.369 204.669ZM155.386 203.107C155.985 204.524 156.285 207.347 156.285 211.567C156.285 215.362 156.285 219.158 156.285 222.953C157.287 222.519 157.835 221.174 157.938 218.94C158.062 216.707 158.114 214.721 158.114 213.004C158.114 211.277 158.062 209.85 157.959 208.702C157.856 207.554 157.701 206.592 157.473 205.837C157.091 204.441 156.388 203.541 155.386 203.107Z" fill="#353A4D" stroke="#353A4D"/>
<path d="M185.952 227.648C183.761 229.469 181.539 230.41 179.266 230.472C177.24 230.523 175.99 230.306 175.535 229.799C175.98 229.251 176.217 228.434 176.259 227.359C176.3 226.283 176.321 225.28 176.321 224.339C176.321 221.567 176.321 218.806 176.321 216.034C176.321 215.155 176.135 214.524 175.752 214.142C175.215 213.542 174.171 212.89 172.652 212.208C174.058 211.525 174.946 210.988 175.329 210.595C175.99 209.912 176.321 209.116 176.321 208.175C176.321 202.538 176.321 196.902 176.321 191.265C176.321 189.001 175.391 187.884 173.52 187.946C172.838 187.966 172.28 188.163 171.836 188.515C171.557 188.142 171.412 187.76 171.412 187.346C171.412 186.943 171.515 186.539 171.732 186.157C171.939 185.774 172.259 185.412 172.683 185.081C173.644 184.367 174.853 183.995 176.3 183.943C177.747 183.902 178.884 183.964 179.7 184.119C180.909 182.713 182.139 181.999 183.399 181.978C185.466 181.937 186.5 183.002 186.5 185.153C186.5 189.414 186.5 193.675 186.5 197.936C188.05 196.385 190.116 195.288 192.7 194.689C193.485 194.502 194.498 194.409 195.738 194.42C196.978 194.42 198.291 194.606 199.655 194.978C201.019 195.351 202.207 196.002 203.209 196.923C205.214 198.784 206.454 202.073 206.909 206.778C207.105 209.229 208.335 210.988 210.588 212.053C209.162 212.715 208.263 213.283 207.88 213.759C207.353 214.421 207.033 215.228 206.919 216.158C206.341 220.947 205.09 224.473 203.189 226.738C201.101 229.2 198.074 230.42 194.126 230.42C192.101 230.42 190.013 229.893 187.864 228.817C187.14 228.486 186.51 228.093 185.952 227.648ZM183.596 192.434C182.769 192.827 182.273 193.551 182.087 194.616C181.87 195.94 181.756 198.112 181.756 201.132C181.756 202.662 181.756 204.203 181.756 205.734C181.756 206.054 181.756 206.375 181.756 206.685C181.777 207.761 181.798 209.219 181.818 211.06C181.839 212.901 181.86 214.318 181.88 215.321C181.922 217.472 181.984 218.837 182.056 219.406C182.139 219.985 182.325 220.502 182.614 220.967C182.903 221.433 183.234 221.733 183.596 221.857C183.596 212.053 183.596 202.249 183.596 192.434ZM186.489 220.264C186.489 221.878 187.037 223.253 188.143 224.401C189.186 225.528 190.375 226.087 191.698 226.076C195.046 226.056 196.73 223.677 196.73 218.899C196.73 214.535 196.73 210.181 196.73 205.817C196.73 202.073 195.852 199.849 194.105 199.156C193.547 198.919 192.907 198.805 192.204 198.805C189.631 198.815 187.895 200.066 186.996 202.528C186.655 203.428 186.479 204.545 186.479 205.879C186.489 210.667 186.489 215.466 186.489 220.264ZM199.624 221.774C200.626 221.402 201.184 220.109 201.277 217.875C201.401 215.641 201.453 213.987 201.453 212.901C201.453 211.815 201.442 210.905 201.442 210.181C201.432 209.457 201.422 208.702 201.401 207.926C201.318 205.02 201.091 203.324 200.709 202.838C200.326 202.352 199.965 202.031 199.624 201.876C199.624 208.505 199.624 215.145 199.624 221.774Z" fill="#353A4D" stroke="#353A4D"/>
<path d="M220.137 231.33C218.69 229.955 217.967 228.3 217.967 226.345C217.967 223.439 219.703 221.102 223.175 219.385C220.912 217.71 219.248 215.155 218.205 211.712C217.864 210.646 217.523 209.912 217.182 209.529C216.675 208.919 215.818 208.288 214.588 207.647C215.59 207.223 216.355 206.654 216.892 205.961C217.419 205.258 217.884 204.348 218.277 203.2C218.67 202.063 219.217 200.977 219.931 199.942C220.644 198.919 221.563 198.029 222.69 197.274C225.159 195.671 228.332 194.968 232.228 195.195C233.468 195.268 234.76 195.475 236.103 195.826C236.382 193.675 237.353 191.896 239.017 190.5C240.66 189.083 242.582 188.453 244.783 188.628C247.367 188.835 249.537 189.683 251.304 191.172C252.265 191.979 253.226 192.331 254.187 192.238C254.27 193.841 253.65 194.802 252.327 195.144C252.11 197.812 250.932 199.053 248.814 198.867C247.977 198.794 247.46 198.691 247.284 198.557C247.584 198.319 247.739 197.998 247.739 197.595C247.739 197.191 247.563 196.819 247.233 196.488C246.809 197.233 245.869 197.543 244.411 197.429C243.605 197.367 242.975 196.943 242.52 196.147C243.285 195.961 243.884 195.651 244.318 195.195C244.763 194.74 244.98 194.306 244.98 193.892C244.98 192.796 244.401 192.207 243.233 192.114C240.991 191.948 239.679 193.582 239.296 197.026C242.944 198.836 245.269 201.463 246.272 204.865C246.933 207.171 248.152 208.785 249.94 209.716C248.38 210.357 247.346 211.143 246.85 212.053C246.654 212.415 246.468 212.849 246.313 213.356C245.228 216.655 243.543 219.013 241.239 220.45C238.935 221.888 235.969 222.488 232.341 222.271C230.037 222.136 228.032 221.754 226.327 221.112C225.666 221.495 225.335 221.95 225.335 222.457C225.335 222.964 225.438 223.398 225.635 223.76C225.831 224.122 226.193 224.453 226.72 224.753C227.743 225.342 229.686 225.921 232.559 226.5C233.861 226.831 235.204 226.087 236.589 224.246C236.671 225.27 236.899 226.045 237.281 226.573C237.663 227.111 238.087 227.421 238.542 227.514C244.07 228.714 247.646 230.813 249.268 233.719C249.826 234.702 250.105 235.932 250.105 237.39C250.105 238.859 249.63 240.235 248.69 241.538C247.749 242.841 246.478 243.916 244.876 244.764C241.549 246.491 237.467 247.195 232.61 246.905C226.916 246.564 222.566 245.457 219.548 243.492C216.954 241.775 215.663 239.676 215.663 237.173C215.663 235.498 216.52 233.947 218.225 232.509C218.773 232.054 219.424 231.661 220.137 231.33ZM223.062 216.159C223.465 215.879 223.661 215.538 223.661 215.135C223.661 214.618 223.589 214.111 223.454 213.635C222.917 211.774 222.638 209.881 222.638 207.957C222.638 206.044 222.907 204.183 223.454 202.373C223.599 201.897 223.661 201.525 223.661 201.246C223.661 201.008 223.661 200.77 223.661 200.532C223.661 200.356 223.578 200.201 223.423 200.077C222.597 201.039 222.008 202.145 221.636 203.407C221.264 204.669 220.964 205.775 220.747 206.747C220.664 207.047 220.106 207.399 219.062 207.813C220.127 208.371 220.685 208.785 220.747 209.043C220.943 209.891 221.15 210.729 221.346 211.577C221.863 213.708 222.442 215.238 223.062 216.159ZM223.155 233.368C221.729 233.926 221.016 235.053 221.016 236.739C221.016 238.094 222.049 239.355 224.116 240.545C226.42 241.889 229.407 242.655 233.055 242.872C237.55 243.141 240.464 242.592 241.807 241.155C242.19 240.762 242.376 240.338 242.376 239.873C242.376 239.407 242.148 238.973 241.704 238.58C241.249 238.187 240.671 237.856 239.947 237.587C238.883 237.153 237.209 236.729 234.925 236.325C233.819 236.139 232.455 236.863 230.833 238.497C230.833 237.38 230.647 236.563 230.275 236.046C229.903 235.529 229.541 235.239 229.179 235.177C226.844 234.764 224.839 234.164 223.155 233.368ZM221.522 226.728C221.346 226.904 221.253 227.152 221.253 227.493C221.336 229.655 224.426 231.382 230.523 232.809C231.225 233.006 231.721 233.792 232.031 235.167C232.135 234.733 232.527 234.391 233.22 234.143C233.912 233.895 234.377 233.792 234.615 233.823C237.643 234.371 239.689 234.857 240.753 235.25C242.634 235.963 244.008 236.925 244.866 238.125C245.104 237.866 245.228 237.515 245.228 237.08C245.228 236.646 245.011 236.181 244.566 235.694C244.122 235.208 243.409 234.764 242.407 234.35C240.681 233.605 238.345 232.954 235.4 232.426C232.455 231.899 230.378 231.485 229.19 231.165C227.991 230.844 226.896 230.472 225.893 230.037C223.702 229.096 222.245 227.99 221.522 226.728ZM229.407 216.686C229.851 217.327 230.285 217.741 230.729 217.937C231.174 218.134 231.69 218.248 232.279 218.279C232.869 218.31 233.385 218.258 233.83 218.113C234.274 217.968 234.646 217.7 234.946 217.307C235.524 216.531 235.814 215.176 235.814 213.242C235.814 210.481 235.814 207.73 235.814 204.969C235.814 203.035 235.597 201.752 235.152 201.101C234.708 200.46 234.274 200.036 233.83 199.839C233.385 199.643 232.869 199.529 232.279 199.498C231.69 199.467 231.174 199.518 230.729 199.663C230.285 199.808 229.923 200.067 229.644 200.46C229.045 201.266 228.745 202.631 228.745 204.565C228.745 207.327 228.745 210.078 228.745 212.839C228.745 214.752 228.973 216.045 229.407 216.686ZM238.738 217.048C239.658 216.789 240.195 215.848 240.33 214.204C240.474 212.663 240.536 210.926 240.536 208.992C240.536 206.003 240.454 204.09 240.299 203.242C240.061 202.104 239.534 201.349 238.738 200.956C238.738 206.313 238.738 211.681 238.738 217.048Z" fill="#353A4D" stroke="#353A4D"/>
<path d="M258.92 225.001C258.186 223.17 257.742 221.629 257.587 220.357C257.421 219.085 257.287 218.268 257.184 217.896C257.07 217.524 256.884 217.172 256.626 216.831C256.109 216.127 255.158 215.362 253.773 214.555C255.51 213.945 256.626 212.808 257.101 211.143C257.246 210.677 257.349 210.212 257.432 209.736C257.948 206.22 259.684 203.407 262.619 201.318C265.554 199.229 268.985 198.422 272.901 198.908C276.973 199.415 280.476 201.101 283.401 203.934C286.253 206.706 287.937 209.922 288.454 213.563C288.629 214.845 288.898 215.796 289.26 216.427C289.932 217.586 290.882 218.537 292.091 219.282C290.738 219.726 289.859 220.171 289.466 220.616C288.929 221.236 288.588 222.012 288.454 222.943C287.813 227.545 286.18 230.875 283.556 232.943C280.92 235.012 277.417 235.756 273.025 235.208C268.313 234.629 264.603 232.85 261.906 229.841C260.635 228.445 259.643 226.831 258.92 225.001ZM262.981 225.394C263.26 225.208 263.405 224.97 263.405 224.691C263.405 224.256 263.312 223.687 263.136 222.984C262.32 219.768 261.906 217.555 261.906 216.324C261.906 215.104 261.947 214.152 262.03 213.47C262.113 212.787 262.206 212.115 262.33 211.422C262.588 210.098 262.857 208.929 263.136 207.926C263.312 207.264 263.405 206.82 263.405 206.582C263.405 206.106 263.26 205.744 262.981 205.496C262.144 206.406 261.503 207.668 261.059 209.291C260.614 210.915 260.263 212.353 259.974 213.604C259.87 214.131 259.281 214.586 258.207 214.979C259.292 215.59 259.881 216.148 259.974 216.655C260.718 220.099 261.327 222.302 261.803 223.263C262.289 224.235 262.681 224.949 262.981 225.394ZM272.963 203.128C269.574 202.714 267.869 205.01 267.869 209.984C267.869 214.4 267.869 218.806 267.869 223.222C267.869 228 269.553 230.585 272.932 230.999C276.343 231.423 278.048 229.262 278.048 224.484C278.048 220.068 278.048 215.662 278.048 211.246C278.048 206.272 276.353 203.552 272.963 203.128ZM280.92 227.586C281.912 227.348 282.46 226.118 282.563 223.905C282.687 221.691 282.739 220.037 282.739 218.951C282.739 217.865 282.729 216.955 282.729 216.231C282.718 215.507 282.708 214.752 282.687 213.966C282.605 211.05 282.377 209.322 281.995 208.795C281.613 208.268 281.261 207.895 280.92 207.688C280.92 214.328 280.92 220.957 280.92 227.586Z" fill="#353A4D" stroke="#353A4D"/>
<path d="M318.817 239.014C317.019 241.051 314.311 241.713 310.705 241.041C306.302 240.224 302.996 238.332 300.794 235.312C299.844 234.019 299.182 232.643 298.831 231.185C298.635 230.317 298.283 229.613 297.787 229.086C297.291 228.558 296.671 228.052 295.938 227.576C297.374 227.152 298.397 226.087 299.007 224.37C299.658 222.57 300.753 221.36 302.283 220.771C303.926 220.161 305.744 220.006 307.728 220.306C309.713 220.616 311.18 220.823 312.131 220.926C313.081 221.03 313.918 221.061 314.652 221.019C316.016 220.967 317.091 220.585 317.856 219.882C317.856 218.392 317.856 216.893 317.856 215.404C317.856 213.428 317.453 211.908 316.657 210.832C315.851 209.757 314.642 209.064 312.999 208.754C311.366 208.443 310.157 208.526 309.372 208.992C308.586 209.457 308.193 210.202 308.193 211.215C308.193 212.766 308.989 213.666 310.57 213.925C310.25 215.424 309.423 216.045 308.069 215.796C307.677 215.724 307.284 215.59 306.912 215.383C306.912 215.414 306.912 215.445 306.912 215.476C306.912 215.993 307.15 216.365 307.625 216.593C307.129 217.265 306.292 217.482 305.124 217.255C303.957 217.027 303.037 216.241 302.386 214.897C302.086 214.928 301.745 214.907 301.352 214.845C300.97 214.783 300.536 214.576 300.071 214.245C299.606 213.904 299.234 213.49 298.955 212.983C299.947 212.549 300.557 211.732 300.774 210.512C301.011 209.023 302.231 207.668 304.442 206.478C307.098 205.051 310.498 204.72 314.611 205.506C321.441 206.82 325.596 209.829 327.104 214.369C327.6 215.89 327.848 217.617 327.848 219.551C327.848 220.357 327.848 221.164 327.848 221.971C327.848 222.943 328.086 223.791 328.572 224.515C329.058 225.239 329.884 225.921 331.042 226.573C329.802 226.883 328.995 227.224 328.644 227.607C328.107 228.186 327.848 228.931 327.848 229.82C327.848 232.809 327.848 235.798 327.848 238.787C328.417 240.4 329.244 241.32 330.308 241.558C330.98 241.703 331.527 241.662 331.961 241.413C332.24 241.848 332.375 242.355 332.375 242.923C332.375 243.492 332.096 243.968 331.527 244.361C330.969 244.754 330.122 244.826 328.995 244.588C327.869 244.351 326.825 243.802 325.854 242.965C325.007 243.42 324.252 243.585 323.591 243.451C322.93 243.316 322.351 243.13 321.875 242.903C321.39 242.675 320.945 242.375 320.522 242.013C319.602 241.176 319.034 240.193 318.817 239.014ZM305.259 235.994C305.455 235.891 305.558 235.725 305.558 235.508C305.558 235.208 305.414 234.764 305.145 234.184C304.153 232.178 303.657 230.585 303.657 229.417C303.657 228.238 303.698 227.4 303.791 226.904C303.884 226.397 303.998 225.983 304.153 225.632C304.298 225.29 304.473 224.99 304.659 224.753C304.845 224.504 305.011 224.287 305.155 224.091C305.414 223.677 305.538 223.387 305.538 223.222C305.538 223.057 305.445 222.891 305.269 222.746C304.453 222.984 303.864 223.325 303.481 223.78C302.81 224.577 302.314 225.683 301.993 227.08C301.91 227.483 301.218 227.876 299.906 228.248C301.177 229.034 301.869 229.665 301.993 230.12C302.655 232.592 303.75 234.546 305.259 235.994ZM309.723 230.068C309.723 230.906 309.816 231.733 309.992 232.571C310.167 233.398 310.436 234.143 310.798 234.815C311.593 236.222 312.709 237.049 314.156 237.328C315.241 237.535 316.151 237.266 316.864 236.511C317.535 235.767 317.876 234.712 317.876 233.336C317.876 230.089 317.876 226.842 317.876 223.594C316.605 224.08 314.983 224.277 313.009 224.173C310.808 224.101 309.723 226.066 309.723 230.068ZM320.687 234.309C321.834 234.081 322.434 232.002 322.496 228.072C322.496 227.235 322.496 226.283 322.496 225.208C322.496 224.132 322.496 223.212 322.485 222.436C322.475 221.671 322.465 220.936 322.444 220.233C322.361 217.71 322.134 216.158 321.762 215.6C321.39 215.031 321.028 214.638 320.697 214.411C320.687 221.04 320.687 227.679 320.687 234.309Z" fill="#353A4D" stroke="#353A4D"/>
<path d="M356.865 246.253C357.237 245.964 357.526 245.54 357.743 244.992C357.96 244.443 358.064 243.833 358.064 243.161C358.064 242.499 358.022 241.868 357.95 241.289C358.084 241.031 358.456 240.896 359.066 240.886C359.676 240.875 360.068 240.907 360.265 240.958C361.009 241.155 361.608 241.599 362.053 242.292C362.497 242.985 362.724 243.833 362.724 244.836C362.724 245.84 362.435 246.75 361.856 247.577C361.278 248.394 360.513 249.056 359.552 249.552C357.423 250.669 354.932 250.866 352.091 250.142C346.676 248.766 343.079 245.829 341.312 241.248C340.661 239.562 340.341 237.566 340.341 235.249C340.341 234.039 340.341 232.819 340.341 231.609C340.341 230.678 339.328 229.448 337.303 227.948C339.328 227.235 340.341 225.9 340.341 223.904C340.341 222.725 340.341 221.557 340.341 220.378C340.341 218.113 339.421 216.758 337.592 216.334C336.92 216.179 336.373 216.22 335.939 216.458C335.66 216.014 335.525 215.59 335.525 215.186C335.525 214.783 335.598 214.348 335.742 213.893C335.887 213.438 336.156 213.056 336.528 212.746C337.479 211.928 338.936 211.908 340.93 212.694C340.93 212.373 340.93 212.053 340.93 211.742C340.93 209.653 341.447 207.936 342.49 206.592C343.41 205.382 344.237 204.865 344.95 205.03C345.663 205.206 346.221 205.589 346.614 206.189C346.944 204.699 347.389 203.676 347.936 203.107C348.484 202.548 349.27 202.393 350.293 202.652C350.293 206.809 350.293 210.956 350.293 215.103C353.475 215.91 356.669 216.737 359.841 217.586C359.996 217.947 360.079 218.496 360.079 219.251C360.079 219.995 359.8 220.523 359.231 220.812C358.663 221.112 357.981 221.153 357.175 220.936C354.881 220.336 352.587 219.737 350.293 219.157C350.293 225.9 350.293 232.643 350.293 239.376C350.293 242.84 351.068 245.064 352.618 246.057C353.072 246.336 353.558 246.533 354.075 246.667C354.591 246.801 355.098 246.832 355.573 246.77C356.069 246.729 356.493 246.543 356.865 246.253ZM343.172 239.272C344.092 238.9 344.619 237.783 344.733 235.911C344.816 234.577 344.857 233.533 344.867 232.778C344.878 232.023 344.888 231.413 344.898 230.947C344.909 230.482 344.909 230.12 344.909 229.861C344.909 229.458 344.909 229.065 344.909 228.662C344.909 228.083 344.909 227.338 344.898 226.428C344.888 225.518 344.878 224.535 344.867 223.46C344.857 222.394 344.836 221.371 344.795 220.378C344.733 218.01 344.65 216.562 344.526 216.014C344.289 214.804 343.834 213.893 343.172 213.294C343.172 216.396 343.172 219.509 343.172 222.612C343.172 225.383 343.131 226.831 343.038 226.976C342.945 227.11 342.873 227.286 342.821 227.493C342.645 228.052 341.974 228.382 340.816 228.507C341.994 229.199 342.666 229.872 342.821 230.503C343.059 231.516 343.172 233.781 343.172 237.308C343.172 237.98 343.172 238.621 343.172 239.272Z" fill="#353A4D" stroke="#353A4D"/>
<path d="M214.661 111.064C212.098 122.481 216.511 131.996 212.594 148.191C212.326 149.318 213.824 149.97 214.444 148.987C216.904 145.109 219.818 140.176 220.81 137.167C222.412 132.316 225.894 110.309 226.721 105.024C226.866 104.124 227.486 103.431 228.24 103.421C228.25 103.421 228.25 103.421 228.261 103.421C228.271 103.431 217.544 98.1879 214.661 111.064ZM221.802 104.91C222.153 104.91 222.432 105.251 222.432 105.675C222.432 106.099 222.153 106.441 221.802 106.441C221.451 106.441 221.172 106.099 221.172 105.675C221.172 105.251 221.461 104.91 221.802 104.91ZM216.811 109.781C216.811 109.781 223.435 113.153 224.21 105.675C224.22 105.675 224.737 114.208 216.811 109.781Z" fill="#353A4D" stroke="#353A4D"/>
<path d="M214.992 108.096C214.992 108.096 219.043 90.8039 227.548 98.2397C227.538 98.2294 219.322 94.951 214.992 108.096Z" fill="#353A4D" stroke="#353A4D"/>
<path d="M189.456 142.338C189.456 142.338 187.719 144.375 195.873 149.143C195.873 149.143 196.452 150.653 196.545 152.359C196.638 150.663 197.216 149.143 197.216 149.143C205.37 144.365 203.634 142.338 203.634 142.338C205.504 140.518 207.912 137.56 206.103 134.902C204.295 132.234 199.355 141.573 198.415 141.221C197.475 140.869 196.545 140.869 196.545 140.869C196.545 140.869 195.604 140.869 194.674 141.221C193.734 141.573 188.794 132.234 186.986 134.902C185.177 137.56 187.585 140.507 189.456 142.338ZM204.099 138.935C204.832 139.535 202.9 139.845 198.177 145.213C198.188 145.213 203.365 138.336 204.099 138.935Z" fill="#353A4D" stroke="#353A4D"/>
<path d="M211.106 135.584C211.715 141.076 212.087 155.803 196.545 152.959C181.003 155.813 181.375 141.076 181.985 135.584C179.794 152.793 188.268 154.665 191.027 154.831C191.533 154.862 192.029 154.996 192.494 155.224C194.096 156.041 195.512 156.32 196.545 156.32C197.579 156.32 198.994 156.041 200.596 155.224C201.051 154.986 201.547 154.862 202.053 154.831C204.823 154.665 213.296 152.793 211.106 135.584Z" fill="#353A4D" stroke="#353A4D"/>
<path d="M167.455 102.315C167.455 102.315 168.995 102.201 169.212 102.78C169.212 102.78 171.186 114.404 176.342 106.689C176.342 106.689 180.507 105.883 186.872 120.154C186.862 120.154 177.758 95.9853 167.455 102.315ZM173.614 103.132C173.883 103.132 174.089 103.359 174.089 103.638C174.089 103.918 173.872 104.145 173.614 104.145C173.345 104.145 173.139 103.918 173.139 103.638C173.128 103.359 173.345 103.132 173.614 103.132ZM170.225 104.052C170.132 103.804 170.09 103.638 170.09 103.638C170.132 103.783 170.173 103.918 170.225 104.052C170.7 105.396 172.415 109.326 175.133 105.593C175.133 105.593 172.498 110.898 170.225 104.052Z" fill="#353A4D"/>
<path d="M170.225 104.052C170.132 103.804 170.09 103.638 170.09 103.638C170.132 103.783 170.173 103.918 170.225 104.052ZM170.225 104.052C170.7 105.396 172.415 109.326 175.133 105.593C175.133 105.593 172.498 110.898 170.225 104.052ZM167.455 102.315C167.455 102.315 168.995 102.201 169.212 102.78C169.212 102.78 171.186 114.404 176.342 106.689C176.342 106.689 180.507 105.883 186.872 120.154C186.862 120.154 177.758 95.9853 167.455 102.315ZM173.614 103.132C173.883 103.132 174.089 103.359 174.089 103.638C174.089 103.918 173.872 104.145 173.614 104.145C173.345 104.145 173.139 103.918 173.139 103.638C173.128 103.359 173.345 103.132 173.614 103.132Z" stroke="#353A4D"/>
<path d="M170.225 104.054C170.183 103.919 170.131 103.784 170.09 103.638C170.09 103.638 170.131 103.805 170.225 104.054Z" fill="#353A4D" stroke="#353A4D"/>
<path d="M170.225 104.052C172.498 110.898 175.133 105.593 175.133 105.593C172.405 109.326 170.7 105.396 170.225 104.052Z" fill="#353A4D" stroke="#353A4D"/>
<path d="M165.274 104.311C165.274 104.311 164.623 112.925 168.581 116.286C172.539 119.658 173.335 129.907 173.335 129.907C173.335 129.907 172.932 118.82 170.793 116.855C168.664 114.89 165.45 109.326 165.274 104.311Z" fill="#353A4D" stroke="#353A4D"/>
<path d="M174.544 129.907C174.544 129.907 173.077 146.609 181.23 147.178C181.23 147.178 175.485 142.545 174.544 129.907Z" fill="#353A4D" stroke="#353A4D"/>
<path d="M182.449 150.691C182.439 150.651 182.439 150.62 182.439 150.62C182.45 150.64 182.449 150.661 182.449 150.691Z" fill="#353A4D" stroke="#353A4D"/>
<path d="M196.545 163.62C207.654 163.62 210.423 151.8 210.64 150.683C207.767 167.633 196.545 165.771 196.545 165.771C196.545 165.771 185.322 167.633 182.449 150.683C182.666 151.8 185.446 163.62 196.545 163.62Z" fill="#353A4D" stroke="#353A4D"/>
<path d="M210.641 150.693C210.641 150.662 210.651 150.642 210.651 150.622C210.651 150.611 210.651 150.642 210.641 150.693Z" fill="#353A4D" stroke="#353A4D"/>
<path d="M200.792 73.0677C204.957 73.2229 207.612 71.8474 209.059 70.7511C209.7 70.2651 210.62 70.5236 210.961 71.2476C212.49 74.5053 215.931 74.3294 217.926 73.8951C218.701 73.7296 219.434 74.2571 219.527 75.043C219.713 76.5943 220.271 79.1384 221.987 81.9617C223.475 84.4024 228.745 87.3809 228.745 87.3809C228.745 87.3809 223.671 84.5783 219.465 85.902C217.729 86.4398 215.683 87.7325 213.472 91.3212C210.341 96.4197 208.274 107.093 207.034 115.935C206.806 117.528 204.492 117.424 204.399 115.821C204.027 108.913 203.82 100.422 204.254 92.2416C204.719 83.482 201.95 78.1042 199.707 75.2292C199.004 74.3294 199.655 73.0264 200.792 73.0677Z" fill="#353A4D" stroke="#353A4D"/>
<path d="M243.729 106.12C252.471 107.227 262.681 98.0845 254.724 96.9158C252.823 96.6366 250.435 99.6564 242.303 94.5475C231.907 88.0011 231.752 89.7178 231.752 89.7178C231.752 89.7178 231.431 89.2835 237.353 93.141C243.718 97.2881 246.095 99.8943 248.968 100.06C248.968 100.06 243.708 110.546 229.127 96.709C229.127 96.709 231.845 104.61 243.729 106.12Z" fill="#353A4D" stroke="#353A4D"/>
<path d="M219.756 71.7335C246.076 49.3329 257.185 71.3199 257.185 71.3199C247.14 39.8597 223.486 56.6447 213.194 65.8076C211.106 67.6588 211.54 71.0303 214.041 72.2816L214.299 72.4161C216.087 73.3055 218.226 73.0366 219.756 71.7335Z" fill="#353A4D" stroke="#353A4D"/>
<path d="M193.693 165.276C193.693 165.276 189.405 171.368 180.693 174.274C180.693 174.274 198.819 167.314 199.429 164.987" fill="#353A4D"/>
<path d="M193.693 165.276C193.693 165.276 189.405 171.368 180.693 174.274C180.693 174.274 198.819 167.314 199.429 164.987" stroke="#353A4D"/>
<path d="M196.649 166.145C196.649 166.145 194.345 171.637 188.041 175.38C188.041 175.38 201 166.848 201.072 164.935" fill="#353A4D"/>
<path d="M196.649 166.145C196.649 166.145 194.345 171.637 188.041 175.38C188.041 175.38 201 166.848 201.072 164.935" stroke="#353A4D"/>
<path d="M200.131 165.214C200.131 165.214 198.818 171.026 193.279 175.825C193.279 175.825 204.543 165.152 204.285 163.249" fill="#353A4D"/>
<path d="M200.131 165.214C200.131 165.214 198.818 171.026 193.279 175.825C193.279 175.825 204.543 165.152 204.285 163.249" stroke="#353A4D"/>
<path d="M162.165 89.8731C162.103 89.7387 160.677 86.6154 162.031 84.5988C162.702 83.5853 163.932 83.0578 165.668 83.0165C165.193 81.8375 164.407 79.3347 165.565 77.9592C166.392 76.9871 167.973 76.801 170.267 77.4008C170.37 76.5114 170.742 74.805 172.106 74.0397C173.336 73.3571 175.01 73.626 177.097 74.8463C177.531 73.9673 178.637 72.1471 180.559 71.6507C182.037 71.268 183.649 71.7438 185.365 73.0675C185.819 71.7334 187.09 68.7549 189.364 68.3309C191.048 68.0207 192.867 69.179 194.758 71.7851L194.055 72.3022C192.381 69.9856 190.852 68.9411 189.519 69.1893C187.576 69.5513 186.326 72.7262 186.005 73.9259C185.964 74.0707 185.861 74.1845 185.716 74.2258C185.571 74.2672 185.416 74.2362 185.303 74.1431C183.628 72.7055 182.109 72.1574 180.776 72.4987C178.699 73.0365 177.707 75.6013 177.697 75.6323C177.655 75.7564 177.552 75.8495 177.428 75.8909C177.304 75.9322 177.17 75.9219 177.056 75.8495C175.082 74.6188 173.512 74.2568 172.52 74.805C171.114 75.5806 171.093 77.9489 171.093 77.9696C171.093 78.104 171.031 78.2385 170.918 78.3212C170.804 78.4039 170.659 78.4246 170.535 78.3936C168.345 77.7317 166.857 77.7834 166.226 78.5281C165.265 79.6657 166.257 82.3339 166.722 83.275C166.795 83.4094 166.784 83.5749 166.702 83.7093C166.619 83.8438 166.474 83.9058 166.319 83.9058C164.531 83.8231 163.333 84.2161 162.754 85.0848C161.679 86.6878 162.94 89.4698 162.961 89.5008L162.165 89.8731Z" fill="#353A4D" stroke="#353A4D"/>
<path d="M195.224 65.0421C193.736 61.8258 190.77 59.2196 187.267 58.4543C184.012 57.7511 180.095 59.0955 179.454 62.7359C179.775 62.6014 180.095 62.4773 180.415 62.3429C177.532 60.833 173.729 59.1369 170.722 61.3397C167.839 63.4495 167.705 67.2656 167.963 70.5026C168.294 70.3165 168.625 70.1303 168.945 69.9339C166.63 68.7135 163.664 67.7 161.753 70.1407C160.006 72.3849 159.355 75.6426 159.252 78.4246C159.582 78.2384 159.913 78.0523 160.233 77.8558C158.632 76.6768 156.792 75.7874 154.839 75.3944C152.793 74.9807 151.47 75.6219 150.106 77.1318C147.667 79.8311 145.363 83.4714 146.572 87.2359C146.83 88.0322 148.091 87.6909 147.833 86.8842C146.81 83.7093 148.763 80.6377 150.788 78.3211C151.274 77.7627 151.801 77.0904 152.473 76.7595C153.31 76.3355 154.333 76.6044 155.201 76.8319C156.803 77.2663 158.249 78.0109 159.582 78.9934C160.006 79.3036 160.554 78.8796 160.564 78.4246C160.647 76.139 161.163 73.8328 162.249 71.8057C162.796 70.7715 163.582 69.9028 164.842 69.9131C166.062 69.9131 167.229 70.513 168.294 71.0714C168.697 71.2886 169.317 71.0301 169.276 70.5026C169.059 67.7724 168.976 64.4216 171.332 62.529C173.853 60.502 177.315 62.2084 179.754 63.4805C180.095 63.6563 180.643 63.5218 180.715 63.0875C181.325 59.654 185.2 59.0541 188.011 60.0263C190.739 60.9674 192.899 63.1082 194.098 65.704C194.449 66.4693 195.575 65.8074 195.224 65.0421Z" fill="#353A4D" stroke="#353A4D"/>
<path d="M149.982 108.447C146.572 110.723 146.086 115.273 147.078 118.965C147.677 121.189 148.752 123.288 150.178 125.098C151.584 126.877 153.413 128.531 155.831 128.18C155.562 127.911 155.294 127.642 155.025 127.373C153.516 131.841 153.547 137.953 156.637 141.8C157.887 143.351 160.088 144.375 162.031 143.517C163.695 142.782 164.46 140.828 163.705 139.184C163.437 138.604 162.693 138.884 162.507 139.339C161.308 142.234 160.894 146.019 162.507 148.843C163.84 151.18 166.878 152.266 169.11 150.508C168.748 150.415 168.376 150.311 168.014 150.218C168.562 151.976 169.255 153.89 171.053 154.707C171.776 155.038 172.572 155.131 173.336 154.893C174.339 154.572 175.031 153.724 175.992 153.342C176.767 153.031 176.426 151.77 175.641 152.08C174.38 152.587 173.233 154.107 171.776 153.59C170.236 153.052 169.709 151.284 169.265 149.877C169.11 149.37 168.552 149.288 168.17 149.587C165.979 151.315 163.602 148.812 163.054 146.774C162.424 144.437 162.837 141.903 163.757 139.701C163.354 139.752 162.961 139.804 162.558 139.856C163.447 141.79 160.987 142.855 159.479 142.338C157.774 141.748 156.844 140.011 156.286 138.418C155.056 134.954 155.097 131.2 156.275 127.735C156.451 127.208 155.924 126.866 155.469 126.928C153.299 127.249 151.522 124.891 150.457 123.309C149.434 121.778 148.669 120.082 148.225 118.293C147.491 115.294 147.832 111.457 150.612 109.595C151.346 109.109 150.685 107.972 149.982 108.447Z" fill="#353A4D" stroke="#353A4D"/>
<path d="M196.318 79.4175C195.481 77.6594 193.859 76.2529 191.906 75.9219C190.211 75.6324 188.444 76.4287 188.062 78.2075C188.227 78.1455 188.382 78.0731 188.547 78.011C187.018 77.2147 185.034 76.3253 183.453 77.5042C181.965 78.6108 181.903 80.5965 182.037 82.2822C182.202 82.1892 182.368 82.0961 182.533 82.003C181.365 81.3928 179.898 80.8447 178.864 81.9927C177.852 83.1303 177.531 84.9815 177.469 86.4397C177.635 86.3466 177.8 86.2535 177.965 86.1604C176.539 85.1263 174.338 84.0714 172.881 85.5399C171.455 86.9775 170.205 88.9838 170.804 91.0625C170.918 91.4658 171.558 91.29 171.434 90.8867C170.918 89.1182 171.972 87.4945 173.119 86.2328C173.811 85.4675 174.617 85.3641 175.599 85.6744C176.333 85.9122 176.994 86.2742 177.614 86.7292C177.831 86.8844 178.1 86.6672 178.11 86.45C178.162 85.3021 178.399 84.1644 178.916 83.1302C179.671 81.6307 180.921 81.9203 182.192 82.5718C182.399 82.6752 182.709 82.5511 182.688 82.2926C182.574 80.8654 182.523 79.1796 183.711 78.1558C185.044 77.0078 186.884 77.8973 188.217 78.5902C188.392 78.6832 188.651 78.6108 188.702 78.3937C189.126 76.3977 191.389 76.2322 192.96 76.9354C194.221 77.5043 195.171 78.5281 195.76 79.7588C195.936 80.1311 196.494 79.8002 196.318 79.4175Z" fill="#353A4D" stroke="#353A4D"/>
<path d="M160.842 91.8071C155.365 93.1825 149.96 93.3377 144.349 93.1825C140.205 93.0688 134.149 92.9343 131.328 96.6367C128.662 100.132 131.638 104.569 135.296 105.655C139.843 107.01 144.979 105.055 149.03 103.038C151.51 101.797 153.877 100.339 156.253 98.912C157.369 98.2397 158.961 96.9056 160.335 97.1642C161.658 97.4124 162.392 98.9119 162.908 99.9978C163.27 100.753 164.407 100.091 164.035 99.336C163.301 97.8054 162.226 96.0886 160.387 95.8508C158.382 95.6026 156.377 97.2986 154.776 98.2708C150.766 100.691 146.674 103.183 142.065 104.279C139.709 104.838 137.043 105.107 134.779 104.083C132.837 103.204 131.194 101.011 131.7 98.7982C132.206 96.6161 134.604 95.5819 136.557 95.0854C139.099 94.4236 141.734 94.4339 144.338 94.5063C150.063 94.6614 155.592 94.4856 161.183 93.0895C162.009 92.8723 161.668 91.6002 160.842 91.8071Z" fill="#353A4D" stroke="#353A4D"/>
</svg>
