<svg width="1004" height="964" viewBox="0 0 1004 964" fill="none" xmlns="http://www.w3.org/2000/svg">
<path d="M665.128 455.526C644.976 545.159 679.784 619.852 648.474 746.998C647.976 748.841 648.159 750.8 648.988 752.52C649.818 754.239 651.239 755.605 652.994 756.369C654.748 757.133 656.719 757.244 658.549 756.682C660.378 756.119 661.945 754.921 662.963 753.305C682.676 724.112 699.413 693.029 712.926 660.519C725.583 622.508 753.063 449.551 759.558 408.22C759.702 405.032 760.993 402.003 763.195 399.686C765.397 397.37 768.363 395.921 771.549 395.605V395.605C771.549 395.605 687.944 354.44 665.128 455.526ZM721.586 407.224C722.834 406.984 724.126 407.135 725.285 407.656C726.444 408.177 727.412 409.042 728.058 410.133C728.704 411.224 728.996 412.488 728.894 413.75C728.791 415.013 728.299 416.213 727.485 417.186C726.672 418.16 725.576 418.858 724.348 419.186C723.121 419.515 721.821 419.456 720.628 419.02C719.435 418.583 718.406 417.79 717.683 416.748C716.96 415.706 716.578 414.466 716.59 413.2C716.521 412.48 716.596 411.753 716.81 411.062C717.025 410.372 717.374 409.73 717.839 409.174C718.303 408.619 718.874 408.161 719.517 407.826C720.16 407.491 720.863 407.287 721.586 407.224V407.224ZM682.115 445.567C682.115 445.567 734.41 471.959 740.572 412.37C741.072 413.2 744.735 480.258 682.115 445.567Z" fill="#B99E76" fill-opacity="0.1"/>
<path d="M667.795 432.122C667.795 432.122 699.771 296.345 766.721 354.772C766.721 354.772 701.936 329.044 667.795 432.122Z" fill="#B99E76" fill-opacity="0.1"/>
<path d="M466.445 700.521C466.445 700.521 452.788 717.12 516.408 753.969C519.307 762.103 521.1 770.589 521.737 779.198C522.282 770.576 524.077 762.078 527.067 753.969C591.352 716.456 577.029 700.521 577.029 700.521C591.852 686.08 610.338 663.008 596.681 641.928C583.025 620.848 543.388 694.379 536.06 691.724C526.496 688.19 515.979 688.19 506.415 691.724C499.087 694.545 460.116 621.18 445.794 641.928C431.471 662.676 451.789 686.744 466.445 700.521ZM582.026 673.631C587.688 678.445 572.533 680.935 535.394 723.427C535.394 723.759 576.197 669.647 582.026 674.295V673.631Z" fill="#B99E76" fill-opacity="0.1"/>
<path d="M637.15 648.071C641.98 691.228 644.978 806.92 522.402 784.512C399.827 806.92 402.658 691.228 407.654 648.071C391 783.184 457.617 797.459 478.934 799.285C482.935 799.45 486.854 800.469 490.426 802.273C500.125 807.933 511.162 810.916 522.402 810.916C533.642 810.916 544.679 807.933 554.378 802.273C557.943 800.449 561.866 799.429 565.87 799.285C587.687 797.957 654.47 783.516 637.15 648.071Z" fill="#B99E76" fill-opacity="0.1"/>
<path d="M293.072 386.808C293.072 386.808 305.063 385.978 306.895 390.46C306.895 390.46 322.384 481.752 363.02 421.167C363.02 421.167 396.329 414.86 446.292 526.9C445.958 526.9 374.678 337.012 293.072 386.808ZM341.536 393.282C342.663 393.304 343.734 393.771 344.515 394.58C345.296 395.389 345.722 396.475 345.7 397.597C345.678 398.72 345.209 399.788 344.397 400.566C343.585 401.344 342.496 401.769 341.37 401.747C340.354 401.747 339.379 401.345 338.661 400.629C337.943 399.913 337.539 398.942 337.539 397.929C337.413 397.364 337.417 396.777 337.552 396.213C337.687 395.649 337.949 395.123 338.318 394.675C338.687 394.227 339.154 393.869 339.682 393.627C340.211 393.386 340.788 393.268 341.37 393.282H341.536ZM314.889 400.419C314.446 399.389 314.057 398.336 313.724 397.265C314.011 398.351 314.402 399.407 314.889 400.419C318.553 411.042 331.544 441.916 353.527 412.536C353.527 412.536 332.709 454.199 314.889 400.419V400.419Z" fill="#B99E76" fill-opacity="0.1"/>
<path d="M314.888 400.418C314.401 399.406 314.01 398.35 313.723 397.264C314.056 398.335 314.445 399.388 314.888 400.418V400.418Z" fill="#B99E76" fill-opacity="0.1"/>
<path d="M314.891 400.416C332.711 454.195 353.529 412.533 353.529 412.533C332.045 441.912 318.555 411.039 314.891 400.416Z" fill="#B99E76" fill-opacity="0.1"/>
<path d="M275.752 401.746C275.752 401.746 270.756 469.468 301.899 495.86C333.043 522.252 339.371 602.755 339.371 602.755C339.371 602.755 336.207 515.779 319.386 500.342C294.179 473.27 278.814 438.552 275.752 401.746V401.746Z" fill="#B99E76" fill-opacity="0.1"/>
<path d="M348.865 603.419C348.865 603.419 337.374 734.714 401.659 739.03C401.659 739.03 356.36 702.679 348.865 603.419Z" fill="#B99E76" fill-opacity="0.1"/>
<path d="M522.402 868.337C610.004 868.337 631.821 775.384 633.486 766.753C610.837 899.542 522.402 885.267 522.402 885.267C522.402 885.267 433.968 899.708 411.318 766.919C412.984 775.384 434.801 868.337 522.402 868.337Z" fill="#B99E76" fill-opacity="0.1"/>
<path d="M555.877 157.252C579.061 158.981 602.116 152.517 620.995 138.994C622.187 138.118 623.559 137.518 625.012 137.236C626.465 136.953 627.963 136.996 629.397 137.362C630.832 137.727 632.166 138.406 633.306 139.348C634.445 140.291 635.359 141.473 635.984 142.811C641.227 152.211 649.633 159.464 659.719 163.291C669.804 167.117 680.921 167.271 691.109 163.726C692.539 163.387 694.026 163.357 695.468 163.637C696.911 163.917 698.277 164.501 699.476 165.349C700.674 166.198 701.676 167.291 702.416 168.557C703.156 169.823 703.617 171.232 703.767 172.689C706.187 191.962 712.778 210.482 723.086 226.966C738.231 243.982 756.273 258.198 776.379 268.961C776.379 268.961 736.242 246.885 703.1 257.176C682.533 264.994 665.655 280.216 655.802 299.834C631.154 339.837 614.833 423.66 605.007 493.042C605.007 495.772 603.919 498.389 601.982 500.319C600.046 502.249 597.42 503.333 594.681 503.333C591.943 503.333 589.316 502.249 587.38 500.319C585.443 498.389 584.355 495.772 584.355 493.042C580.684 431.415 580.294 369.636 583.19 307.968C588.136 260.479 575.327 212.842 547.216 174.183C545.894 172.635 545.062 170.731 544.824 168.712C544.587 166.693 544.954 164.649 545.88 162.838C546.807 161.027 548.25 159.53 550.029 158.536C551.809 157.542 553.843 157.095 555.877 157.252Z" fill="#B99E76" fill-opacity="0.1"/>
<path d="M894.458 416.685C963.407 425.316 1044.35 353.61 981.227 344.315C966.072 342.157 947.919 365.893 883.134 325.724C801.195 274.435 799.862 287.88 799.862 287.88C799.862 287.88 797.198 284.394 843.996 314.769C893.959 347.967 912.778 367.719 935.594 369.047C935.594 369.047 894.125 452.04 779.211 342.821C779.377 342.821 800.695 404.9 894.458 416.685Z" fill="#B99E76" fill-opacity="0.1"/>
<path d="M705.432 146.629C912.944 -29.1505 1000.55 143.475 1000.55 143.475C921.438 -103.678 734.078 28.2807 653.637 100.153C649.829 103.498 646.904 107.725 645.12 112.462C643.335 117.198 642.746 122.299 643.404 127.316C644.062 132.333 645.947 137.111 648.893 141.232C651.839 145.352 655.756 148.687 660.299 150.945L662.464 151.941C669.345 155.411 677.107 156.759 684.761 155.813C692.414 154.867 699.61 151.669 705.432 146.629V146.629Z" fill="#B99E76" fill-opacity="0.1"/>
<path d="M499.918 881.278C473.422 914.368 437.744 938.959 397.328 951.988C397.328 951.988 540.222 897.213 545.052 878.955" fill="#B99E76" fill-opacity="0.1"/>
<path d="M523.233 888.087C508.146 918.34 484.531 943.548 455.283 960.623C455.283 960.623 557.374 894.229 558.04 878.626" fill="#B99E76" fill-opacity="0.1"/>
<path d="M550.712 880.78C541.222 913.134 522.4 941.994 496.586 963.774C496.586 963.774 585.353 880.78 583.355 865.012" fill="#B99E76" fill-opacity="0.1"/>
<path d="M251.271 289.206C248.093 282.78 246.344 275.746 246.143 268.585C245.941 261.423 247.293 254.303 250.105 247.71C253.563 243.524 257.998 240.246 263.02 238.163C268.043 236.08 273.501 235.254 278.917 235.759C275.087 226.463 268.925 206.711 278.085 195.922C284.58 188.287 297.07 186.793 315.224 191.606C315.46 186.397 316.888 181.311 319.399 176.737C321.911 172.163 325.438 168.221 329.713 165.215C336.254 162.801 343.31 162.113 350.197 163.219C357.083 164.324 363.566 167.184 369.017 171.522C371.593 165.657 375.344 160.379 380.041 156.012C384.738 151.645 390.281 148.281 396.33 146.126C403.091 144.932 410.038 145.315 416.626 147.244C423.213 149.174 429.264 152.597 434.302 157.247C437.966 146.79 447.958 124.05 465.778 120.066C479.102 117.577 493.424 126.706 508.413 147.288L502.751 151.272C489.594 133.179 477.603 124.88 467.11 126.872C451.789 129.694 441.796 154.591 439.298 164.053C439.145 164.608 438.85 165.115 438.441 165.522C438.032 165.93 437.524 166.224 436.966 166.376C436.485 166.653 435.94 166.799 435.384 166.799C434.829 166.799 434.283 166.653 433.802 166.376C429.425 161.384 423.889 157.534 417.677 155.162C411.465 152.79 404.766 151.967 398.162 152.766C381.508 156.915 374.013 177.166 373.847 177.332C373.673 177.831 373.389 178.285 373.014 178.659C372.638 179.033 372.183 179.317 371.681 179.489C371.246 179.722 370.76 179.843 370.266 179.843C369.772 179.843 369.286 179.722 368.85 179.489C353.195 169.862 340.871 167.04 333.044 171.356C321.885 177.498 321.719 196.088 321.719 196.254C321.706 196.767 321.581 197.271 321.35 197.73C321.12 198.189 320.791 198.592 320.386 198.91C319.912 199.111 319.403 199.214 318.887 199.214C318.372 199.214 317.863 199.111 317.389 198.91C300.734 193.598 288.244 194.096 284.08 199.906C276.419 208.869 284.08 229.783 287.911 237.087C288.202 237.622 288.355 238.221 288.355 238.829C288.355 239.438 288.202 240.037 287.911 240.572C287.576 241.052 287.127 241.439 286.603 241.7C286.079 241.961 285.498 242.087 284.913 242.066C270.757 242.066 261.264 244.556 256.767 251.361C247.441 264.142 258.099 285.555 258.099 285.555L251.271 289.206Z" fill="#B99E76" fill-opacity="0.1"/>
<path d="M155.176 434.943C128.363 452.869 124.366 488.556 132.36 517.936C137.128 535.482 145.461 551.866 156.841 566.072C161.432 573.666 167.974 579.9 175.792 584.131C183.609 588.362 192.418 590.437 201.308 590.14L194.98 584.33C183.155 619.353 183.322 667.324 207.637 697.699C212.35 704.209 219.042 709.033 226.722 711.455C234.401 713.876 242.659 713.767 250.272 711.144C256.376 708.414 261.168 703.415 263.626 697.213C266.084 691.011 266.013 684.097 263.429 677.947C261.43 673.465 255.435 675.623 254.102 679.275C248.596 690.931 245.74 703.655 245.74 716.538C245.74 729.422 248.596 742.146 254.102 753.802C256.345 758.368 259.559 762.391 263.519 765.595C267.479 768.798 272.092 771.103 277.036 772.351C281.981 773.599 287.138 773.759 292.151 772.82C297.163 771.881 301.911 769.866 306.064 766.915L297.57 764.591C298.712 771.858 301.454 778.782 305.601 784.867C309.748 790.951 315.195 796.044 321.552 799.781C327.151 802.495 333.566 803.028 339.539 801.274C347.366 798.785 352.862 792.145 360.523 789.157C368.184 786.17 363.854 776.708 357.692 779.198C347.699 783.016 338.706 795.797 327.214 790.983C315.723 786.17 310.56 772.891 307.396 761.936C307.125 761.088 306.645 760.321 306 759.706C305.355 759.091 304.565 758.648 303.703 758.416C302.841 758.185 301.934 758.173 301.066 758.382C300.198 758.591 299.397 759.014 298.736 759.612C282.081 773.223 262.762 753.47 258.432 737.536C254.226 718.893 256.153 699.396 263.928 681.93L254.602 683.092C261.597 698.363 242.111 706.662 230.287 702.679C224.033 699.727 218.517 695.425 214.139 690.085C209.76 684.745 206.629 678.501 204.972 671.805C195.478 644.665 195.478 615.122 204.972 587.982C206.305 583.832 202.141 581.177 198.644 581.675C181.989 584.164 167.5 565.076 159.173 553.125C150.807 540.658 144.822 526.759 141.519 512.126C135.857 488.556 138.522 458.347 160.339 443.906C165.835 440.254 160.339 431.291 155.176 434.943Z" fill="#B99E76" fill-opacity="0.1"/>
<path d="M520.568 207.045C517.358 200.041 512.532 193.893 506.482 189.104C500.433 184.315 493.332 181.021 485.76 179.491C479.359 177.923 472.596 178.924 466.927 182.276C461.258 185.629 457.137 191.066 455.45 197.417L459.28 195.924C447.289 189.782 431.634 182.811 419.143 191.94C414.243 196.735 410.647 202.695 408.695 209.258C406.743 215.82 406.498 222.77 407.985 229.453L411.816 227.295C402.656 222.481 390.998 218.166 383.004 227.295C375.612 237.475 371.701 249.753 371.845 262.318L375.842 260.16C364.517 252.027 347.197 243.562 335.706 255.181C329.312 260.308 324.4 267.037 321.473 274.678C318.547 282.32 317.711 290.6 319.051 298.669C319.344 299.205 319.812 299.624 320.378 299.856C320.943 300.089 321.572 300.12 322.158 299.945C322.744 299.769 323.252 299.398 323.596 298.894C323.94 298.39 324.1 297.783 324.048 297.175C322.956 290.461 323.607 283.58 325.939 277.188C328.271 270.796 332.207 265.105 337.371 260.658C339.739 257.617 343.093 255.491 346.86 254.643C350.628 253.795 354.573 254.279 358.022 256.011C363.713 257.903 369.057 260.706 373.844 264.31C375.509 265.638 377.674 264.31 377.674 262.152C377.738 253.045 379.724 244.052 383.503 235.76C389.332 223.975 399.325 226.299 409.317 231.445C409.719 231.639 410.163 231.731 410.609 231.71C411.055 231.689 411.488 231.557 411.869 231.325C412.251 231.094 412.568 230.771 412.791 230.386C413.014 230.001 413.137 229.566 413.148 229.121C411.751 223.352 411.746 217.334 413.136 211.563C414.526 205.792 417.27 200.432 421.142 195.924C431.634 186.96 446.29 193.932 456.616 199.409C456.959 199.6 457.34 199.713 457.733 199.74C458.125 199.766 458.518 199.706 458.884 199.563C459.251 199.42 459.58 199.198 459.85 198.914C460.12 198.629 460.324 198.288 460.446 197.915C463.777 181.317 481.597 181.317 493.755 186.462C503.529 190.998 511.335 198.895 515.738 208.705C517.237 211.692 521.734 208.705 520.235 206.049L520.568 207.045Z" fill="#B99E76" fill-opacity="0.1"/>
<path d="M241.445 304.316C198.806 313.945 155.024 317.577 111.375 315.105C78.0662 314.275 30.9346 313.113 8.61789 342.326C-13.6988 371.54 11.116 404.571 39.9279 413.036C75.7346 423.66 116.371 408.389 148.181 392.62C167.833 382.827 186.485 371.374 205.138 359.423C213.965 354.277 226.622 342.824 237.448 345.646C248.273 348.468 254.102 359.423 257.766 368.054C260.597 374.03 269.424 368.054 266.592 362.743C260.764 350.792 252.436 337.181 237.947 335.521C223.458 333.861 206.304 346.808 193.647 354.443C162.943 375.139 129.245 391.036 93.7212 401.583C74.904 407.242 54.7595 406.719 36.264 400.09C28.1491 396.816 21.3565 390.946 16.9548 383.404C12.5531 375.862 10.792 367.076 11.9487 358.427C15.9458 341.828 34.9316 333.197 50.2536 329.379C70.4111 324.917 91.1055 323.352 111.708 324.732C156.422 327.229 201.267 323.486 244.942 313.611C245.598 313.436 246.213 313.135 246.753 312.724C247.292 312.312 247.744 311.799 248.085 311.213C248.425 310.628 248.646 309.981 248.735 309.31C248.825 308.639 248.781 307.957 248.606 307.303C248.431 306.649 248.128 306.036 247.716 305.499C247.303 304.961 246.788 304.51 246.2 304.171C245.613 303.832 244.964 303.612 244.291 303.522C243.618 303.433 242.933 303.477 242.277 303.652L241.445 304.316Z" fill="#B99E76" fill-opacity="0.1"/>
</svg>
